{"glyphs":{"0":{"ha":564,"x_min":0,"x_max":477,"o":"m 87 738 l 130 738 l 130 694 l 87 694 l 87 738 m 130 738 l 174 738 l 174 694 l 130 694 l 130 738 m 174 738 l 217 738 l 217 694 l 174 694 l 174 738 m 217 738 l 260 738 l 260 694 l 217 694 l 217 738 m 260 738 l 304 738 l 304 694 l 260 694 l 260 738 m 304 738 l 347 738 l 347 694 l 304 694 l 304 738 m 347 738 l 391 738 l 391 694 l 347 694 l 347 738 m 43 694 l 87 694 l 87 651 l 43 651 l 43 694 m 87 694 l 130 694 l 130 651 l 87 651 l 87 694 m 130 694 l 174 694 l 174 651 l 130 651 l 130 694 m 174 694 l 217 694 l 217 651 l 174 651 l 174 694 m 217 694 l 260 694 l 260 651 l 217 651 l 217 694 m 260 694 l 304 694 l 304 651 l 260 651 l 260 694 m 304 694 l 347 694 l 347 651 l 304 651 l 304 694 m 347 694 l 391 694 l 391 651 l 347 651 l 347 694 m 391 694 l 434 694 l 434 651 l 391 651 l 391 694 m 0 651 l 43 651 l 43 608 l 0 608 l 0 651 m 43 651 l 87 651 l 87 608 l 43 608 l 43 651 m 87 651 l 130 651 l 130 608 l 87 608 l 87 651 m 130 651 l 174 651 l 174 608 l 130 608 l 130 651 m 174 651 l 217 651 l 217 608 l 174 608 l 174 651 m 217 651 l 260 651 l 260 608 l 217 608 l 217 651 m 260 651 l 304 651 l 304 608 l 260 608 l 260 651 m 304 651 l 347 651 l 347 608 l 304 608 l 304 651 m 347 651 l 391 651 l 391 608 l 347 608 l 347 651 m 391 651 l 434 651 l 434 608 l 391 608 l 391 651 m 434 651 l 477 651 l 477 608 l 434 608 l 434 651 m 0 608 l 43 608 l 43 564 l 0 564 l 0 608 m 43 608 l 87 608 l 87 564 l 43 564 l 43 608 m 87 608 l 130 608 l 130 564 l 87 564 l 87 608 m 347 608 l 391 608 l 391 564 l 347 564 l 347 608 m 391 608 l 434 608 l 434 564 l 391 564 l 391 608 m 434 608 l 477 608 l 477 564 l 434 564 l 434 608 m 0 564 l 43 564 l 43 521 l 0 521 l 0 564 m 43 564 l 87 564 l 87 521 l 43 521 l 43 564 m 87 564 l 130 564 l 130 521 l 87 521 l 87 564 m 347 564 l 391 564 l 391 521 l 347 521 l 347 564 m 391 564 l 434 564 l 434 521 l 391 521 l 391 564 m 434 564 l 477 564 l 477 521 l 434 521 l 434 564 m 0 521 l 43 521 l 43 477 l 0 477 l 0 521 m 43 521 l 87 521 l 87 477 l 43 477 l 43 521 m 87 521 l 130 521 l 130 477 l 87 477 l 87 521 m 304 521 l 347 521 l 347 477 l 304 477 l 304 521 m 347 521 l 391 521 l 391 477 l 347 477 l 347 521 m 391 521 l 434 521 l 434 477 l 391 477 l 391 521 m 434 521 l 477 521 l 477 477 l 434 477 l 434 521 m 0 477 l 43 477 l 43 434 l 0 434 l 0 477 m 43 477 l 87 477 l 87 434 l 43 434 l 43 477 m 87 477 l 130 477 l 130 434 l 87 434 l 87 477 m 260 477 l 304 477 l 304 434 l 260 434 l 260 477 m 304 477 l 347 477 l 347 434 l 304 434 l 304 477 m 347 477 l 391 477 l 391 434 l 347 434 l 347 477 m 391 477 l 434 477 l 434 434 l 391 434 l 391 477 m 434 477 l 477 477 l 477 434 l 434 434 l 434 477 m 0 434 l 43 434 l 43 391 l 0 391 l 0 434 m 43 434 l 87 434 l 87 391 l 43 391 l 43 434 m 87 434 l 130 434 l 130 391 l 87 391 l 87 434 m 217 434 l 260 434 l 260 391 l 217 391 l 217 434 m 260 434 l 304 434 l 304 391 l 260 391 l 260 434 m 304 434 l 347 434 l 347 391 l 304 391 l 304 434 m 347 434 l 391 434 l 391 391 l 347 391 l 347 434 m 391 434 l 434 434 l 434 391 l 391 391 l 391 434 m 434 434 l 477 434 l 477 391 l 434 391 l 434 434 m 0 391 l 43 391 l 43 347 l 0 347 l 0 391 m 43 391 l 87 391 l 87 347 l 43 347 l 43 391 m 87 391 l 130 391 l 130 347 l 87 347 l 87 391 m 174 391 l 217 391 l 217 347 l 174 347 l 174 391 m 217 391 l 260 391 l 260 347 l 217 347 l 217 391 m 260 391 l 304 391 l 304 347 l 260 347 l 260 391 m 347 391 l 391 391 l 391 347 l 347 347 l 347 391 m 391 391 l 434 391 l 434 347 l 391 347 l 391 391 m 434 391 l 477 391 l 477 347 l 434 347 l 434 391 m 0 347 l 43 347 l 43 304 l 0 304 l 0 347 m 43 347 l 87 347 l 87 304 l 43 304 l 43 347 m 87 347 l 130 347 l 130 304 l 87 304 l 87 347 m 130 347 l 174 347 l 174 304 l 130 304 l 130 347 m 174 347 l 217 347 l 217 304 l 174 304 l 174 347 m 217 347 l 260 347 l 260 304 l 217 304 l 217 347 m 347 347 l 391 347 l 391 304 l 347 304 l 347 347 m 391 347 l 434 347 l 434 304 l 391 304 l 391 347 m 434 347 l 477 347 l 477 304 l 434 304 l 434 347 m 0 304 l 43 304 l 43 260 l 0 260 l 0 304 m 43 304 l 87 304 l 87 260 l 43 260 l 43 304 m 87 304 l 130 304 l 130 260 l 87 260 l 87 304 m 130 304 l 174 304 l 174 260 l 130 260 l 130 304 m 174 304 l 217 304 l 217 260 l 174 260 l 174 304 m 347 304 l 391 304 l 391 260 l 347 260 l 347 304 m 391 304 l 434 304 l 434 260 l 391 260 l 391 304 m 434 304 l 477 304 l 477 260 l 434 260 l 434 304 m 0 260 l 43 260 l 43 217 l 0 217 l 0 260 m 43 260 l 87 260 l 87 217 l 43 217 l 43 260 m 87 260 l 130 260 l 130 217 l 87 217 l 87 260 m 130 260 l 174 260 l 174 217 l 130 217 l 130 260 m 347 260 l 391 260 l 391 217 l 347 217 l 347 260 m 391 260 l 434 260 l 434 217 l 391 217 l 391 260 m 434 260 l 477 260 l 477 217 l 434 217 l 434 260 m 0 217 l 43 217 l 43 174 l 0 174 l 0 217 m 43 217 l 87 217 l 87 174 l 43 174 l 43 217 m 87 217 l 130 217 l 130 174 l 87 174 l 87 217 m 347 217 l 391 217 l 391 174 l 347 174 l 347 217 m 391 217 l 434 217 l 434 174 l 391 174 l 391 217 m 434 217 l 477 217 l 477 174 l 434 174 l 434 217 m 0 174 l 43 174 l 43 130 l 0 130 l 0 174 m 43 174 l 87 174 l 87 130 l 43 130 l 43 174 m 87 174 l 130 174 l 130 130 l 87 130 l 87 174 m 347 174 l 391 174 l 391 130 l 347 130 l 347 174 m 391 174 l 434 174 l 434 130 l 391 130 l 391 174 m 434 174 l 477 174 l 477 130 l 434 130 l 434 174 m 0 130 l 43 130 l 43 87 l 0 87 l 0 130 m 43 130 l 87 130 l 87 87 l 43 87 l 43 130 m 87 130 l 130 130 l 130 87 l 87 87 l 87 130 m 130 130 l 174 130 l 174 87 l 130 87 l 130 130 m 174 130 l 217 130 l 217 87 l 174 87 l 174 130 m 217 130 l 260 130 l 260 87 l 217 87 l 217 130 m 260 130 l 304 130 l 304 87 l 260 87 l 260 130 m 304 130 l 347 130 l 347 87 l 304 87 l 304 130 m 347 130 l 391 130 l 391 87 l 347 87 l 347 130 m 391 130 l 434 130 l 434 87 l 391 87 l 391 130 m 434 130 l 477 130 l 477 87 l 434 87 l 434 130 m 43 87 l 87 87 l 87 43 l 43 43 l 43 87 m 87 87 l 130 87 l 130 43 l 87 43 l 87 87 m 130 87 l 174 87 l 174 43 l 130 43 l 130 87 m 174 87 l 217 87 l 217 43 l 174 43 l 174 87 m 217 87 l 260 87 l 260 43 l 217 43 l 217 87 m 260 87 l 304 87 l 304 43 l 260 43 l 260 87 m 304 87 l 347 87 l 347 43 l 304 43 l 304 87 m 347 87 l 391 87 l 391 43 l 347 43 l 347 87 m 391 87 l 434 87 l 434 43 l 391 43 l 391 87 m 87 43 l 130 43 l 130 0 l 87 0 l 87 43 m 130 43 l 174 43 l 174 0 l 130 0 l 130 43 m 174 43 l 217 43 l 217 0 l 174 0 l 174 43 m 217 43 l 260 43 l 260 0 l 217 0 l 217 43 m 260 43 l 304 43 l 304 0 l 260 0 l 260 43 m 304 43 l 347 43 l 347 0 l 304 0 l 304 43 m 347 43 l 391 43 l 391 0 l 347 0 l 347 43 z "},"1":{"ha":564,"x_min":0,"x_max":477,"o":"m 174 738 l 217 738 l 217 694 l 174 694 l 174 738 m 217 738 l 260 738 l 260 694 l 217 694 l 217 738 m 260 738 l 304 738 l 304 694 l 260 694 l 260 738 m 174 694 l 217 694 l 217 651 l 174 651 l 174 694 m 217 694 l 260 694 l 260 651 l 217 651 l 217 694 m 260 694 l 304 694 l 304 651 l 260 651 l 260 694 m 43 651 l 87 651 l 87 608 l 43 608 l 43 651 m 87 651 l 130 651 l 130 608 l 87 608 l 87 651 m 130 651 l 174 651 l 174 608 l 130 608 l 130 651 m 174 651 l 217 651 l 217 608 l 174 608 l 174 651 m 217 651 l 260 651 l 260 608 l 217 608 l 217 651 m 260 651 l 304 651 l 304 608 l 260 608 l 260 651 m 43 608 l 87 608 l 87 564 l 43 564 l 43 608 m 87 608 l 130 608 l 130 564 l 87 564 l 87 608 m 130 608 l 174 608 l 174 564 l 130 564 l 130 608 m 174 608 l 217 608 l 217 564 l 174 564 l 174 608 m 217 608 l 260 608 l 260 564 l 217 564 l 217 608 m 260 608 l 304 608 l 304 564 l 260 564 l 260 608 m 43 564 l 87 564 l 87 521 l 43 521 l 43 564 m 87 564 l 130 564 l 130 521 l 87 521 l 87 564 m 130 564 l 174 564 l 174 521 l 130 521 l 130 564 m 174 564 l 217 564 l 217 521 l 174 521 l 174 564 m 217 564 l 260 564 l 260 521 l 217 521 l 217 564 m 260 564 l 304 564 l 304 521 l 260 521 l 260 564 m 174 521 l 217 521 l 217 477 l 174 477 l 174 521 m 217 521 l 260 521 l 260 477 l 217 477 l 217 521 m 260 521 l 304 521 l 304 477 l 260 477 l 260 521 m 174 477 l 217 477 l 217 434 l 174 434 l 174 477 m 217 477 l 260 477 l 260 434 l 217 434 l 217 477 m 260 477 l 304 477 l 304 434 l 260 434 l 260 477 m 174 434 l 217 434 l 217 391 l 174 391 l 174 434 m 217 434 l 260 434 l 260 391 l 217 391 l 217 434 m 260 434 l 304 434 l 304 391 l 260 391 l 260 434 m 174 391 l 217 391 l 217 347 l 174 347 l 174 391 m 217 391 l 260 391 l 260 347 l 217 347 l 217 391 m 260 391 l 304 391 l 304 347 l 260 347 l 260 391 m 174 347 l 217 347 l 217 304 l 174 304 l 174 347 m 217 347 l 260 347 l 260 304 l 217 304 l 217 347 m 260 347 l 304 347 l 304 304 l 260 304 l 260 347 m 174 304 l 217 304 l 217 260 l 174 260 l 174 304 m 217 304 l 260 304 l 260 260 l 217 260 l 217 304 m 260 304 l 304 304 l 304 260 l 260 260 l 260 304 m 174 260 l 217 260 l 217 217 l 174 217 l 174 260 m 217 260 l 260 260 l 260 217 l 217 217 l 217 260 m 260 260 l 304 260 l 304 217 l 260 217 l 260 260 m 174 217 l 217 217 l 217 174 l 174 174 l 174 217 m 217 217 l 260 217 l 260 174 l 217 174 l 217 217 m 260 217 l 304 217 l 304 174 l 260 174 l 260 217 m 174 174 l 217 174 l 217 130 l 174 130 l 174 174 m 217 174 l 260 174 l 260 130 l 217 130 l 217 174 m 260 174 l 304 174 l 304 130 l 260 130 l 260 174 m 0 130 l 43 130 l 43 87 l 0 87 l 0 130 m 43 130 l 87 130 l 87 87 l 43 87 l 43 130 m 87 130 l 130 130 l 130 87 l 87 87 l 87 130 m 130 130 l 174 130 l 174 87 l 130 87 l 130 130 m 174 130 l 217 130 l 217 87 l 174 87 l 174 130 m 217 130 l 260 130 l 260 87 l 217 87 l 217 130 m 260 130 l 304 130 l 304 87 l 260 87 l 260 130 m 304 130 l 347 130 l 347 87 l 304 87 l 304 130 m 347 130 l 391 130 l 391 87 l 347 87 l 347 130 m 391 130 l 434 130 l 434 87 l 391 87 l 391 130 m 434 130 l 477 130 l 477 87 l 434 87 l 434 130 m 0 87 l 43 87 l 43 43 l 0 43 l 0 87 m 43 87 l 87 87 l 87 43 l 43 43 l 43 87 m 87 87 l 130 87 l 130 43 l 87 43 l 87 87 m 130 87 l 174 87 l 174 43 l 130 43 l 130 87 m 174 87 l 217 87 l 217 43 l 174 43 l 174 87 m 217 87 l 260 87 l 260 43 l 217 43 l 217 87 m 260 87 l 304 87 l 304 43 l 260 43 l 260 87 m 304 87 l 347 87 l 347 43 l 304 43 l 304 87 m 347 87 l 391 87 l 391 43 l 347 43 l 347 87 m 391 87 l 434 87 l 434 43 l 391 43 l 391 87 m 434 87 l 477 87 l 477 43 l 434 43 l 434 87 m 0 43 l 43 43 l 43 0 l 0 0 l 0 43 m 43 43 l 87 43 l 87 0 l 43 0 l 43 43 m 87 43 l 130 43 l 130 0 l 87 0 l 87 43 m 130 43 l 174 43 l 174 0 l 130 0 l 130 43 m 174 43 l 217 43 l 217 0 l 174 0 l 174 43 m 217 43 l 260 43 l 260 0 l 217 0 l 217 43 m 260 43 l 304 43 l 304 0 l 260 0 l 260 43 m 304 43 l 347 43 l 347 0 l 304 0 l 304 43 m 347 43 l 391 43 l 391 0 l 347 0 l 347 43 m 391 43 l 434 43 l 434 0 l 391 0 l 391 43 m 434 43 l 477 43 l 477 0 l 434 0 l 434 43 z "},"2":{"ha":564,"x_min":0,"x_max":477,"o":"m 0 738 l 43 738 l 43 694 l 0 694 l 0 738 m 43 738 l 87 738 l 87 694 l 43 694 l 43 738 m 87 738 l 130 738 l 130 694 l 87 694 l 87 738 m 130 738 l 174 738 l 174 694 l 130 694 l 130 738 m 174 738 l 217 738 l 217 694 l 174 694 l 174 738 m 217 738 l 260 738 l 260 694 l 217 694 l 217 738 m 260 738 l 304 738 l 304 694 l 260 694 l 260 738 m 304 738 l 347 738 l 347 694 l 304 694 l 304 738 m 347 738 l 391 738 l 391 694 l 347 694 l 347 738 m 0 694 l 43 694 l 43 651 l 0 651 l 0 694 m 43 694 l 87 694 l 87 651 l 43 651 l 43 694 m 87 694 l 130 694 l 130 651 l 87 651 l 87 694 m 130 694 l 174 694 l 174 651 l 130 651 l 130 694 m 174 694 l 217 694 l 217 651 l 174 651 l 174 694 m 217 694 l 260 694 l 260 651 l 217 651 l 217 694 m 260 694 l 304 694 l 304 651 l 260 651 l 260 694 m 304 694 l 347 694 l 347 651 l 304 651 l 304 694 m 347 694 l 391 694 l 391 651 l 347 651 l 347 694 m 391 694 l 434 694 l 434 651 l 391 651 l 391 694 m 0 651 l 43 651 l 43 608 l 0 608 l 0 651 m 43 651 l 87 651 l 87 608 l 43 608 l 43 651 m 87 651 l 130 651 l 130 608 l 87 608 l 87 651 m 130 651 l 174 651 l 174 608 l 130 608 l 130 651 m 174 651 l 217 651 l 217 608 l 174 608 l 174 651 m 217 651 l 260 651 l 260 608 l 217 608 l 217 651 m 260 651 l 304 651 l 304 608 l 260 608 l 260 651 m 304 651 l 347 651 l 347 608 l 304 608 l 304 651 m 347 651 l 391 651 l 391 608 l 347 608 l 347 651 m 391 651 l 434 651 l 434 608 l 391 608 l 391 651 m 434 651 l 477 651 l 477 608 l 434 608 l 434 651 m 347 608 l 391 608 l 391 564 l 347 564 l 347 608 m 391 608 l 434 608 l 434 564 l 391 564 l 391 608 m 434 608 l 477 608 l 477 564 l 434 564 l 434 608 m 347 564 l 391 564 l 391 521 l 347 521 l 347 564 m 391 564 l 434 564 l 434 521 l 391 521 l 391 564 m 434 564 l 477 564 l 477 521 l 434 521 l 434 564 m 347 521 l 391 521 l 391 477 l 347 477 l 347 521 m 391 521 l 434 521 l 434 477 l 391 477 l 391 521 m 434 521 l 477 521 l 477 477 l 434 477 l 434 521 m 347 477 l 391 477 l 391 434 l 347 434 l 347 477 m 391 477 l 434 477 l 434 434 l 391 434 l 391 477 m 434 477 l 477 477 l 477 434 l 434 434 l 434 477 m 87 434 l 130 434 l 130 391 l 87 391 l 87 434 m 130 434 l 174 434 l 174 391 l 130 391 l 130 434 m 174 434 l 217 434 l 217 391 l 174 391 l 174 434 m 217 434 l 260 434 l 260 391 l 217 391 l 217 434 m 260 434 l 304 434 l 304 391 l 260 391 l 260 434 m 304 434 l 347 434 l 347 391 l 304 391 l 304 434 m 347 434 l 391 434 l 391 391 l 347 391 l 347 434 m 391 434 l 434 434 l 434 391 l 391 391 l 391 434 m 434 434 l 477 434 l 477 391 l 434 391 l 434 434 m 43 391 l 87 391 l 87 347 l 43 347 l 43 391 m 87 391 l 130 391 l 130 347 l 87 347 l 87 391 m 130 391 l 174 391 l 174 347 l 130 347 l 130 391 m 174 391 l 217 391 l 217 347 l 174 347 l 174 391 m 217 391 l 260 391 l 260 347 l 217 347 l 217 391 m 260 391 l 304 391 l 304 347 l 260 347 l 260 391 m 304 391 l 347 391 l 347 347 l 304 347 l 304 391 m 347 391 l 391 391 l 391 347 l 347 347 l 347 391 m 391 391 l 434 391 l 434 347 l 391 347 l 391 391 m 0 347 l 43 347 l 43 304 l 0 304 l 0 347 m 43 347 l 87 347 l 87 304 l 43 304 l 43 347 m 87 347 l 130 347 l 130 304 l 87 304 l 87 347 m 130 347 l 174 347 l 174 304 l 130 304 l 130 347 m 174 347 l 217 347 l 217 304 l 174 304 l 174 347 m 217 347 l 260 347 l 260 304 l 217 304 l 217 347 m 260 347 l 304 347 l 304 304 l 260 304 l 260 347 m 304 347 l 347 347 l 347 304 l 304 304 l 304 347 m 347 347 l 391 347 l 391 304 l 347 304 l 347 347 m 0 304 l 43 304 l 43 260 l 0 260 l 0 304 m 43 304 l 87 304 l 87 260 l 43 260 l 43 304 m 87 304 l 130 304 l 130 260 l 87 260 l 87 304 m 0 260 l 43 260 l 43 217 l 0 217 l 0 260 m 43 260 l 87 260 l 87 217 l 43 217 l 43 260 m 87 260 l 130 260 l 130 217 l 87 217 l 87 260 m 0 217 l 43 217 l 43 174 l 0 174 l 0 217 m 43 217 l 87 217 l 87 174 l 43 174 l 43 217 m 87 217 l 130 217 l 130 174 l 87 174 l 87 217 m 0 174 l 43 174 l 43 130 l 0 130 l 0 174 m 43 174 l 87 174 l 87 130 l 43 130 l 43 174 m 87 174 l 130 174 l 130 130 l 87 130 l 87 174 m 0 130 l 43 130 l 43 87 l 0 87 l 0 130 m 43 130 l 87 130 l 87 87 l 43 87 l 43 130 m 87 130 l 130 130 l 130 87 l 87 87 l 87 130 m 130 130 l 174 130 l 174 87 l 130 87 l 130 130 m 174 130 l 217 130 l 217 87 l 174 87 l 174 130 m 217 130 l 260 130 l 260 87 l 217 87 l 217 130 m 260 130 l 304 130 l 304 87 l 260 87 l 260 130 m 304 130 l 347 130 l 347 87 l 304 87 l 304 130 m 347 130 l 391 130 l 391 87 l 347 87 l 347 130 m 391 130 l 434 130 l 434 87 l 391 87 l 391 130 m 434 130 l 477 130 l 477 87 l 434 87 l 434 130 m 0 87 l 43 87 l 43 43 l 0 43 l 0 87 m 43 87 l 87 87 l 87 43 l 43 43 l 43 87 m 87 87 l 130 87 l 130 43 l 87 43 l 87 87 m 130 87 l 174 87 l 174 43 l 130 43 l 130 87 m 174 87 l 217 87 l 217 43 l 174 43 l 174 87 m 217 87 l 260 87 l 260 43 l 217 43 l 217 87 m 260 87 l 304 87 l 304 43 l 260 43 l 260 87 m 304 87 l 347 87 l 347 43 l 304 43 l 304 87 m 347 87 l 391 87 l 391 43 l 347 43 l 347 87 m 391 87 l 434 87 l 434 43 l 391 43 l 391 87 m 434 87 l 477 87 l 477 43 l 434 43 l 434 87 m 0 43 l 43 43 l 43 0 l 0 0 l 0 43 m 43 43 l 87 43 l 87 0 l 43 0 l 43 43 m 87 43 l 130 43 l 130 0 l 87 0 l 87 43 m 130 43 l 174 43 l 174 0 l 130 0 l 130 43 m 174 43 l 217 43 l 217 0 l 174 0 l 174 43 m 217 43 l 260 43 l 260 0 l 217 0 l 217 43 m 260 43 l 304 43 l 304 0 l 260 0 l 260 43 m 304 43 l 347 43 l 347 0 l 304 0 l 304 43 m 347 43 l 391 43 l 391 0 l 347 0 l 347 43 m 391 43 l 434 43 l 434 0 l 391 0 l 391 43 m 434 43 l 477 43 l 477 0 l 434 0 l 434 43 z "},"3":{"ha":564,"x_min":0,"x_max":477,"o":"m 0 738 l 43 738 l 43 694 l 0 694 l 0 738 m 43 738 l 87 738 l 87 694 l 43 694 l 43 738 m 87 738 l 130 738 l 130 694 l 87 694 l 87 738 m 130 738 l 174 738 l 174 694 l 130 694 l 130 738 m 174 738 l 217 738 l 217 694 l 174 694 l 174 738 m 217 738 l 260 738 l 260 694 l 217 694 l 217 738 m 260 738 l 304 738 l 304 694 l 260 694 l 260 738 m 304 738 l 347 738 l 347 694 l 304 694 l 304 738 m 347 738 l 391 738 l 391 694 l 347 694 l 347 738 m 0 694 l 43 694 l 43 651 l 0 651 l 0 694 m 43 694 l 87 694 l 87 651 l 43 651 l 43 694 m 87 694 l 130 694 l 130 651 l 87 651 l 87 694 m 130 694 l 174 694 l 174 651 l 130 651 l 130 694 m 174 694 l 217 694 l 217 651 l 174 651 l 174 694 m 217 694 l 260 694 l 260 651 l 217 651 l 217 694 m 260 694 l 304 694 l 304 651 l 260 651 l 260 694 m 304 694 l 347 694 l 347 651 l 304 651 l 304 694 m 347 694 l 391 694 l 391 651 l 347 651 l 347 694 m 391 694 l 434 694 l 434 651 l 391 651 l 391 694 m 0 651 l 43 651 l 43 608 l 0 608 l 0 651 m 43 651 l 87 651 l 87 608 l 43 608 l 43 651 m 87 651 l 130 651 l 130 608 l 87 608 l 87 651 m 130 651 l 174 651 l 174 608 l 130 608 l 130 651 m 174 651 l 217 651 l 217 608 l 174 608 l 174 651 m 217 651 l 260 651 l 260 608 l 217 608 l 217 651 m 260 651 l 304 651 l 304 608 l 260 608 l 260 651 m 304 651 l 347 651 l 347 608 l 304 608 l 304 651 m 347 651 l 391 651 l 391 608 l 347 608 l 347 651 m 391 651 l 434 651 l 434 608 l 391 608 l 391 651 m 434 651 l 477 651 l 477 608 l 434 608 l 434 651 m 347 608 l 391 608 l 391 564 l 347 564 l 347 608 m 391 608 l 434 608 l 434 564 l 391 564 l 391 608 m 434 608 l 477 608 l 477 564 l 434 564 l 434 608 m 347 564 l 391 564 l 391 521 l 347 521 l 347 564 m 391 564 l 434 564 l 434 521 l 391 521 l 391 564 m 434 564 l 477 564 l 477 521 l 434 521 l 434 564 m 347 521 l 391 521 l 391 477 l 347 477 l 347 521 m 391 521 l 434 521 l 434 477 l 391 477 l 391 521 m 434 521 l 477 521 l 477 477 l 434 477 l 434 521 m 347 477 l 391 477 l 391 434 l 347 434 l 347 477 m 391 477 l 434 477 l 434 434 l 391 434 l 391 477 m 434 477 l 477 477 l 477 434 l 434 434 l 434 477 m 87 434 l 130 434 l 130 391 l 87 391 l 87 434 m 130 434 l 174 434 l 174 391 l 130 391 l 130 434 m 174 434 l 217 434 l 217 391 l 174 391 l 174 434 m 217 434 l 260 434 l 260 391 l 217 391 l 217 434 m 260 434 l 304 434 l 304 391 l 260 391 l 260 434 m 304 434 l 347 434 l 347 391 l 304 391 l 304 434 m 347 434 l 391 434 l 391 391 l 347 391 l 347 434 m 391 434 l 434 434 l 434 391 l 391 391 l 391 434 m 434 434 l 477 434 l 477 391 l 434 391 l 434 434 m 87 391 l 130 391 l 130 347 l 87 347 l 87 391 m 130 391 l 174 391 l 174 347 l 130 347 l 130 391 m 174 391 l 217 391 l 217 347 l 174 347 l 174 391 m 217 391 l 260 391 l 260 347 l 217 347 l 217 391 m 260 391 l 304 391 l 304 347 l 260 347 l 260 391 m 304 391 l 347 391 l 347 347 l 304 347 l 304 391 m 347 391 l 391 391 l 391 347 l 347 347 l 347 391 m 391 391 l 434 391 l 434 347 l 391 347 l 391 391 m 87 347 l 130 347 l 130 304 l 87 304 l 87 347 m 130 347 l 174 347 l 174 304 l 130 304 l 130 347 m 174 347 l 217 347 l 217 304 l 174 304 l 174 347 m 217 347 l 260 347 l 260 304 l 217 304 l 217 347 m 260 347 l 304 347 l 304 304 l 260 304 l 260 347 m 304 347 l 347 347 l 347 304 l 304 304 l 304 347 m 347 347 l 391 347 l 391 304 l 347 304 l 347 347 m 391 347 l 434 347 l 434 304 l 391 304 l 391 347 m 347 304 l 391 304 l 391 260 l 347 260 l 347 304 m 391 304 l 434 304 l 434 260 l 391 260 l 391 304 m 434 304 l 477 304 l 477 260 l 434 260 l 434 304 m 347 260 l 391 260 l 391 217 l 347 217 l 347 260 m 391 260 l 434 260 l 434 217 l 391 217 l 391 260 m 434 260 l 477 260 l 477 217 l 434 217 l 434 260 m 347 217 l 391 217 l 391 174 l 347 174 l 347 217 m 391 217 l 434 217 l 434 174 l 391 174 l 391 217 m 434 217 l 477 217 l 477 174 l 434 174 l 434 217 m 347 174 l 391 174 l 391 130 l 347 130 l 347 174 m 391 174 l 434 174 l 434 130 l 391 130 l 391 174 m 434 174 l 477 174 l 477 130 l 434 130 l 434 174 m 0 130 l 43 130 l 43 87 l 0 87 l 0 130 m 43 130 l 87 130 l 87 87 l 43 87 l 43 130 m 87 130 l 130 130 l 130 87 l 87 87 l 87 130 m 130 130 l 174 130 l 174 87 l 130 87 l 130 130 m 174 130 l 217 130 l 217 87 l 174 87 l 174 130 m 217 130 l 260 130 l 260 87 l 217 87 l 217 130 m 260 130 l 304 130 l 304 87 l 260 87 l 260 130 m 304 130 l 347 130 l 347 87 l 304 87 l 304 130 m 347 130 l 391 130 l 391 87 l 347 87 l 347 130 m 391 130 l 434 130 l 434 87 l 391 87 l 391 130 m 434 130 l 477 130 l 477 87 l 434 87 l 434 130 m 0 87 l 43 87 l 43 43 l 0 43 l 0 87 m 43 87 l 87 87 l 87 43 l 43 43 l 43 87 m 87 87 l 130 87 l 130 43 l 87 43 l 87 87 m 130 87 l 174 87 l 174 43 l 130 43 l 130 87 m 174 87 l 217 87 l 217 43 l 174 43 l 174 87 m 217 87 l 260 87 l 260 43 l 217 43 l 217 87 m 260 87 l 304 87 l 304 43 l 260 43 l 260 87 m 304 87 l 347 87 l 347 43 l 304 43 l 304 87 m 347 87 l 391 87 l 391 43 l 347 43 l 347 87 m 391 87 l 434 87 l 434 43 l 391 43 l 391 87 m 0 43 l 43 43 l 43 0 l 0 0 l 0 43 m 43 43 l 87 43 l 87 0 l 43 0 l 43 43 m 87 43 l 130 43 l 130 0 l 87 0 l 87 43 m 130 43 l 174 43 l 174 0 l 130 0 l 130 43 m 174 43 l 217 43 l 217 0 l 174 0 l 174 43 m 217 43 l 260 43 l 260 0 l 217 0 l 217 43 m 260 43 l 304 43 l 304 0 l 260 0 l 260 43 m 304 43 l 347 43 l 347 0 l 304 0 l 304 43 m 347 43 l 391 43 l 391 0 l 347 0 l 347 43 z "},"4":{"ha":564,"x_min":0,"x_max":477,"o":"m 0 738 l 43 738 l 43 694 l 0 694 l 0 738 m 43 738 l 87 738 l 87 694 l 43 694 l 43 738 m 87 738 l 130 738 l 130 694 l 87 694 l 87 738 m 347 738 l 391 738 l 391 694 l 347 694 l 347 738 m 391 738 l 434 738 l 434 694 l 391 694 l 391 738 m 434 738 l 477 738 l 477 694 l 434 694 l 434 738 m 0 694 l 43 694 l 43 651 l 0 651 l 0 694 m 43 694 l 87 694 l 87 651 l 43 651 l 43 694 m 87 694 l 130 694 l 130 651 l 87 651 l 87 694 m 347 694 l 391 694 l 391 651 l 347 651 l 347 694 m 391 694 l 434 694 l 434 651 l 391 651 l 391 694 m 434 694 l 477 694 l 477 651 l 434 651 l 434 694 m 0 651 l 43 651 l 43 608 l 0 608 l 0 651 m 43 651 l 87 651 l 87 608 l 43 608 l 43 651 m 87 651 l 130 651 l 130 608 l 87 608 l 87 651 m 347 651 l 391 651 l 391 608 l 347 608 l 347 651 m 391 651 l 434 651 l 434 608 l 391 608 l 391 651 m 434 651 l 477 651 l 477 608 l 434 608 l 434 651 m 0 608 l 43 608 l 43 564 l 0 564 l 0 608 m 43 608 l 87 608 l 87 564 l 43 564 l 43 608 m 87 608 l 130 608 l 130 564 l 87 564 l 87 608 m 347 608 l 391 608 l 391 564 l 347 564 l 347 608 m 391 608 l 434 608 l 434 564 l 391 564 l 391 608 m 434 608 l 477 608 l 477 564 l 434 564 l 434 608 m 0 564 l 43 564 l 43 521 l 0 521 l 0 564 m 43 564 l 87 564 l 87 521 l 43 521 l 43 564 m 87 564 l 130 564 l 130 521 l 87 521 l 87 564 m 347 564 l 391 564 l 391 521 l 347 521 l 347 564 m 391 564 l 434 564 l 434 521 l 391 521 l 391 564 m 434 564 l 477 564 l 477 521 l 434 521 l 434 564 m 0 521 l 43 521 l 43 477 l 0 477 l 0 521 m 43 521 l 87 521 l 87 477 l 43 477 l 43 521 m 87 521 l 130 521 l 130 477 l 87 477 l 87 521 m 347 521 l 391 521 l 391 477 l 347 477 l 347 521 m 391 521 l 434 521 l 434 477 l 391 477 l 391 521 m 434 521 l 477 521 l 477 477 l 434 477 l 434 521 m 0 477 l 43 477 l 43 434 l 0 434 l 0 477 m 43 477 l 87 477 l 87 434 l 43 434 l 43 477 m 87 477 l 130 477 l 130 434 l 87 434 l 87 477 m 347 477 l 391 477 l 391 434 l 347 434 l 347 477 m 391 477 l 434 477 l 434 434 l 391 434 l 391 477 m 434 477 l 477 477 l 477 434 l 434 434 l 434 477 m 0 434 l 43 434 l 43 391 l 0 391 l 0 434 m 43 434 l 87 434 l 87 391 l 43 391 l 43 434 m 87 434 l 130 434 l 130 391 l 87 391 l 87 434 m 130 434 l 174 434 l 174 391 l 130 391 l 130 434 m 174 434 l 217 434 l 217 391 l 174 391 l 174 434 m 217 434 l 260 434 l 260 391 l 217 391 l 217 434 m 260 434 l 304 434 l 304 391 l 260 391 l 260 434 m 304 434 l 347 434 l 347 391 l 304 391 l 304 434 m 347 434 l 391 434 l 391 391 l 347 391 l 347 434 m 391 434 l 434 434 l 434 391 l 391 391 l 391 434 m 434 434 l 477 434 l 477 391 l 434 391 l 434 434 m 0 391 l 43 391 l 43 347 l 0 347 l 0 391 m 43 391 l 87 391 l 87 347 l 43 347 l 43 391 m 87 391 l 130 391 l 130 347 l 87 347 l 87 391 m 130 391 l 174 391 l 174 347 l 130 347 l 130 391 m 174 391 l 217 391 l 217 347 l 174 347 l 174 391 m 217 391 l 260 391 l 260 347 l 217 347 l 217 391 m 260 391 l 304 391 l 304 347 l 260 347 l 260 391 m 304 391 l 347 391 l 347 347 l 304 347 l 304 391 m 347 391 l 391 391 l 391 347 l 347 347 l 347 391 m 391 391 l 434 391 l 434 347 l 391 347 l 391 391 m 434 391 l 477 391 l 477 347 l 434 347 l 434 391 m 43 347 l 87 347 l 87 304 l 43 304 l 43 347 m 87 347 l 130 347 l 130 304 l 87 304 l 87 347 m 130 347 l 174 347 l 174 304 l 130 304 l 130 347 m 174 347 l 217 347 l 217 304 l 174 304 l 174 347 m 217 347 l 260 347 l 260 304 l 217 304 l 217 347 m 260 347 l 304 347 l 304 304 l 260 304 l 260 347 m 304 347 l 347 347 l 347 304 l 304 304 l 304 347 m 347 347 l 391 347 l 391 304 l 347 304 l 347 347 m 391 347 l 434 347 l 434 304 l 391 304 l 391 347 m 434 347 l 477 347 l 477 304 l 434 304 l 434 347 m 347 304 l 391 304 l 391 260 l 347 260 l 347 304 m 391 304 l 434 304 l 434 260 l 391 260 l 391 304 m 434 304 l 477 304 l 477 260 l 434 260 l 434 304 m 347 260 l 391 260 l 391 217 l 347 217 l 347 260 m 391 260 l 434 260 l 434 217 l 391 217 l 391 260 m 434 260 l 477 260 l 477 217 l 434 217 l 434 260 m 347 217 l 391 217 l 391 174 l 347 174 l 347 217 m 391 217 l 434 217 l 434 174 l 391 174 l 391 217 m 434 217 l 477 217 l 477 174 l 434 174 l 434 217 m 347 174 l 391 174 l 391 130 l 347 130 l 347 174 m 391 174 l 434 174 l 434 130 l 391 130 l 391 174 m 434 174 l 477 174 l 477 130 l 434 130 l 434 174 m 347 130 l 391 130 l 391 87 l 347 87 l 347 130 m 391 130 l 434 130 l 434 87 l 391 87 l 391 130 m 434 130 l 477 130 l 477 87 l 434 87 l 434 130 m 347 87 l 391 87 l 391 43 l 347 43 l 347 87 m 391 87 l 434 87 l 434 43 l 391 43 l 391 87 m 434 87 l 477 87 l 477 43 l 434 43 l 434 87 m 347 43 l 391 43 l 391 0 l 347 0 l 347 43 m 391 43 l 434 43 l 434 0 l 391 0 l 391 43 m 434 43 l 477 43 l 477 0 l 434 0 l 434 43 z "},"5":{"ha":564,"x_min":0,"x_max":477,"o":"m 0 738 l 43 738 l 43 694 l 0 694 l 0 738 m 43 738 l 87 738 l 87 694 l 43 694 l 43 738 m 87 738 l 130 738 l 130 694 l 87 694 l 87 738 m 130 738 l 174 738 l 174 694 l 130 694 l 130 738 m 174 738 l 217 738 l 217 694 l 174 694 l 174 738 m 217 738 l 260 738 l 260 694 l 217 694 l 217 738 m 260 738 l 304 738 l 304 694 l 260 694 l 260 738 m 304 738 l 347 738 l 347 694 l 304 694 l 304 738 m 347 738 l 391 738 l 391 694 l 347 694 l 347 738 m 391 738 l 434 738 l 434 694 l 391 694 l 391 738 m 434 738 l 477 738 l 477 694 l 434 694 l 434 738 m 0 694 l 43 694 l 43 651 l 0 651 l 0 694 m 43 694 l 87 694 l 87 651 l 43 651 l 43 694 m 87 694 l 130 694 l 130 651 l 87 651 l 87 694 m 130 694 l 174 694 l 174 651 l 130 651 l 130 694 m 174 694 l 217 694 l 217 651 l 174 651 l 174 694 m 217 694 l 260 694 l 260 651 l 217 651 l 217 694 m 260 694 l 304 694 l 304 651 l 260 651 l 260 694 m 304 694 l 347 694 l 347 651 l 304 651 l 304 694 m 347 694 l 391 694 l 391 651 l 347 651 l 347 694 m 391 694 l 434 694 l 434 651 l 391 651 l 391 694 m 434 694 l 477 694 l 477 651 l 434 651 l 434 694 m 0 651 l 43 651 l 43 608 l 0 608 l 0 651 m 43 651 l 87 651 l 87 608 l 43 608 l 43 651 m 87 651 l 130 651 l 130 608 l 87 608 l 87 651 m 130 651 l 174 651 l 174 608 l 130 608 l 130 651 m 174 651 l 217 651 l 217 608 l 174 608 l 174 651 m 217 651 l 260 651 l 260 608 l 217 608 l 217 651 m 260 651 l 304 651 l 304 608 l 260 608 l 260 651 m 304 651 l 347 651 l 347 608 l 304 608 l 304 651 m 347 651 l 391 651 l 391 608 l 347 608 l 347 651 m 391 651 l 434 651 l 434 608 l 391 608 l 391 651 m 434 651 l 477 651 l 477 608 l 434 608 l 434 651 m 0 608 l 43 608 l 43 564 l 0 564 l 0 608 m 43 608 l 87 608 l 87 564 l 43 564 l 43 608 m 87 608 l 130 608 l 130 564 l 87 564 l 87 608 m 0 564 l 43 564 l 43 521 l 0 521 l 0 564 m 43 564 l 87 564 l 87 521 l 43 521 l 43 564 m 87 564 l 130 564 l 130 521 l 87 521 l 87 564 m 0 521 l 43 521 l 43 477 l 0 477 l 0 521 m 43 521 l 87 521 l 87 477 l 43 477 l 43 521 m 87 521 l 130 521 l 130 477 l 87 477 l 87 521 m 0 477 l 43 477 l 43 434 l 0 434 l 0 477 m 43 477 l 87 477 l 87 434 l 43 434 l 43 477 m 87 477 l 130 477 l 130 434 l 87 434 l 87 477 m 0 434 l 43 434 l 43 391 l 0 391 l 0 434 m 43 434 l 87 434 l 87 391 l 43 391 l 43 434 m 87 434 l 130 434 l 130 391 l 87 391 l 87 434 m 130 434 l 174 434 l 174 391 l 130 391 l 130 434 m 174 434 l 217 434 l 217 391 l 174 391 l 174 434 m 217 434 l 260 434 l 260 391 l 217 391 l 217 434 m 260 434 l 304 434 l 304 391 l 260 391 l 260 434 m 304 434 l 347 434 l 347 391 l 304 391 l 304 434 m 347 434 l 391 434 l 391 391 l 347 391 l 347 434 m 0 391 l 43 391 l 43 347 l 0 347 l 0 391 m 43 391 l 87 391 l 87 347 l 43 347 l 43 391 m 87 391 l 130 391 l 130 347 l 87 347 l 87 391 m 130 391 l 174 391 l 174 347 l 130 347 l 130 391 m 174 391 l 217 391 l 217 347 l 174 347 l 174 391 m 217 391 l 260 391 l 260 347 l 217 347 l 217 391 m 260 391 l 304 391 l 304 347 l 260 347 l 260 391 m 304 391 l 347 391 l 347 347 l 304 347 l 304 391 m 347 391 l 391 391 l 391 347 l 347 347 l 347 391 m 391 391 l 434 391 l 434 347 l 391 347 l 391 391 m 0 347 l 43 347 l 43 304 l 0 304 l 0 347 m 43 347 l 87 347 l 87 304 l 43 304 l 43 347 m 87 347 l 130 347 l 130 304 l 87 304 l 87 347 m 130 347 l 174 347 l 174 304 l 130 304 l 130 347 m 174 347 l 217 347 l 217 304 l 174 304 l 174 347 m 217 347 l 260 347 l 260 304 l 217 304 l 217 347 m 260 347 l 304 347 l 304 304 l 260 304 l 260 347 m 304 347 l 347 347 l 347 304 l 304 304 l 304 347 m 347 347 l 391 347 l 391 304 l 347 304 l 347 347 m 391 347 l 434 347 l 434 304 l 391 304 l 391 347 m 434 347 l 477 347 l 477 304 l 434 304 l 434 347 m 347 304 l 391 304 l 391 260 l 347 260 l 347 304 m 391 304 l 434 304 l 434 260 l 391 260 l 391 304 m 434 304 l 477 304 l 477 260 l 434 260 l 434 304 m 347 260 l 391 260 l 391 217 l 347 217 l 347 260 m 391 260 l 434 260 l 434 217 l 391 217 l 391 260 m 434 260 l 477 260 l 477 217 l 434 217 l 434 260 m 347 217 l 391 217 l 391 174 l 347 174 l 347 217 m 391 217 l 434 217 l 434 174 l 391 174 l 391 217 m 434 217 l 477 217 l 477 174 l 434 174 l 434 217 m 347 174 l 391 174 l 391 130 l 347 130 l 347 174 m 391 174 l 434 174 l 434 130 l 391 130 l 391 174 m 434 174 l 477 174 l 477 130 l 434 130 l 434 174 m 0 130 l 43 130 l 43 87 l 0 87 l 0 130 m 43 130 l 87 130 l 87 87 l 43 87 l 43 130 m 87 130 l 130 130 l 130 87 l 87 87 l 87 130 m 130 130 l 174 130 l 174 87 l 130 87 l 130 130 m 174 130 l 217 130 l 217 87 l 174 87 l 174 130 m 217 130 l 260 130 l 260 87 l 217 87 l 217 130 m 260 130 l 304 130 l 304 87 l 260 87 l 260 130 m 304 130 l 347 130 l 347 87 l 304 87 l 304 130 m 347 130 l 391 130 l 391 87 l 347 87 l 347 130 m 391 130 l 434 130 l 434 87 l 391 87 l 391 130 m 434 130 l 477 130 l 477 87 l 434 87 l 434 130 m 0 87 l 43 87 l 43 43 l 0 43 l 0 87 m 43 87 l 87 87 l 87 43 l 43 43 l 43 87 m 87 87 l 130 87 l 130 43 l 87 43 l 87 87 m 130 87 l 174 87 l 174 43 l 130 43 l 130 87 m 174 87 l 217 87 l 217 43 l 174 43 l 174 87 m 217 87 l 260 87 l 260 43 l 217 43 l 217 87 m 260 87 l 304 87 l 304 43 l 260 43 l 260 87 m 304 87 l 347 87 l 347 43 l 304 43 l 304 87 m 347 87 l 391 87 l 391 43 l 347 43 l 347 87 m 391 87 l 434 87 l 434 43 l 391 43 l 391 87 m 0 43 l 43 43 l 43 0 l 0 0 l 0 43 m 43 43 l 87 43 l 87 0 l 43 0 l 43 43 m 87 43 l 130 43 l 130 0 l 87 0 l 87 43 m 130 43 l 174 43 l 174 0 l 130 0 l 130 43 m 174 43 l 217 43 l 217 0 l 174 0 l 174 43 m 217 43 l 260 43 l 260 0 l 217 0 l 217 43 m 260 43 l 304 43 l 304 0 l 260 0 l 260 43 m 304 43 l 347 43 l 347 0 l 304 0 l 304 43 m 347 43 l 391 43 l 391 0 l 347 0 l 347 43 z "},"6":{"ha":564,"x_min":0,"x_max":477,"o":"m 87 738 l 130 738 l 130 694 l 87 694 l 87 738 m 130 738 l 174 738 l 174 694 l 130 694 l 130 738 m 174 738 l 217 738 l 217 694 l 174 694 l 174 738 m 217 738 l 260 738 l 260 694 l 217 694 l 217 738 m 260 738 l 304 738 l 304 694 l 260 694 l 260 738 m 304 738 l 347 738 l 347 694 l 304 694 l 304 738 m 347 738 l 391 738 l 391 694 l 347 694 l 347 738 m 391 738 l 434 738 l 434 694 l 391 694 l 391 738 m 43 694 l 87 694 l 87 651 l 43 651 l 43 694 m 87 694 l 130 694 l 130 651 l 87 651 l 87 694 m 130 694 l 174 694 l 174 651 l 130 651 l 130 694 m 174 694 l 217 694 l 217 651 l 174 651 l 174 694 m 217 694 l 260 694 l 260 651 l 217 651 l 217 694 m 260 694 l 304 694 l 304 651 l 260 651 l 260 694 m 304 694 l 347 694 l 347 651 l 304 651 l 304 694 m 347 694 l 391 694 l 391 651 l 347 651 l 347 694 m 391 694 l 434 694 l 434 651 l 391 651 l 391 694 m 0 651 l 43 651 l 43 608 l 0 608 l 0 651 m 43 651 l 87 651 l 87 608 l 43 608 l 43 651 m 87 651 l 130 651 l 130 608 l 87 608 l 87 651 m 130 651 l 174 651 l 174 608 l 130 608 l 130 651 m 174 651 l 217 651 l 217 608 l 174 608 l 174 651 m 217 651 l 260 651 l 260 608 l 217 608 l 217 651 m 260 651 l 304 651 l 304 608 l 260 608 l 260 651 m 304 651 l 347 651 l 347 608 l 304 608 l 304 651 m 347 651 l 391 651 l 391 608 l 347 608 l 347 651 m 391 651 l 434 651 l 434 608 l 391 608 l 391 651 m 0 608 l 43 608 l 43 564 l 0 564 l 0 608 m 43 608 l 87 608 l 87 564 l 43 564 l 43 608 m 87 608 l 130 608 l 130 564 l 87 564 l 87 608 m 0 564 l 43 564 l 43 521 l 0 521 l 0 564 m 43 564 l 87 564 l 87 521 l 43 521 l 43 564 m 87 564 l 130 564 l 130 521 l 87 521 l 87 564 m 0 521 l 43 521 l 43 477 l 0 477 l 0 521 m 43 521 l 87 521 l 87 477 l 43 477 l 43 521 m 87 521 l 130 521 l 130 477 l 87 477 l 87 521 m 0 477 l 43 477 l 43 434 l 0 434 l 0 477 m 43 477 l 87 477 l 87 434 l 43 434 l 43 477 m 87 477 l 130 477 l 130 434 l 87 434 l 87 477 m 0 434 l 43 434 l 43 391 l 0 391 l 0 434 m 43 434 l 87 434 l 87 391 l 43 391 l 43 434 m 87 434 l 130 434 l 130 391 l 87 391 l 87 434 m 130 434 l 174 434 l 174 391 l 130 391 l 130 434 m 174 434 l 217 434 l 217 391 l 174 391 l 174 434 m 217 434 l 260 434 l 260 391 l 217 391 l 217 434 m 260 434 l 304 434 l 304 391 l 260 391 l 260 434 m 304 434 l 347 434 l 347 391 l 304 391 l 304 434 m 347 434 l 391 434 l 391 391 l 347 391 l 347 434 m 0 391 l 43 391 l 43 347 l 0 347 l 0 391 m 43 391 l 87 391 l 87 347 l 43 347 l 43 391 m 87 391 l 130 391 l 130 347 l 87 347 l 87 391 m 130 391 l 174 391 l 174 347 l 130 347 l 130 391 m 174 391 l 217 391 l 217 347 l 174 347 l 174 391 m 217 391 l 260 391 l 260 347 l 217 347 l 217 391 m 260 391 l 304 391 l 304 347 l 260 347 l 260 391 m 304 391 l 347 391 l 347 347 l 304 347 l 304 391 m 347 391 l 391 391 l 391 347 l 347 347 l 347 391 m 391 391 l 434 391 l 434 347 l 391 347 l 391 391 m 0 347 l 43 347 l 43 304 l 0 304 l 0 347 m 43 347 l 87 347 l 87 304 l 43 304 l 43 347 m 87 347 l 130 347 l 130 304 l 87 304 l 87 347 m 130 347 l 174 347 l 174 304 l 130 304 l 130 347 m 174 347 l 217 347 l 217 304 l 174 304 l 174 347 m 217 347 l 260 347 l 260 304 l 217 304 l 217 347 m 260 347 l 304 347 l 304 304 l 260 304 l 260 347 m 304 347 l 347 347 l 347 304 l 304 304 l 304 347 m 347 347 l 391 347 l 391 304 l 347 304 l 347 347 m 391 347 l 434 347 l 434 304 l 391 304 l 391 347 m 434 347 l 477 347 l 477 304 l 434 304 l 434 347 m 0 304 l 43 304 l 43 260 l 0 260 l 0 304 m 43 304 l 87 304 l 87 260 l 43 260 l 43 304 m 87 304 l 130 304 l 130 260 l 87 260 l 87 304 m 347 304 l 391 304 l 391 260 l 347 260 l 347 304 m 391 304 l 434 304 l 434 260 l 391 260 l 391 304 m 434 304 l 477 304 l 477 260 l 434 260 l 434 304 m 0 260 l 43 260 l 43 217 l 0 217 l 0 260 m 43 260 l 87 260 l 87 217 l 43 217 l 43 260 m 87 260 l 130 260 l 130 217 l 87 217 l 87 260 m 347 260 l 391 260 l 391 217 l 347 217 l 347 260 m 391 260 l 434 260 l 434 217 l 391 217 l 391 260 m 434 260 l 477 260 l 477 217 l 434 217 l 434 260 m 0 217 l 43 217 l 43 174 l 0 174 l 0 217 m 43 217 l 87 217 l 87 174 l 43 174 l 43 217 m 87 217 l 130 217 l 130 174 l 87 174 l 87 217 m 347 217 l 391 217 l 391 174 l 347 174 l 347 217 m 391 217 l 434 217 l 434 174 l 391 174 l 391 217 m 434 217 l 477 217 l 477 174 l 434 174 l 434 217 m 0 174 l 43 174 l 43 130 l 0 130 l 0 174 m 43 174 l 87 174 l 87 130 l 43 130 l 43 174 m 87 174 l 130 174 l 130 130 l 87 130 l 87 174 m 347 174 l 391 174 l 391 130 l 347 130 l 347 174 m 391 174 l 434 174 l 434 130 l 391 130 l 391 174 m 434 174 l 477 174 l 477 130 l 434 130 l 434 174 m 0 130 l 43 130 l 43 87 l 0 87 l 0 130 m 43 130 l 87 130 l 87 87 l 43 87 l 43 130 m 87 130 l 130 130 l 130 87 l 87 87 l 87 130 m 130 130 l 174 130 l 174 87 l 130 87 l 130 130 m 174 130 l 217 130 l 217 87 l 174 87 l 174 130 m 217 130 l 260 130 l 260 87 l 217 87 l 217 130 m 260 130 l 304 130 l 304 87 l 260 87 l 260 130 m 304 130 l 347 130 l 347 87 l 304 87 l 304 130 m 347 130 l 391 130 l 391 87 l 347 87 l 347 130 m 391 130 l 434 130 l 434 87 l 391 87 l 391 130 m 434 130 l 477 130 l 477 87 l 434 87 l 434 130 m 43 87 l 87 87 l 87 43 l 43 43 l 43 87 m 87 87 l 130 87 l 130 43 l 87 43 l 87 87 m 130 87 l 174 87 l 174 43 l 130 43 l 130 87 m 174 87 l 217 87 l 217 43 l 174 43 l 174 87 m 217 87 l 260 87 l 260 43 l 217 43 l 217 87 m 260 87 l 304 87 l 304 43 l 260 43 l 260 87 m 304 87 l 347 87 l 347 43 l 304 43 l 304 87 m 347 87 l 391 87 l 391 43 l 347 43 l 347 87 m 391 87 l 434 87 l 434 43 l 391 43 l 391 87 m 87 43 l 130 43 l 130 0 l 87 0 l 87 43 m 130 43 l 174 43 l 174 0 l 130 0 l 130 43 m 174 43 l 217 43 l 217 0 l 174 0 l 174 43 m 217 43 l 260 43 l 260 0 l 217 0 l 217 43 m 260 43 l 304 43 l 304 0 l 260 0 l 260 43 m 304 43 l 347 43 l 347 0 l 304 0 l 304 43 m 347 43 l 391 43 l 391 0 l 347 0 l 347 43 z "},"7":{"ha":564,"x_min":0,"x_max":477,"o":"m 0 738 l 43 738 l 43 694 l 0 694 l 0 738 m 43 738 l 87 738 l 87 694 l 43 694 l 43 738 m 87 738 l 130 738 l 130 694 l 87 694 l 87 738 m 130 738 l 174 738 l 174 694 l 130 694 l 130 738 m 174 738 l 217 738 l 217 694 l 174 694 l 174 738 m 217 738 l 260 738 l 260 694 l 217 694 l 217 738 m 260 738 l 304 738 l 304 694 l 260 694 l 260 738 m 304 738 l 347 738 l 347 694 l 304 694 l 304 738 m 347 738 l 391 738 l 391 694 l 347 694 l 347 738 m 391 738 l 434 738 l 434 694 l 391 694 l 391 738 m 434 738 l 477 738 l 477 694 l 434 694 l 434 738 m 0 694 l 43 694 l 43 651 l 0 651 l 0 694 m 43 694 l 87 694 l 87 651 l 43 651 l 43 694 m 87 694 l 130 694 l 130 651 l 87 651 l 87 694 m 130 694 l 174 694 l 174 651 l 130 651 l 130 694 m 174 694 l 217 694 l 217 651 l 174 651 l 174 694 m 217 694 l 260 694 l 260 651 l 217 651 l 217 694 m 260 694 l 304 694 l 304 651 l 260 651 l 260 694 m 304 694 l 347 694 l 347 651 l 304 651 l 304 694 m 347 694 l 391 694 l 391 651 l 347 651 l 347 694 m 391 694 l 434 694 l 434 651 l 391 651 l 391 694 m 434 694 l 477 694 l 477 651 l 434 651 l 434 694 m 0 651 l 43 651 l 43 608 l 0 608 l 0 651 m 43 651 l 87 651 l 87 608 l 43 608 l 43 651 m 87 651 l 130 651 l 130 608 l 87 608 l 87 651 m 130 651 l 174 651 l 174 608 l 130 608 l 130 651 m 174 651 l 217 651 l 217 608 l 174 608 l 174 651 m 217 651 l 260 651 l 260 608 l 217 608 l 217 651 m 260 651 l 304 651 l 304 608 l 260 608 l 260 651 m 304 651 l 347 651 l 347 608 l 304 608 l 304 651 m 347 651 l 391 651 l 391 608 l 347 608 l 347 651 m 391 651 l 434 651 l 434 608 l 391 608 l 391 651 m 434 651 l 477 651 l 477 608 l 434 608 l 434 651 m 347 608 l 391 608 l 391 564 l 347 564 l 347 608 m 391 608 l 434 608 l 434 564 l 391 564 l 391 608 m 434 608 l 477 608 l 477 564 l 434 564 l 434 608 m 347 564 l 391 564 l 391 521 l 347 521 l 347 564 m 391 564 l 434 564 l 434 521 l 391 521 l 391 564 m 434 564 l 477 564 l 477 521 l 434 521 l 434 564 m 304 521 l 347 521 l 347 477 l 304 477 l 304 521 m 347 521 l 391 521 l 391 477 l 347 477 l 347 521 m 391 521 l 434 521 l 434 477 l 391 477 l 391 521 m 434 521 l 477 521 l 477 477 l 434 477 l 434 521 m 260 477 l 304 477 l 304 434 l 260 434 l 260 477 m 304 477 l 347 477 l 347 434 l 304 434 l 304 477 m 347 477 l 391 477 l 391 434 l 347 434 l 347 477 m 391 477 l 434 477 l 434 434 l 391 434 l 391 477 m 217 434 l 260 434 l 260 391 l 217 391 l 217 434 m 260 434 l 304 434 l 304 391 l 260 391 l 260 434 m 304 434 l 347 434 l 347 391 l 304 391 l 304 434 m 347 434 l 391 434 l 391 391 l 347 391 l 347 434 m 174 391 l 217 391 l 217 347 l 174 347 l 174 391 m 217 391 l 260 391 l 260 347 l 217 347 l 217 391 m 260 391 l 304 391 l 304 347 l 260 347 l 260 391 m 304 391 l 347 391 l 347 347 l 304 347 l 304 391 m 130 347 l 174 347 l 174 304 l 130 304 l 130 347 m 174 347 l 217 347 l 217 304 l 174 304 l 174 347 m 217 347 l 260 347 l 260 304 l 217 304 l 217 347 m 260 347 l 304 347 l 304 304 l 260 304 l 260 347 m 130 304 l 174 304 l 174 260 l 130 260 l 130 304 m 174 304 l 217 304 l 217 260 l 174 260 l 174 304 m 217 304 l 260 304 l 260 260 l 217 260 l 217 304 m 130 260 l 174 260 l 174 217 l 130 217 l 130 260 m 174 260 l 217 260 l 217 217 l 174 217 l 174 260 m 217 260 l 260 260 l 260 217 l 217 217 l 217 260 m 130 217 l 174 217 l 174 174 l 130 174 l 130 217 m 174 217 l 217 217 l 217 174 l 174 174 l 174 217 m 217 217 l 260 217 l 260 174 l 217 174 l 217 217 m 130 174 l 174 174 l 174 130 l 130 130 l 130 174 m 174 174 l 217 174 l 217 130 l 174 130 l 174 174 m 217 174 l 260 174 l 260 130 l 217 130 l 217 174 m 130 130 l 174 130 l 174 87 l 130 87 l 130 130 m 174 130 l 217 130 l 217 87 l 174 87 l 174 130 m 217 130 l 260 130 l 260 87 l 217 87 l 217 130 m 130 87 l 174 87 l 174 43 l 130 43 l 130 87 m 174 87 l 217 87 l 217 43 l 174 43 l 174 87 m 217 87 l 260 87 l 260 43 l 217 43 l 217 87 m 130 43 l 174 43 l 174 0 l 130 0 l 130 43 m 174 43 l 217 43 l 217 0 l 174 0 l 174 43 m 217 43 l 260 43 l 260 0 l 217 0 l 217 43 z "},"8":{"ha":564,"x_min":0,"x_max":477,"o":"m 87 738 l 130 738 l 130 694 l 87 694 l 87 738 m 130 738 l 174 738 l 174 694 l 130 694 l 130 738 m 174 738 l 217 738 l 217 694 l 174 694 l 174 738 m 217 738 l 260 738 l 260 694 l 217 694 l 217 738 m 260 738 l 304 738 l 304 694 l 260 694 l 260 738 m 304 738 l 347 738 l 347 694 l 304 694 l 304 738 m 347 738 l 391 738 l 391 694 l 347 694 l 347 738 m 43 694 l 87 694 l 87 651 l 43 651 l 43 694 m 87 694 l 130 694 l 130 651 l 87 651 l 87 694 m 130 694 l 174 694 l 174 651 l 130 651 l 130 694 m 174 694 l 217 694 l 217 651 l 174 651 l 174 694 m 217 694 l 260 694 l 260 651 l 217 651 l 217 694 m 260 694 l 304 694 l 304 651 l 260 651 l 260 694 m 304 694 l 347 694 l 347 651 l 304 651 l 304 694 m 347 694 l 391 694 l 391 651 l 347 651 l 347 694 m 391 694 l 434 694 l 434 651 l 391 651 l 391 694 m 0 651 l 43 651 l 43 608 l 0 608 l 0 651 m 43 651 l 87 651 l 87 608 l 43 608 l 43 651 m 87 651 l 130 651 l 130 608 l 87 608 l 87 651 m 130 651 l 174 651 l 174 608 l 130 608 l 130 651 m 174 651 l 217 651 l 217 608 l 174 608 l 174 651 m 217 651 l 260 651 l 260 608 l 217 608 l 217 651 m 260 651 l 304 651 l 304 608 l 260 608 l 260 651 m 304 651 l 347 651 l 347 608 l 304 608 l 304 651 m 347 651 l 391 651 l 391 608 l 347 608 l 347 651 m 391 651 l 434 651 l 434 608 l 391 608 l 391 651 m 434 651 l 477 651 l 477 608 l 434 608 l 434 651 m 0 608 l 43 608 l 43 564 l 0 564 l 0 608 m 43 608 l 87 608 l 87 564 l 43 564 l 43 608 m 87 608 l 130 608 l 130 564 l 87 564 l 87 608 m 347 608 l 391 608 l 391 564 l 347 564 l 347 608 m 391 608 l 434 608 l 434 564 l 391 564 l 391 608 m 434 608 l 477 608 l 477 564 l 434 564 l 434 608 m 0 564 l 43 564 l 43 521 l 0 521 l 0 564 m 43 564 l 87 564 l 87 521 l 43 521 l 43 564 m 87 564 l 130 564 l 130 521 l 87 521 l 87 564 m 347 564 l 391 564 l 391 521 l 347 521 l 347 564 m 391 564 l 434 564 l 434 521 l 391 521 l 391 564 m 434 564 l 477 564 l 477 521 l 434 521 l 434 564 m 0 521 l 43 521 l 43 477 l 0 477 l 0 521 m 43 521 l 87 521 l 87 477 l 43 477 l 43 521 m 87 521 l 130 521 l 130 477 l 87 477 l 87 521 m 347 521 l 391 521 l 391 477 l 347 477 l 347 521 m 391 521 l 434 521 l 434 477 l 391 477 l 391 521 m 434 521 l 477 521 l 477 477 l 434 477 l 434 521 m 0 477 l 43 477 l 43 434 l 0 434 l 0 477 m 43 477 l 87 477 l 87 434 l 43 434 l 43 477 m 87 477 l 130 477 l 130 434 l 87 434 l 87 477 m 347 477 l 391 477 l 391 434 l 347 434 l 347 477 m 391 477 l 434 477 l 434 434 l 391 434 l 391 477 m 434 477 l 477 477 l 477 434 l 434 434 l 434 477 m 0 434 l 43 434 l 43 391 l 0 391 l 0 434 m 43 434 l 87 434 l 87 391 l 43 391 l 43 434 m 87 434 l 130 434 l 130 391 l 87 391 l 87 434 m 130 434 l 174 434 l 174 391 l 130 391 l 130 434 m 174 434 l 217 434 l 217 391 l 174 391 l 174 434 m 217 434 l 260 434 l 260 391 l 217 391 l 217 434 m 260 434 l 304 434 l 304 391 l 260 391 l 260 434 m 304 434 l 347 434 l 347 391 l 304 391 l 304 434 m 347 434 l 391 434 l 391 391 l 347 391 l 347 434 m 391 434 l 434 434 l 434 391 l 391 391 l 391 434 m 434 434 l 477 434 l 477 391 l 434 391 l 434 434 m 43 391 l 87 391 l 87 347 l 43 347 l 43 391 m 87 391 l 130 391 l 130 347 l 87 347 l 87 391 m 130 391 l 174 391 l 174 347 l 130 347 l 130 391 m 174 391 l 217 391 l 217 347 l 174 347 l 174 391 m 217 391 l 260 391 l 260 347 l 217 347 l 217 391 m 260 391 l 304 391 l 304 347 l 260 347 l 260 391 m 304 391 l 347 391 l 347 347 l 304 347 l 304 391 m 347 391 l 391 391 l 391 347 l 347 347 l 347 391 m 391 391 l 434 391 l 434 347 l 391 347 l 391 391 m 43 347 l 87 347 l 87 304 l 43 304 l 43 347 m 87 347 l 130 347 l 130 304 l 87 304 l 87 347 m 130 347 l 174 347 l 174 304 l 130 304 l 130 347 m 174 347 l 217 347 l 217 304 l 174 304 l 174 347 m 217 347 l 260 347 l 260 304 l 217 304 l 217 347 m 260 347 l 304 347 l 304 304 l 260 304 l 260 347 m 304 347 l 347 347 l 347 304 l 304 304 l 304 347 m 347 347 l 391 347 l 391 304 l 347 304 l 347 347 m 391 347 l 434 347 l 434 304 l 391 304 l 391 347 m 0 304 l 43 304 l 43 260 l 0 260 l 0 304 m 43 304 l 87 304 l 87 260 l 43 260 l 43 304 m 87 304 l 130 304 l 130 260 l 87 260 l 87 304 m 347 304 l 391 304 l 391 260 l 347 260 l 347 304 m 391 304 l 434 304 l 434 260 l 391 260 l 391 304 m 434 304 l 477 304 l 477 260 l 434 260 l 434 304 m 0 260 l 43 260 l 43 217 l 0 217 l 0 260 m 43 260 l 87 260 l 87 217 l 43 217 l 43 260 m 87 260 l 130 260 l 130 217 l 87 217 l 87 260 m 347 260 l 391 260 l 391 217 l 347 217 l 347 260 m 391 260 l 434 260 l 434 217 l 391 217 l 391 260 m 434 260 l 477 260 l 477 217 l 434 217 l 434 260 m 0 217 l 43 217 l 43 174 l 0 174 l 0 217 m 43 217 l 87 217 l 87 174 l 43 174 l 43 217 m 87 217 l 130 217 l 130 174 l 87 174 l 87 217 m 347 217 l 391 217 l 391 174 l 347 174 l 347 217 m 391 217 l 434 217 l 434 174 l 391 174 l 391 217 m 434 217 l 477 217 l 477 174 l 434 174 l 434 217 m 0 174 l 43 174 l 43 130 l 0 130 l 0 174 m 43 174 l 87 174 l 87 130 l 43 130 l 43 174 m 87 174 l 130 174 l 130 130 l 87 130 l 87 174 m 347 174 l 391 174 l 391 130 l 347 130 l 347 174 m 391 174 l 434 174 l 434 130 l 391 130 l 391 174 m 434 174 l 477 174 l 477 130 l 434 130 l 434 174 m 0 130 l 43 130 l 43 87 l 0 87 l 0 130 m 43 130 l 87 130 l 87 87 l 43 87 l 43 130 m 87 130 l 130 130 l 130 87 l 87 87 l 87 130 m 130 130 l 174 130 l 174 87 l 130 87 l 130 130 m 174 130 l 217 130 l 217 87 l 174 87 l 174 130 m 217 130 l 260 130 l 260 87 l 217 87 l 217 130 m 260 130 l 304 130 l 304 87 l 260 87 l 260 130 m 304 130 l 347 130 l 347 87 l 304 87 l 304 130 m 347 130 l 391 130 l 391 87 l 347 87 l 347 130 m 391 130 l 434 130 l 434 87 l 391 87 l 391 130 m 434 130 l 477 130 l 477 87 l 434 87 l 434 130 m 43 87 l 87 87 l 87 43 l 43 43 l 43 87 m 87 87 l 130 87 l 130 43 l 87 43 l 87 87 m 130 87 l 174 87 l 174 43 l 130 43 l 130 87 m 174 87 l 217 87 l 217 43 l 174 43 l 174 87 m 217 87 l 260 87 l 260 43 l 217 43 l 217 87 m 260 87 l 304 87 l 304 43 l 260 43 l 260 87 m 304 87 l 347 87 l 347 43 l 304 43 l 304 87 m 347 87 l 391 87 l 391 43 l 347 43 l 347 87 m 391 87 l 434 87 l 434 43 l 391 43 l 391 87 m 87 43 l 130 43 l 130 0 l 87 0 l 87 43 m 130 43 l 174 43 l 174 0 l 130 0 l 130 43 m 174 43 l 217 43 l 217 0 l 174 0 l 174 43 m 217 43 l 260 43 l 260 0 l 217 0 l 217 43 m 260 43 l 304 43 l 304 0 l 260 0 l 260 43 m 304 43 l 347 43 l 347 0 l 304 0 l 304 43 m 347 43 l 391 43 l 391 0 l 347 0 l 347 43 z "},"9":{"ha":564,"x_min":0,"x_max":477,"o":"m 87 738 l 130 738 l 130 694 l 87 694 l 87 738 m 130 738 l 174 738 l 174 694 l 130 694 l 130 738 m 174 738 l 217 738 l 217 694 l 174 694 l 174 738 m 217 738 l 260 738 l 260 694 l 217 694 l 217 738 m 260 738 l 304 738 l 304 694 l 260 694 l 260 738 m 304 738 l 347 738 l 347 694 l 304 694 l 304 738 m 347 738 l 391 738 l 391 694 l 347 694 l 347 738 m 43 694 l 87 694 l 87 651 l 43 651 l 43 694 m 87 694 l 130 694 l 130 651 l 87 651 l 87 694 m 130 694 l 174 694 l 174 651 l 130 651 l 130 694 m 174 694 l 217 694 l 217 651 l 174 651 l 174 694 m 217 694 l 260 694 l 260 651 l 217 651 l 217 694 m 260 694 l 304 694 l 304 651 l 260 651 l 260 694 m 304 694 l 347 694 l 347 651 l 304 651 l 304 694 m 347 694 l 391 694 l 391 651 l 347 651 l 347 694 m 391 694 l 434 694 l 434 651 l 391 651 l 391 694 m 0 651 l 43 651 l 43 608 l 0 608 l 0 651 m 43 651 l 87 651 l 87 608 l 43 608 l 43 651 m 87 651 l 130 651 l 130 608 l 87 608 l 87 651 m 130 651 l 174 651 l 174 608 l 130 608 l 130 651 m 174 651 l 217 651 l 217 608 l 174 608 l 174 651 m 217 651 l 260 651 l 260 608 l 217 608 l 217 651 m 260 651 l 304 651 l 304 608 l 260 608 l 260 651 m 304 651 l 347 651 l 347 608 l 304 608 l 304 651 m 347 651 l 391 651 l 391 608 l 347 608 l 347 651 m 391 651 l 434 651 l 434 608 l 391 608 l 391 651 m 434 651 l 477 651 l 477 608 l 434 608 l 434 651 m 0 608 l 43 608 l 43 564 l 0 564 l 0 608 m 43 608 l 87 608 l 87 564 l 43 564 l 43 608 m 87 608 l 130 608 l 130 564 l 87 564 l 87 608 m 347 608 l 391 608 l 391 564 l 347 564 l 347 608 m 391 608 l 434 608 l 434 564 l 391 564 l 391 608 m 434 608 l 477 608 l 477 564 l 434 564 l 434 608 m 0 564 l 43 564 l 43 521 l 0 521 l 0 564 m 43 564 l 87 564 l 87 521 l 43 521 l 43 564 m 87 564 l 130 564 l 130 521 l 87 521 l 87 564 m 347 564 l 391 564 l 391 521 l 347 521 l 347 564 m 391 564 l 434 564 l 434 521 l 391 521 l 391 564 m 434 564 l 477 564 l 477 521 l 434 521 l 434 564 m 0 521 l 43 521 l 43 477 l 0 477 l 0 521 m 43 521 l 87 521 l 87 477 l 43 477 l 43 521 m 87 521 l 130 521 l 130 477 l 87 477 l 87 521 m 347 521 l 391 521 l 391 477 l 347 477 l 347 521 m 391 521 l 434 521 l 434 477 l 391 477 l 391 521 m 434 521 l 477 521 l 477 477 l 434 477 l 434 521 m 0 477 l 43 477 l 43 434 l 0 434 l 0 477 m 43 477 l 87 477 l 87 434 l 43 434 l 43 477 m 87 477 l 130 477 l 130 434 l 87 434 l 87 477 m 347 477 l 391 477 l 391 434 l 347 434 l 347 477 m 391 477 l 434 477 l 434 434 l 391 434 l 391 477 m 434 477 l 477 477 l 477 434 l 434 434 l 434 477 m 0 434 l 43 434 l 43 391 l 0 391 l 0 434 m 43 434 l 87 434 l 87 391 l 43 391 l 43 434 m 87 434 l 130 434 l 130 391 l 87 391 l 87 434 m 130 434 l 174 434 l 174 391 l 130 391 l 130 434 m 174 434 l 217 434 l 217 391 l 174 391 l 174 434 m 217 434 l 260 434 l 260 391 l 217 391 l 217 434 m 260 434 l 304 434 l 304 391 l 260 391 l 260 434 m 304 434 l 347 434 l 347 391 l 304 391 l 304 434 m 347 434 l 391 434 l 391 391 l 347 391 l 347 434 m 391 434 l 434 434 l 434 391 l 391 391 l 391 434 m 434 434 l 477 434 l 477 391 l 434 391 l 434 434 m 43 391 l 87 391 l 87 347 l 43 347 l 43 391 m 87 391 l 130 391 l 130 347 l 87 347 l 87 391 m 130 391 l 174 391 l 174 347 l 130 347 l 130 391 m 174 391 l 217 391 l 217 347 l 174 347 l 174 391 m 217 391 l 260 391 l 260 347 l 217 347 l 217 391 m 260 391 l 304 391 l 304 347 l 260 347 l 260 391 m 304 391 l 347 391 l 347 347 l 304 347 l 304 391 m 347 391 l 391 391 l 391 347 l 347 347 l 347 391 m 391 391 l 434 391 l 434 347 l 391 347 l 391 391 m 434 391 l 477 391 l 477 347 l 434 347 l 434 391 m 87 347 l 130 347 l 130 304 l 87 304 l 87 347 m 130 347 l 174 347 l 174 304 l 130 304 l 130 347 m 174 347 l 217 347 l 217 304 l 174 304 l 174 347 m 217 347 l 260 347 l 260 304 l 217 304 l 217 347 m 260 347 l 304 347 l 304 304 l 260 304 l 260 347 m 304 347 l 347 347 l 347 304 l 304 304 l 304 347 m 347 347 l 391 347 l 391 304 l 347 304 l 347 347 m 391 347 l 434 347 l 434 304 l 391 304 l 391 347 m 434 347 l 477 347 l 477 304 l 434 304 l 434 347 m 347 304 l 391 304 l 391 260 l 347 260 l 347 304 m 391 304 l 434 304 l 434 260 l 391 260 l 391 304 m 434 304 l 477 304 l 477 260 l 434 260 l 434 304 m 347 260 l 391 260 l 391 217 l 347 217 l 347 260 m 391 260 l 434 260 l 434 217 l 391 217 l 391 260 m 434 260 l 477 260 l 477 217 l 434 217 l 434 260 m 347 217 l 391 217 l 391 174 l 347 174 l 347 217 m 391 217 l 434 217 l 434 174 l 391 174 l 391 217 m 434 217 l 477 217 l 477 174 l 434 174 l 434 217 m 347 174 l 391 174 l 391 130 l 347 130 l 347 174 m 391 174 l 434 174 l 434 130 l 391 130 l 391 174 m 434 174 l 477 174 l 477 130 l 434 130 l 434 174 m 43 130 l 87 130 l 87 87 l 43 87 l 43 130 m 87 130 l 130 130 l 130 87 l 87 87 l 87 130 m 130 130 l 174 130 l 174 87 l 130 87 l 130 130 m 174 130 l 217 130 l 217 87 l 174 87 l 174 130 m 217 130 l 260 130 l 260 87 l 217 87 l 217 130 m 260 130 l 304 130 l 304 87 l 260 87 l 260 130 m 304 130 l 347 130 l 347 87 l 304 87 l 304 130 m 347 130 l 391 130 l 391 87 l 347 87 l 347 130 m 391 130 l 434 130 l 434 87 l 391 87 l 391 130 m 434 130 l 477 130 l 477 87 l 434 87 l 434 130 m 43 87 l 87 87 l 87 43 l 43 43 l 43 87 m 87 87 l 130 87 l 130 43 l 87 43 l 87 87 m 130 87 l 174 87 l 174 43 l 130 43 l 130 87 m 174 87 l 217 87 l 217 43 l 174 43 l 174 87 m 217 87 l 260 87 l 260 43 l 217 43 l 217 87 m 260 87 l 304 87 l 304 43 l 260 43 l 260 87 m 304 87 l 347 87 l 347 43 l 304 43 l 304 87 m 347 87 l 391 87 l 391 43 l 347 43 l 347 87 m 391 87 l 434 87 l 434 43 l 391 43 l 391 87 m 43 43 l 87 43 l 87 0 l 43 0 l 43 43 m 87 43 l 130 43 l 130 0 l 87 0 l 87 43 m 130 43 l 174 43 l 174 0 l 130 0 l 130 43 m 174 43 l 217 43 l 217 0 l 174 0 l 174 43 m 217 43 l 260 43 l 260 0 l 217 0 l 217 43 m 260 43 l 304 43 l 304 0 l 260 0 l 260 43 m 304 43 l 347 43 l 347 0 l 304 0 l 304 43 m 347 43 l 391 43 l 391 0 l 347 0 l 347 43 z "},"\r":{"ha":87,"x_min":0,"x_max":0,"o":""}," ":{"ha":347,"x_min":0,"x_max":0,"o":""},"!":{"ha":260,"x_min":43,"x_max":174,"o":"m 43 738 l 87 738 l 87 694 l 43 694 l 43 738 m 87 738 l 130 738 l 130 694 l 87 694 l 87 738 m 130 738 l 174 738 l 174 694 l 130 694 l 130 738 m 43 694 l 87 694 l 87 651 l 43 651 l 43 694 m 87 694 l 130 694 l 130 651 l 87 651 l 87 694 m 130 694 l 174 694 l 174 651 l 130 651 l 130 694 m 43 651 l 87 651 l 87 608 l 43 608 l 43 651 m 87 651 l 130 651 l 130 608 l 87 608 l 87 651 m 130 651 l 174 651 l 174 608 l 130 608 l 130 651 m 43 608 l 87 608 l 87 564 l 43 564 l 43 608 m 87 608 l 130 608 l 130 564 l 87 564 l 87 608 m 130 608 l 174 608 l 174 564 l 130 564 l 130 608 m 43 564 l 87 564 l 87 521 l 43 521 l 43 564 m 87 564 l 130 564 l 130 521 l 87 521 l 87 564 m 130 564 l 174 564 l 174 521 l 130 521 l 130 564 m 43 521 l 87 521 l 87 477 l 43 477 l 43 521 m 87 521 l 130 521 l 130 477 l 87 477 l 87 521 m 130 521 l 174 521 l 174 477 l 130 477 l 130 521 m 43 477 l 87 477 l 87 434 l 43 434 l 43 477 m 87 477 l 130 477 l 130 434 l 87 434 l 87 477 m 130 477 l 174 477 l 174 434 l 130 434 l 130 477 m 43 434 l 87 434 l 87 391 l 43 391 l 43 434 m 87 434 l 130 434 l 130 391 l 87 391 l 87 434 m 130 434 l 174 434 l 174 391 l 130 391 l 130 434 m 43 391 l 87 391 l 87 347 l 43 347 l 43 391 m 87 391 l 130 391 l 130 347 l 87 347 l 87 391 m 130 391 l 174 391 l 174 347 l 130 347 l 130 391 m 43 347 l 87 347 l 87 304 l 43 304 l 43 347 m 87 347 l 130 347 l 130 304 l 87 304 l 87 347 m 130 347 l 174 347 l 174 304 l 130 304 l 130 347 m 43 304 l 87 304 l 87 260 l 43 260 l 43 304 m 87 304 l 130 304 l 130 260 l 87 260 l 87 304 m 130 304 l 174 304 l 174 260 l 130 260 l 130 304 m 43 260 l 87 260 l 87 217 l 43 217 l 43 260 m 87 260 l 130 260 l 130 217 l 87 217 l 87 260 m 130 260 l 174 260 l 174 217 l 130 217 l 130 260 m 43 130 l 87 130 l 87 87 l 43 87 l 43 130 m 87 130 l 130 130 l 130 87 l 87 87 l 87 130 m 130 130 l 174 130 l 174 87 l 130 87 l 130 130 m 43 87 l 87 87 l 87 43 l 43 43 l 43 87 m 87 87 l 130 87 l 130 43 l 87 43 l 87 87 m 130 87 l 174 87 l 174 43 l 130 43 l 130 87 m 43 43 l 87 43 l 87 0 l 43 0 l 43 43 m 87 43 l 130 43 l 130 0 l 87 0 l 87 43 m 130 43 l 174 43 l 174 0 l 130 0 l 130 43 z "},"\"":{"ha":434,"x_min":0,"x_max":347,"o":"m 0 738 l 43 738 l 43 694 l 0 694 l 0 738 m 43 738 l 87 738 l 87 694 l 43 694 l 43 738 m 87 738 l 130 738 l 130 694 l 87 694 l 87 738 m 217 738 l 260 738 l 260 694 l 217 694 l 217 738 m 260 738 l 304 738 l 304 694 l 260 694 l 260 738 m 304 738 l 347 738 l 347 694 l 304 694 l 304 738 m 0 694 l 43 694 l 43 651 l 0 651 l 0 694 m 43 694 l 87 694 l 87 651 l 43 651 l 43 694 m 87 694 l 130 694 l 130 651 l 87 651 l 87 694 m 217 694 l 260 694 l 260 651 l 217 651 l 217 694 m 260 694 l 304 694 l 304 651 l 260 651 l 260 694 m 304 694 l 347 694 l 347 651 l 304 651 l 304 694 m 0 651 l 43 651 l 43 608 l 0 608 l 0 651 m 43 651 l 87 651 l 87 608 l 43 608 l 43 651 m 87 651 l 130 651 l 130 608 l 87 608 l 87 651 m 217 651 l 260 651 l 260 608 l 217 608 l 217 651 m 260 651 l 304 651 l 304 608 l 260 608 l 260 651 m 304 651 l 347 651 l 347 608 l 304 608 l 304 651 m 0 608 l 43 608 l 43 564 l 0 564 l 0 608 m 43 608 l 87 608 l 87 564 l 43 564 l 43 608 m 87 608 l 130 608 l 130 564 l 87 564 l 87 608 m 217 608 l 260 608 l 260 564 l 217 564 l 217 608 m 260 608 l 304 608 l 304 564 l 260 564 l 260 608 m 304 608 l 347 608 l 347 564 l 304 564 l 304 608 m 0 564 l 43 564 l 43 521 l 0 521 l 0 564 m 43 564 l 87 564 l 87 521 l 43 521 l 43 564 m 87 564 l 130 564 l 130 521 l 87 521 l 87 564 m 217 564 l 260 564 l 260 521 l 217 521 l 217 564 m 260 564 l 304 564 l 304 521 l 260 521 l 260 564 m 304 564 l 347 564 l 347 521 l 304 521 l 304 564 m 0 521 l 43 521 l 43 477 l 0 477 l 0 521 m 43 521 l 87 521 l 87 477 l 43 477 l 43 521 m 87 521 l 130 521 l 130 477 l 87 477 l 87 521 m 217 521 l 260 521 l 260 477 l 217 477 l 217 521 m 260 521 l 304 521 l 304 477 l 260 477 l 260 521 m 304 521 l 347 521 l 347 477 l 304 477 l 304 521 z "},"#":{"ha":651,"x_min":0,"x_max":564,"o":"m 87 738 l 130 738 l 130 694 l 87 694 l 87 738 m 130 738 l 174 738 l 174 694 l 130 694 l 130 738 m 174 738 l 217 738 l 217 694 l 174 694 l 174 738 m 347 738 l 391 738 l 391 694 l 347 694 l 347 738 m 391 738 l 434 738 l 434 694 l 391 694 l 391 738 m 434 738 l 477 738 l 477 694 l 434 694 l 434 738 m 87 694 l 130 694 l 130 651 l 87 651 l 87 694 m 130 694 l 174 694 l 174 651 l 130 651 l 130 694 m 174 694 l 217 694 l 217 651 l 174 651 l 174 694 m 347 694 l 391 694 l 391 651 l 347 651 l 347 694 m 391 694 l 434 694 l 434 651 l 391 651 l 391 694 m 434 694 l 477 694 l 477 651 l 434 651 l 434 694 m 87 651 l 130 651 l 130 608 l 87 608 l 87 651 m 130 651 l 174 651 l 174 608 l 130 608 l 130 651 m 174 651 l 217 651 l 217 608 l 174 608 l 174 651 m 347 651 l 391 651 l 391 608 l 347 608 l 347 651 m 391 651 l 434 651 l 434 608 l 391 608 l 391 651 m 434 651 l 477 651 l 477 608 l 434 608 l 434 651 m 0 608 l 43 608 l 43 564 l 0 564 l 0 608 m 43 608 l 87 608 l 87 564 l 43 564 l 43 608 m 87 608 l 130 608 l 130 564 l 87 564 l 87 608 m 130 608 l 174 608 l 174 564 l 130 564 l 130 608 m 174 608 l 217 608 l 217 564 l 174 564 l 174 608 m 217 608 l 260 608 l 260 564 l 217 564 l 217 608 m 260 608 l 304 608 l 304 564 l 260 564 l 260 608 m 304 608 l 347 608 l 347 564 l 304 564 l 304 608 m 347 608 l 391 608 l 391 564 l 347 564 l 347 608 m 391 608 l 434 608 l 434 564 l 391 564 l 391 608 m 434 608 l 477 608 l 477 564 l 434 564 l 434 608 m 477 608 l 521 608 l 521 564 l 477 564 l 477 608 m 521 608 l 564 608 l 564 564 l 521 564 l 521 608 m 0 564 l 43 564 l 43 521 l 0 521 l 0 564 m 43 564 l 87 564 l 87 521 l 43 521 l 43 564 m 87 564 l 130 564 l 130 521 l 87 521 l 87 564 m 130 564 l 174 564 l 174 521 l 130 521 l 130 564 m 174 564 l 217 564 l 217 521 l 174 521 l 174 564 m 217 564 l 260 564 l 260 521 l 217 521 l 217 564 m 260 564 l 304 564 l 304 521 l 260 521 l 260 564 m 304 564 l 347 564 l 347 521 l 304 521 l 304 564 m 347 564 l 391 564 l 391 521 l 347 521 l 347 564 m 391 564 l 434 564 l 434 521 l 391 521 l 391 564 m 434 564 l 477 564 l 477 521 l 434 521 l 434 564 m 477 564 l 521 564 l 521 521 l 477 521 l 477 564 m 521 564 l 564 564 l 564 521 l 521 521 l 521 564 m 0 521 l 43 521 l 43 477 l 0 477 l 0 521 m 43 521 l 87 521 l 87 477 l 43 477 l 43 521 m 87 521 l 130 521 l 130 477 l 87 477 l 87 521 m 130 521 l 174 521 l 174 477 l 130 477 l 130 521 m 174 521 l 217 521 l 217 477 l 174 477 l 174 521 m 217 521 l 260 521 l 260 477 l 217 477 l 217 521 m 260 521 l 304 521 l 304 477 l 260 477 l 260 521 m 304 521 l 347 521 l 347 477 l 304 477 l 304 521 m 347 521 l 391 521 l 391 477 l 347 477 l 347 521 m 391 521 l 434 521 l 434 477 l 391 477 l 391 521 m 434 521 l 477 521 l 477 477 l 434 477 l 434 521 m 477 521 l 521 521 l 521 477 l 477 477 l 477 521 m 521 521 l 564 521 l 564 477 l 521 477 l 521 521 m 87 477 l 130 477 l 130 434 l 87 434 l 87 477 m 130 477 l 174 477 l 174 434 l 130 434 l 130 477 m 174 477 l 217 477 l 217 434 l 174 434 l 174 477 m 347 477 l 391 477 l 391 434 l 347 434 l 347 477 m 391 477 l 434 477 l 434 434 l 391 434 l 391 477 m 434 477 l 477 477 l 477 434 l 434 434 l 434 477 m 87 434 l 130 434 l 130 391 l 87 391 l 87 434 m 130 434 l 174 434 l 174 391 l 130 391 l 130 434 m 174 434 l 217 434 l 217 391 l 174 391 l 174 434 m 347 434 l 391 434 l 391 391 l 347 391 l 347 434 m 391 434 l 434 434 l 434 391 l 391 391 l 391 434 m 434 434 l 477 434 l 477 391 l 434 391 l 434 434 m 87 391 l 130 391 l 130 347 l 87 347 l 87 391 m 130 391 l 174 391 l 174 347 l 130 347 l 130 391 m 174 391 l 217 391 l 217 347 l 174 347 l 174 391 m 347 391 l 391 391 l 391 347 l 347 347 l 347 391 m 391 391 l 434 391 l 434 347 l 391 347 l 391 391 m 434 391 l 477 391 l 477 347 l 434 347 l 434 391 m 87 347 l 130 347 l 130 304 l 87 304 l 87 347 m 130 347 l 174 347 l 174 304 l 130 304 l 130 347 m 174 347 l 217 347 l 217 304 l 174 304 l 174 347 m 347 347 l 391 347 l 391 304 l 347 304 l 347 347 m 391 347 l 434 347 l 434 304 l 391 304 l 391 347 m 434 347 l 477 347 l 477 304 l 434 304 l 434 347 m 87 304 l 130 304 l 130 260 l 87 260 l 87 304 m 130 304 l 174 304 l 174 260 l 130 260 l 130 304 m 174 304 l 217 304 l 217 260 l 174 260 l 174 304 m 347 304 l 391 304 l 391 260 l 347 260 l 347 304 m 391 304 l 434 304 l 434 260 l 391 260 l 391 304 m 434 304 l 477 304 l 477 260 l 434 260 l 434 304 m 0 260 l 43 260 l 43 217 l 0 217 l 0 260 m 43 260 l 87 260 l 87 217 l 43 217 l 43 260 m 87 260 l 130 260 l 130 217 l 87 217 l 87 260 m 130 260 l 174 260 l 174 217 l 130 217 l 130 260 m 174 260 l 217 260 l 217 217 l 174 217 l 174 260 m 217 260 l 260 260 l 260 217 l 217 217 l 217 260 m 260 260 l 304 260 l 304 217 l 260 217 l 260 260 m 304 260 l 347 260 l 347 217 l 304 217 l 304 260 m 347 260 l 391 260 l 391 217 l 347 217 l 347 260 m 391 260 l 434 260 l 434 217 l 391 217 l 391 260 m 434 260 l 477 260 l 477 217 l 434 217 l 434 260 m 477 260 l 521 260 l 521 217 l 477 217 l 477 260 m 521 260 l 564 260 l 564 217 l 521 217 l 521 260 m 0 217 l 43 217 l 43 174 l 0 174 l 0 217 m 43 217 l 87 217 l 87 174 l 43 174 l 43 217 m 87 217 l 130 217 l 130 174 l 87 174 l 87 217 m 130 217 l 174 217 l 174 174 l 130 174 l 130 217 m 174 217 l 217 217 l 217 174 l 174 174 l 174 217 m 217 217 l 260 217 l 260 174 l 217 174 l 217 217 m 260 217 l 304 217 l 304 174 l 260 174 l 260 217 m 304 217 l 347 217 l 347 174 l 304 174 l 304 217 m 347 217 l 391 217 l 391 174 l 347 174 l 347 217 m 391 217 l 434 217 l 434 174 l 391 174 l 391 217 m 434 217 l 477 217 l 477 174 l 434 174 l 434 217 m 477 217 l 521 217 l 521 174 l 477 174 l 477 217 m 521 217 l 564 217 l 564 174 l 521 174 l 521 217 m 0 174 l 43 174 l 43 130 l 0 130 l 0 174 m 43 174 l 87 174 l 87 130 l 43 130 l 43 174 m 87 174 l 130 174 l 130 130 l 87 130 l 87 174 m 130 174 l 174 174 l 174 130 l 130 130 l 130 174 m 174 174 l 217 174 l 217 130 l 174 130 l 174 174 m 217 174 l 260 174 l 260 130 l 217 130 l 217 174 m 260 174 l 304 174 l 304 130 l 260 130 l 260 174 m 304 174 l 347 174 l 347 130 l 304 130 l 304 174 m 347 174 l 391 174 l 391 130 l 347 130 l 347 174 m 391 174 l 434 174 l 434 130 l 391 130 l 391 174 m 434 174 l 477 174 l 477 130 l 434 130 l 434 174 m 477 174 l 521 174 l 521 130 l 477 130 l 477 174 m 521 174 l 564 174 l 564 130 l 521 130 l 521 174 m 87 130 l 130 130 l 130 87 l 87 87 l 87 130 m 130 130 l 174 130 l 174 87 l 130 87 l 130 130 m 174 130 l 217 130 l 217 87 l 174 87 l 174 130 m 347 130 l 391 130 l 391 87 l 347 87 l 347 130 m 391 130 l 434 130 l 434 87 l 391 87 l 391 130 m 434 130 l 477 130 l 477 87 l 434 87 l 434 130 m 87 87 l 130 87 l 130 43 l 87 43 l 87 87 m 130 87 l 174 87 l 174 43 l 130 43 l 130 87 m 174 87 l 217 87 l 217 43 l 174 43 l 174 87 m 347 87 l 391 87 l 391 43 l 347 43 l 347 87 m 391 87 l 434 87 l 434 43 l 391 43 l 391 87 m 434 87 l 477 87 l 477 43 l 434 43 l 434 87 m 87 43 l 130 43 l 130 0 l 87 0 l 87 43 m 130 43 l 174 43 l 174 0 l 130 0 l 130 43 m 174 43 l 217 43 l 217 0 l 174 0 l 174 43 m 347 43 l 391 43 l 391 0 l 347 0 l 347 43 m 391 43 l 434 43 l 434 0 l 391 0 l 391 43 m 434 43 l 477 43 l 477 0 l 434 0 l 434 43 z "},"$":{"ha":564,"x_min":0,"x_max":477,"o":"m 260 781 l 304 781 l 304 738 l 260 738 l 260 781 m 304 781 l 347 781 l 347 738 l 304 738 l 304 781 m 87 738 l 130 738 l 130 694 l 87 694 l 87 738 m 130 738 l 174 738 l 174 694 l 130 694 l 130 738 m 174 738 l 217 738 l 217 694 l 174 694 l 174 738 m 217 738 l 260 738 l 260 694 l 217 694 l 217 738 m 260 738 l 304 738 l 304 694 l 260 694 l 260 738 m 304 738 l 347 738 l 347 694 l 304 694 l 304 738 m 347 738 l 391 738 l 391 694 l 347 694 l 347 738 m 391 738 l 434 738 l 434 694 l 391 694 l 391 738 m 43 694 l 87 694 l 87 651 l 43 651 l 43 694 m 87 694 l 130 694 l 130 651 l 87 651 l 87 694 m 130 694 l 174 694 l 174 651 l 130 651 l 130 694 m 174 694 l 217 694 l 217 651 l 174 651 l 174 694 m 217 694 l 260 694 l 260 651 l 217 651 l 217 694 m 260 694 l 304 694 l 304 651 l 260 651 l 260 694 m 304 694 l 347 694 l 347 651 l 304 651 l 304 694 m 347 694 l 391 694 l 391 651 l 347 651 l 347 694 m 391 694 l 434 694 l 434 651 l 391 651 l 391 694 m 0 651 l 43 651 l 43 608 l 0 608 l 0 651 m 43 651 l 87 651 l 87 608 l 43 608 l 43 651 m 87 651 l 130 651 l 130 608 l 87 608 l 87 651 m 130 651 l 174 651 l 174 608 l 130 608 l 130 651 m 174 651 l 217 651 l 217 608 l 174 608 l 174 651 m 217 651 l 260 651 l 260 608 l 217 608 l 217 651 m 260 651 l 304 651 l 304 608 l 260 608 l 260 651 m 304 651 l 347 651 l 347 608 l 304 608 l 304 651 m 347 651 l 391 651 l 391 608 l 347 608 l 347 651 m 391 651 l 434 651 l 434 608 l 391 608 l 391 651 m 0 608 l 43 608 l 43 564 l 0 564 l 0 608 m 43 608 l 87 608 l 87 564 l 43 564 l 43 608 m 87 608 l 130 608 l 130 564 l 87 564 l 87 608 m 217 608 l 260 608 l 260 564 l 217 564 l 217 608 m 260 608 l 304 608 l 304 564 l 260 564 l 260 608 m 0 564 l 43 564 l 43 521 l 0 521 l 0 564 m 43 564 l 87 564 l 87 521 l 43 521 l 43 564 m 87 564 l 130 564 l 130 521 l 87 521 l 87 564 m 217 564 l 260 564 l 260 521 l 217 521 l 217 564 m 260 564 l 304 564 l 304 521 l 260 521 l 260 564 m 0 521 l 43 521 l 43 477 l 0 477 l 0 521 m 43 521 l 87 521 l 87 477 l 43 477 l 43 521 m 87 521 l 130 521 l 130 477 l 87 477 l 87 521 m 217 521 l 260 521 l 260 477 l 217 477 l 217 521 m 260 521 l 304 521 l 304 477 l 260 477 l 260 521 m 0 477 l 43 477 l 43 434 l 0 434 l 0 477 m 43 477 l 87 477 l 87 434 l 43 434 l 43 477 m 87 477 l 130 477 l 130 434 l 87 434 l 87 477 m 217 477 l 260 477 l 260 434 l 217 434 l 217 477 m 260 477 l 304 477 l 304 434 l 260 434 l 260 477 m 0 434 l 43 434 l 43 391 l 0 391 l 0 434 m 43 434 l 87 434 l 87 391 l 43 391 l 43 434 m 87 434 l 130 434 l 130 391 l 87 391 l 87 434 m 130 434 l 174 434 l 174 391 l 130 391 l 130 434 m 174 434 l 217 434 l 217 391 l 174 391 l 174 434 m 217 434 l 260 434 l 260 391 l 217 391 l 217 434 m 260 434 l 304 434 l 304 391 l 260 391 l 260 434 m 304 434 l 347 434 l 347 391 l 304 391 l 304 434 m 347 434 l 391 434 l 391 391 l 347 391 l 347 434 m 43 391 l 87 391 l 87 347 l 43 347 l 43 391 m 87 391 l 130 391 l 130 347 l 87 347 l 87 391 m 130 391 l 174 391 l 174 347 l 130 347 l 130 391 m 174 391 l 217 391 l 217 347 l 174 347 l 174 391 m 217 391 l 260 391 l 260 347 l 217 347 l 217 391 m 260 391 l 304 391 l 304 347 l 260 347 l 260 391 m 304 391 l 347 391 l 347 347 l 304 347 l 304 391 m 347 391 l 391 391 l 391 347 l 347 347 l 347 391 m 391 391 l 434 391 l 434 347 l 391 347 l 391 391 m 87 347 l 130 347 l 130 304 l 87 304 l 87 347 m 130 347 l 174 347 l 174 304 l 130 304 l 130 347 m 174 347 l 217 347 l 217 304 l 174 304 l 174 347 m 217 347 l 260 347 l 260 304 l 217 304 l 217 347 m 260 347 l 304 347 l 304 304 l 260 304 l 260 347 m 304 347 l 347 347 l 347 304 l 304 304 l 304 347 m 347 347 l 391 347 l 391 304 l 347 304 l 347 347 m 391 347 l 434 347 l 434 304 l 391 304 l 391 347 m 434 347 l 477 347 l 477 304 l 434 304 l 434 347 m 174 304 l 217 304 l 217 260 l 174 260 l 174 304 m 217 304 l 260 304 l 260 260 l 217 260 l 217 304 m 347 304 l 391 304 l 391 260 l 347 260 l 347 304 m 391 304 l 434 304 l 434 260 l 391 260 l 391 304 m 434 304 l 477 304 l 477 260 l 434 260 l 434 304 m 174 260 l 217 260 l 217 217 l 174 217 l 174 260 m 217 260 l 260 260 l 260 217 l 217 217 l 217 260 m 347 260 l 391 260 l 391 217 l 347 217 l 347 260 m 391 260 l 434 260 l 434 217 l 391 217 l 391 260 m 434 260 l 477 260 l 477 217 l 434 217 l 434 260 m 174 217 l 217 217 l 217 174 l 174 174 l 174 217 m 217 217 l 260 217 l 260 174 l 217 174 l 217 217 m 347 217 l 391 217 l 391 174 l 347 174 l 347 217 m 391 217 l 434 217 l 434 174 l 391 174 l 391 217 m 434 217 l 477 217 l 477 174 l 434 174 l 434 217 m 174 174 l 217 174 l 217 130 l 174 130 l 174 174 m 217 174 l 260 174 l 260 130 l 217 130 l 217 174 m 347 174 l 391 174 l 391 130 l 347 130 l 347 174 m 391 174 l 434 174 l 434 130 l 391 130 l 391 174 m 434 174 l 477 174 l 477 130 l 434 130 l 434 174 m 0 130 l 43 130 l 43 87 l 0 87 l 0 130 m 43 130 l 87 130 l 87 87 l 43 87 l 43 130 m 87 130 l 130 130 l 130 87 l 87 87 l 87 130 m 130 130 l 174 130 l 174 87 l 130 87 l 130 130 m 174 130 l 217 130 l 217 87 l 174 87 l 174 130 m 217 130 l 260 130 l 260 87 l 217 87 l 217 130 m 260 130 l 304 130 l 304 87 l 260 87 l 260 130 m 304 130 l 347 130 l 347 87 l 304 87 l 304 130 m 347 130 l 391 130 l 391 87 l 347 87 l 347 130 m 391 130 l 434 130 l 434 87 l 391 87 l 391 130 m 434 130 l 477 130 l 477 87 l 434 87 l 434 130 m 0 87 l 43 87 l 43 43 l 0 43 l 0 87 m 43 87 l 87 87 l 87 43 l 43 43 l 43 87 m 87 87 l 130 87 l 130 43 l 87 43 l 87 87 m 130 87 l 174 87 l 174 43 l 130 43 l 130 87 m 174 87 l 217 87 l 217 43 l 174 43 l 174 87 m 217 87 l 260 87 l 260 43 l 217 43 l 217 87 m 260 87 l 304 87 l 304 43 l 260 43 l 260 87 m 304 87 l 347 87 l 347 43 l 304 43 l 304 87 m 347 87 l 391 87 l 391 43 l 347 43 l 347 87 m 391 87 l 434 87 l 434 43 l 391 43 l 391 87 m 0 43 l 43 43 l 43 0 l 0 0 l 0 43 m 43 43 l 87 43 l 87 0 l 43 0 l 43 43 m 87 43 l 130 43 l 130 0 l 87 0 l 87 43 m 130 43 l 174 43 l 174 0 l 130 0 l 130 43 m 174 43 l 217 43 l 217 0 l 174 0 l 174 43 m 217 43 l 260 43 l 260 0 l 217 0 l 217 43 m 260 43 l 304 43 l 304 0 l 260 0 l 260 43 m 304 43 l 347 43 l 347 0 l 304 0 l 304 43 m 347 43 l 391 43 l 391 0 l 347 0 l 347 43 m 130 0 l 174 0 l 174 -43 l 130 -43 l 130 0 m 174 0 l 217 0 l 217 -43 l 174 -43 l 174 0 z "},"%":{"ha":825,"x_min":0,"x_max":738,"o":"m 87 738 l 130 738 l 130 694 l 87 694 l 87 738 m 130 738 l 174 738 l 174 694 l 130 694 l 130 738 m 174 738 l 217 738 l 217 694 l 174 694 l 174 738 m 217 738 l 260 738 l 260 694 l 217 694 l 217 738 m 43 694 l 87 694 l 87 651 l 43 651 l 43 694 m 87 694 l 130 694 l 130 651 l 87 651 l 87 694 m 130 694 l 174 694 l 174 651 l 130 651 l 130 694 m 174 694 l 217 694 l 217 651 l 174 651 l 174 694 m 217 694 l 260 694 l 260 651 l 217 651 l 217 694 m 260 694 l 304 694 l 304 651 l 260 651 l 260 694 m 0 651 l 43 651 l 43 608 l 0 608 l 0 651 m 43 651 l 87 651 l 87 608 l 43 608 l 43 651 m 87 651 l 130 651 l 130 608 l 87 608 l 87 651 m 130 651 l 174 651 l 174 608 l 130 608 l 130 651 m 174 651 l 217 651 l 217 608 l 174 608 l 174 651 m 217 651 l 260 651 l 260 608 l 217 608 l 217 651 m 260 651 l 304 651 l 304 608 l 260 608 l 260 651 m 304 651 l 347 651 l 347 608 l 304 608 l 304 651 m 0 608 l 43 608 l 43 564 l 0 564 l 0 608 m 43 608 l 87 608 l 87 564 l 43 564 l 43 608 m 87 608 l 130 608 l 130 564 l 87 564 l 87 608 m 217 608 l 260 608 l 260 564 l 217 564 l 217 608 m 260 608 l 304 608 l 304 564 l 260 564 l 260 608 m 304 608 l 347 608 l 347 564 l 304 564 l 304 608 m 521 608 l 564 608 l 564 564 l 521 564 l 521 608 m 564 608 l 608 608 l 608 564 l 564 564 l 564 608 m 0 564 l 43 564 l 43 521 l 0 521 l 0 564 m 43 564 l 87 564 l 87 521 l 43 521 l 43 564 m 87 564 l 130 564 l 130 521 l 87 521 l 87 564 m 217 564 l 260 564 l 260 521 l 217 521 l 217 564 m 260 564 l 304 564 l 304 521 l 260 521 l 260 564 m 304 564 l 347 564 l 347 521 l 304 521 l 304 564 m 477 564 l 521 564 l 521 521 l 477 521 l 477 564 m 521 564 l 564 564 l 564 521 l 521 521 l 521 564 m 564 564 l 608 564 l 608 521 l 564 521 l 564 564 m 0 521 l 43 521 l 43 477 l 0 477 l 0 521 m 43 521 l 87 521 l 87 477 l 43 477 l 43 521 m 87 521 l 130 521 l 130 477 l 87 477 l 87 521 m 130 521 l 174 521 l 174 477 l 130 477 l 130 521 m 174 521 l 217 521 l 217 477 l 174 477 l 174 521 m 217 521 l 260 521 l 260 477 l 217 477 l 217 521 m 260 521 l 304 521 l 304 477 l 260 477 l 260 521 m 304 521 l 347 521 l 347 477 l 304 477 l 304 521 m 434 521 l 477 521 l 477 477 l 434 477 l 434 521 m 477 521 l 521 521 l 521 477 l 477 477 l 477 521 m 521 521 l 564 521 l 564 477 l 521 477 l 521 521 m 43 477 l 87 477 l 87 434 l 43 434 l 43 477 m 87 477 l 130 477 l 130 434 l 87 434 l 87 477 m 130 477 l 174 477 l 174 434 l 130 434 l 130 477 m 174 477 l 217 477 l 217 434 l 174 434 l 174 477 m 217 477 l 260 477 l 260 434 l 217 434 l 217 477 m 260 477 l 304 477 l 304 434 l 260 434 l 260 477 m 391 477 l 434 477 l 434 434 l 391 434 l 391 477 m 434 477 l 477 477 l 477 434 l 434 434 l 434 477 m 477 477 l 521 477 l 521 434 l 477 434 l 477 477 m 87 434 l 130 434 l 130 391 l 87 391 l 87 434 m 130 434 l 174 434 l 174 391 l 130 391 l 130 434 m 174 434 l 217 434 l 217 391 l 174 391 l 174 434 m 217 434 l 260 434 l 260 391 l 217 391 l 217 434 m 347 434 l 391 434 l 391 391 l 347 391 l 347 434 m 391 434 l 434 434 l 434 391 l 391 391 l 391 434 m 434 434 l 477 434 l 477 391 l 434 391 l 434 434 m 304 391 l 347 391 l 347 347 l 304 347 l 304 391 m 347 391 l 391 391 l 391 347 l 347 347 l 347 391 m 391 391 l 434 391 l 434 347 l 391 347 l 391 391 m 260 347 l 304 347 l 304 304 l 260 304 l 260 347 m 304 347 l 347 347 l 347 304 l 304 304 l 304 347 m 347 347 l 391 347 l 391 304 l 347 304 l 347 347 m 477 347 l 521 347 l 521 304 l 477 304 l 477 347 m 521 347 l 564 347 l 564 304 l 521 304 l 521 347 m 564 347 l 608 347 l 608 304 l 564 304 l 564 347 m 608 347 l 651 347 l 651 304 l 608 304 l 608 347 m 217 304 l 260 304 l 260 260 l 217 260 l 217 304 m 260 304 l 304 304 l 304 260 l 260 260 l 260 304 m 304 304 l 347 304 l 347 260 l 304 260 l 304 304 m 434 304 l 477 304 l 477 260 l 434 260 l 434 304 m 477 304 l 521 304 l 521 260 l 477 260 l 477 304 m 521 304 l 564 304 l 564 260 l 521 260 l 521 304 m 564 304 l 608 304 l 608 260 l 564 260 l 564 304 m 608 304 l 651 304 l 651 260 l 608 260 l 608 304 m 651 304 l 694 304 l 694 260 l 651 260 l 651 304 m 174 260 l 217 260 l 217 217 l 174 217 l 174 260 m 217 260 l 260 260 l 260 217 l 217 217 l 217 260 m 260 260 l 304 260 l 304 217 l 260 217 l 260 260 m 391 260 l 434 260 l 434 217 l 391 217 l 391 260 m 434 260 l 477 260 l 477 217 l 434 217 l 434 260 m 477 260 l 521 260 l 521 217 l 477 217 l 477 260 m 521 260 l 564 260 l 564 217 l 521 217 l 521 260 m 564 260 l 608 260 l 608 217 l 564 217 l 564 260 m 608 260 l 651 260 l 651 217 l 608 217 l 608 260 m 651 260 l 694 260 l 694 217 l 651 217 l 651 260 m 694 260 l 738 260 l 738 217 l 694 217 l 694 260 m 130 217 l 174 217 l 174 174 l 130 174 l 130 217 m 174 217 l 217 217 l 217 174 l 174 174 l 174 217 m 217 217 l 260 217 l 260 174 l 217 174 l 217 217 m 391 217 l 434 217 l 434 174 l 391 174 l 391 217 m 434 217 l 477 217 l 477 174 l 434 174 l 434 217 m 477 217 l 521 217 l 521 174 l 477 174 l 477 217 m 608 217 l 651 217 l 651 174 l 608 174 l 608 217 m 651 217 l 694 217 l 694 174 l 651 174 l 651 217 m 694 217 l 738 217 l 738 174 l 694 174 l 694 217 m 130 174 l 174 174 l 174 130 l 130 130 l 130 174 m 174 174 l 217 174 l 217 130 l 174 130 l 174 174 m 391 174 l 434 174 l 434 130 l 391 130 l 391 174 m 434 174 l 477 174 l 477 130 l 434 130 l 434 174 m 477 174 l 521 174 l 521 130 l 477 130 l 477 174 m 608 174 l 651 174 l 651 130 l 608 130 l 608 174 m 651 174 l 694 174 l 694 130 l 651 130 l 651 174 m 694 174 l 738 174 l 738 130 l 694 130 l 694 174 m 391 130 l 434 130 l 434 87 l 391 87 l 391 130 m 434 130 l 477 130 l 477 87 l 434 87 l 434 130 m 477 130 l 521 130 l 521 87 l 477 87 l 477 130 m 521 130 l 564 130 l 564 87 l 521 87 l 521 130 m 564 130 l 608 130 l 608 87 l 564 87 l 564 130 m 608 130 l 651 130 l 651 87 l 608 87 l 608 130 m 651 130 l 694 130 l 694 87 l 651 87 l 651 130 m 694 130 l 738 130 l 738 87 l 694 87 l 694 130 m 434 87 l 477 87 l 477 43 l 434 43 l 434 87 m 477 87 l 521 87 l 521 43 l 477 43 l 477 87 m 521 87 l 564 87 l 564 43 l 521 43 l 521 87 m 564 87 l 608 87 l 608 43 l 564 43 l 564 87 m 608 87 l 651 87 l 651 43 l 608 43 l 608 87 m 651 87 l 694 87 l 694 43 l 651 43 l 651 87 m 477 43 l 521 43 l 521 0 l 477 0 l 477 43 m 521 43 l 564 43 l 564 0 l 521 0 l 521 43 m 564 43 l 608 43 l 608 0 l 564 0 l 564 43 m 608 43 l 651 43 l 651 0 l 608 0 l 608 43 z "},"&":{"ha":651,"x_min":0,"x_max":564,"o":"m 87 738 l 130 738 l 130 694 l 87 694 l 87 738 m 130 738 l 174 738 l 174 694 l 130 694 l 130 738 m 174 738 l 217 738 l 217 694 l 174 694 l 174 738 m 217 738 l 260 738 l 260 694 l 217 694 l 217 738 m 260 738 l 304 738 l 304 694 l 260 694 l 260 738 m 304 738 l 347 738 l 347 694 l 304 694 l 304 738 m 347 738 l 391 738 l 391 694 l 347 694 l 347 738 m 43 694 l 87 694 l 87 651 l 43 651 l 43 694 m 87 694 l 130 694 l 130 651 l 87 651 l 87 694 m 130 694 l 174 694 l 174 651 l 130 651 l 130 694 m 174 694 l 217 694 l 217 651 l 174 651 l 174 694 m 217 694 l 260 694 l 260 651 l 217 651 l 217 694 m 260 694 l 304 694 l 304 651 l 260 651 l 260 694 m 304 694 l 347 694 l 347 651 l 304 651 l 304 694 m 347 694 l 391 694 l 391 651 l 347 651 l 347 694 m 391 694 l 434 694 l 434 651 l 391 651 l 391 694 m 0 651 l 43 651 l 43 608 l 0 608 l 0 651 m 43 651 l 87 651 l 87 608 l 43 608 l 43 651 m 87 651 l 130 651 l 130 608 l 87 608 l 87 651 m 130 651 l 174 651 l 174 608 l 130 608 l 130 651 m 174 651 l 217 651 l 217 608 l 174 608 l 174 651 m 217 651 l 260 651 l 260 608 l 217 608 l 217 651 m 260 651 l 304 651 l 304 608 l 260 608 l 260 651 m 304 651 l 347 651 l 347 608 l 304 608 l 304 651 m 347 651 l 391 651 l 391 608 l 347 608 l 347 651 m 391 651 l 434 651 l 434 608 l 391 608 l 391 651 m 434 651 l 477 651 l 477 608 l 434 608 l 434 651 m 0 608 l 43 608 l 43 564 l 0 564 l 0 608 m 43 608 l 87 608 l 87 564 l 43 564 l 43 608 m 87 608 l 130 608 l 130 564 l 87 564 l 87 608 m 347 608 l 391 608 l 391 564 l 347 564 l 347 608 m 391 608 l 434 608 l 434 564 l 391 564 l 391 608 m 434 608 l 477 608 l 477 564 l 434 564 l 434 608 m 0 564 l 43 564 l 43 521 l 0 521 l 0 564 m 43 564 l 87 564 l 87 521 l 43 521 l 43 564 m 87 564 l 130 564 l 130 521 l 87 521 l 87 564 m 347 564 l 391 564 l 391 521 l 347 521 l 347 564 m 391 564 l 434 564 l 434 521 l 391 521 l 391 564 m 434 564 l 477 564 l 477 521 l 434 521 l 434 564 m 0 521 l 43 521 l 43 477 l 0 477 l 0 521 m 43 521 l 87 521 l 87 477 l 43 477 l 43 521 m 87 521 l 130 521 l 130 477 l 87 477 l 87 521 m 347 521 l 391 521 l 391 477 l 347 477 l 347 521 m 391 521 l 434 521 l 434 477 l 391 477 l 391 521 m 434 521 l 477 521 l 477 477 l 434 477 l 434 521 m 0 477 l 43 477 l 43 434 l 0 434 l 0 477 m 43 477 l 87 477 l 87 434 l 43 434 l 43 477 m 87 477 l 130 477 l 130 434 l 87 434 l 87 477 m 130 477 l 174 477 l 174 434 l 130 434 l 130 477 m 304 477 l 347 477 l 347 434 l 304 434 l 304 477 m 347 477 l 391 477 l 391 434 l 347 434 l 347 477 m 391 477 l 434 477 l 434 434 l 391 434 l 391 477 m 434 477 l 477 477 l 477 434 l 434 434 l 434 477 m 43 434 l 87 434 l 87 391 l 43 391 l 43 434 m 87 434 l 130 434 l 130 391 l 87 391 l 87 434 m 130 434 l 174 434 l 174 391 l 130 391 l 130 434 m 174 434 l 217 434 l 217 391 l 174 391 l 174 434 m 217 434 l 260 434 l 260 391 l 217 391 l 217 434 m 260 434 l 304 434 l 304 391 l 260 391 l 260 434 m 304 434 l 347 434 l 347 391 l 304 391 l 304 434 m 347 434 l 391 434 l 391 391 l 347 391 l 347 434 m 391 434 l 434 434 l 434 391 l 391 391 l 391 434 m 87 391 l 130 391 l 130 347 l 87 347 l 87 391 m 130 391 l 174 391 l 174 347 l 130 347 l 130 391 m 174 391 l 217 391 l 217 347 l 174 347 l 174 391 m 217 391 l 260 391 l 260 347 l 217 347 l 217 391 m 260 391 l 304 391 l 304 347 l 260 347 l 260 391 m 304 391 l 347 391 l 347 347 l 304 347 l 304 391 m 347 391 l 391 391 l 391 347 l 347 347 l 347 391 m 87 347 l 130 347 l 130 304 l 87 304 l 87 347 m 130 347 l 174 347 l 174 304 l 130 304 l 130 347 m 174 347 l 217 347 l 217 304 l 174 304 l 174 347 m 217 347 l 260 347 l 260 304 l 217 304 l 217 347 m 260 347 l 304 347 l 304 304 l 260 304 l 260 347 m 304 347 l 347 347 l 347 304 l 304 304 l 304 347 m 347 347 l 391 347 l 391 304 l 347 304 l 347 347 m 391 347 l 434 347 l 434 304 l 391 304 l 391 347 m 434 347 l 477 347 l 477 304 l 434 304 l 434 347 m 477 347 l 521 347 l 521 304 l 477 304 l 477 347 m 521 347 l 564 347 l 564 304 l 521 304 l 521 347 m 43 304 l 87 304 l 87 260 l 43 260 l 43 304 m 87 304 l 130 304 l 130 260 l 87 260 l 87 304 m 130 304 l 174 304 l 174 260 l 130 260 l 130 304 m 304 304 l 347 304 l 347 260 l 304 260 l 304 304 m 347 304 l 391 304 l 391 260 l 347 260 l 347 304 m 391 304 l 434 304 l 434 260 l 391 260 l 391 304 m 434 304 l 477 304 l 477 260 l 434 260 l 434 304 m 477 304 l 521 304 l 521 260 l 477 260 l 477 304 m 521 304 l 564 304 l 564 260 l 521 260 l 521 304 m 0 260 l 43 260 l 43 217 l 0 217 l 0 260 m 43 260 l 87 260 l 87 217 l 43 217 l 43 260 m 87 260 l 130 260 l 130 217 l 87 217 l 87 260 m 347 260 l 391 260 l 391 217 l 347 217 l 347 260 m 391 260 l 434 260 l 434 217 l 391 217 l 391 260 m 434 260 l 477 260 l 477 217 l 434 217 l 434 260 m 477 260 l 521 260 l 521 217 l 477 217 l 477 260 m 521 260 l 564 260 l 564 217 l 521 217 l 521 260 m 0 217 l 43 217 l 43 174 l 0 174 l 0 217 m 43 217 l 87 217 l 87 174 l 43 174 l 43 217 m 87 217 l 130 217 l 130 174 l 87 174 l 87 217 m 347 217 l 391 217 l 391 174 l 347 174 l 347 217 m 391 217 l 434 217 l 434 174 l 391 174 l 391 217 m 434 217 l 477 217 l 477 174 l 434 174 l 434 217 m 0 174 l 43 174 l 43 130 l 0 130 l 0 174 m 43 174 l 87 174 l 87 130 l 43 130 l 43 174 m 87 174 l 130 174 l 130 130 l 87 130 l 87 174 m 347 174 l 391 174 l 391 130 l 347 130 l 347 174 m 391 174 l 434 174 l 434 130 l 391 130 l 391 174 m 434 174 l 477 174 l 477 130 l 434 130 l 434 174 m 0 130 l 43 130 l 43 87 l 0 87 l 0 130 m 43 130 l 87 130 l 87 87 l 43 87 l 43 130 m 87 130 l 130 130 l 130 87 l 87 87 l 87 130 m 130 130 l 174 130 l 174 87 l 130 87 l 130 130 m 174 130 l 217 130 l 217 87 l 174 87 l 174 130 m 217 130 l 260 130 l 260 87 l 217 87 l 217 130 m 260 130 l 304 130 l 304 87 l 260 87 l 260 130 m 304 130 l 347 130 l 347 87 l 304 87 l 304 130 m 347 130 l 391 130 l 391 87 l 347 87 l 347 130 m 391 130 l 434 130 l 434 87 l 391 87 l 391 130 m 434 130 l 477 130 l 477 87 l 434 87 l 434 130 m 477 130 l 521 130 l 521 87 l 477 87 l 477 130 m 521 130 l 564 130 l 564 87 l 521 87 l 521 130 m 43 87 l 87 87 l 87 43 l 43 43 l 43 87 m 87 87 l 130 87 l 130 43 l 87 43 l 87 87 m 130 87 l 174 87 l 174 43 l 130 43 l 130 87 m 174 87 l 217 87 l 217 43 l 174 43 l 174 87 m 217 87 l 260 87 l 260 43 l 217 43 l 217 87 m 260 87 l 304 87 l 304 43 l 260 43 l 260 87 m 304 87 l 347 87 l 347 43 l 304 43 l 304 87 m 347 87 l 391 87 l 391 43 l 347 43 l 347 87 m 391 87 l 434 87 l 434 43 l 391 43 l 391 87 m 434 87 l 477 87 l 477 43 l 434 43 l 434 87 m 477 87 l 521 87 l 521 43 l 477 43 l 477 87 m 521 87 l 564 87 l 564 43 l 521 43 l 521 87 m 87 43 l 130 43 l 130 0 l 87 0 l 87 43 m 130 43 l 174 43 l 174 0 l 130 0 l 130 43 m 174 43 l 217 43 l 217 0 l 174 0 l 174 43 m 217 43 l 260 43 l 260 0 l 217 0 l 217 43 m 260 43 l 304 43 l 304 0 l 260 0 l 260 43 m 304 43 l 347 43 l 347 0 l 304 0 l 304 43 m 434 43 l 477 43 l 477 0 l 434 0 l 434 43 m 477 43 l 521 43 l 521 0 l 477 0 l 477 43 m 521 43 l 564 43 l 564 0 l 521 0 l 521 43 z "},"'":{"ha":260,"x_min":43,"x_max":174,"o":"m 43 738 l 87 738 l 87 694 l 43 694 l 43 738 m 87 738 l 130 738 l 130 694 l 87 694 l 87 738 m 130 738 l 174 738 l 174 694 l 130 694 l 130 738 m 43 694 l 87 694 l 87 651 l 43 651 l 43 694 m 87 694 l 130 694 l 130 651 l 87 651 l 87 694 m 130 694 l 174 694 l 174 651 l 130 651 l 130 694 m 43 651 l 87 651 l 87 608 l 43 608 l 43 651 m 87 651 l 130 651 l 130 608 l 87 608 l 87 651 m 130 651 l 174 651 l 174 608 l 130 608 l 130 651 m 43 608 l 87 608 l 87 564 l 43 564 l 43 608 m 87 608 l 130 608 l 130 564 l 87 564 l 87 608 m 130 608 l 174 608 l 174 564 l 130 564 l 130 608 m 43 564 l 87 564 l 87 521 l 43 521 l 43 564 m 87 564 l 130 564 l 130 521 l 87 521 l 87 564 m 130 564 l 174 564 l 174 521 l 130 521 l 130 564 m 43 521 l 87 521 l 87 477 l 43 477 l 43 521 m 87 521 l 130 521 l 130 477 l 87 477 l 87 521 m 130 521 l 174 521 l 174 477 l 130 477 l 130 521 z "},"(":{"ha":347,"x_min":0,"x_max":260,"o":"m 130 781 l 174 781 l 174 738 l 130 738 l 130 781 m 174 781 l 217 781 l 217 738 l 174 738 l 174 781 m 217 781 l 260 781 l 260 738 l 217 738 l 217 781 m 87 738 l 130 738 l 130 694 l 87 694 l 87 738 m 130 738 l 174 738 l 174 694 l 130 694 l 130 738 m 174 738 l 217 738 l 217 694 l 174 694 l 174 738 m 217 738 l 260 738 l 260 694 l 217 694 l 217 738 m 43 694 l 87 694 l 87 651 l 43 651 l 43 694 m 87 694 l 130 694 l 130 651 l 87 651 l 87 694 m 130 694 l 174 694 l 174 651 l 130 651 l 130 694 m 174 694 l 217 694 l 217 651 l 174 651 l 174 694 m 217 694 l 260 694 l 260 651 l 217 651 l 217 694 m 0 651 l 43 651 l 43 608 l 0 608 l 0 651 m 43 651 l 87 651 l 87 608 l 43 608 l 43 651 m 87 651 l 130 651 l 130 608 l 87 608 l 87 651 m 130 651 l 174 651 l 174 608 l 130 608 l 130 651 m 0 608 l 43 608 l 43 564 l 0 564 l 0 608 m 43 608 l 87 608 l 87 564 l 43 564 l 43 608 m 87 608 l 130 608 l 130 564 l 87 564 l 87 608 m 0 564 l 43 564 l 43 521 l 0 521 l 0 564 m 43 564 l 87 564 l 87 521 l 43 521 l 43 564 m 87 564 l 130 564 l 130 521 l 87 521 l 87 564 m 0 521 l 43 521 l 43 477 l 0 477 l 0 521 m 43 521 l 87 521 l 87 477 l 43 477 l 43 521 m 87 521 l 130 521 l 130 477 l 87 477 l 87 521 m 0 477 l 43 477 l 43 434 l 0 434 l 0 477 m 43 477 l 87 477 l 87 434 l 43 434 l 43 477 m 87 477 l 130 477 l 130 434 l 87 434 l 87 477 m 0 434 l 43 434 l 43 391 l 0 391 l 0 434 m 43 434 l 87 434 l 87 391 l 43 391 l 43 434 m 87 434 l 130 434 l 130 391 l 87 391 l 87 434 m 0 391 l 43 391 l 43 347 l 0 347 l 0 391 m 43 391 l 87 391 l 87 347 l 43 347 l 43 391 m 87 391 l 130 391 l 130 347 l 87 347 l 87 391 m 0 347 l 43 347 l 43 304 l 0 304 l 0 347 m 43 347 l 87 347 l 87 304 l 43 304 l 43 347 m 87 347 l 130 347 l 130 304 l 87 304 l 87 347 m 0 304 l 43 304 l 43 260 l 0 260 l 0 304 m 43 304 l 87 304 l 87 260 l 43 260 l 43 304 m 87 304 l 130 304 l 130 260 l 87 260 l 87 304 m 0 260 l 43 260 l 43 217 l 0 217 l 0 260 m 43 260 l 87 260 l 87 217 l 43 217 l 43 260 m 87 260 l 130 260 l 130 217 l 87 217 l 87 260 m 0 217 l 43 217 l 43 174 l 0 174 l 0 217 m 43 217 l 87 217 l 87 174 l 43 174 l 43 217 m 87 217 l 130 217 l 130 174 l 87 174 l 87 217 m 0 174 l 43 174 l 43 130 l 0 130 l 0 174 m 43 174 l 87 174 l 87 130 l 43 130 l 43 174 m 87 174 l 130 174 l 130 130 l 87 130 l 87 174 m 0 130 l 43 130 l 43 87 l 0 87 l 0 130 m 43 130 l 87 130 l 87 87 l 43 87 l 43 130 m 87 130 l 130 130 l 130 87 l 87 87 l 87 130 m 130 130 l 174 130 l 174 87 l 130 87 l 130 130 m 43 87 l 87 87 l 87 43 l 43 43 l 43 87 m 87 87 l 130 87 l 130 43 l 87 43 l 87 87 m 130 87 l 174 87 l 174 43 l 130 43 l 130 87 m 174 87 l 217 87 l 217 43 l 174 43 l 174 87 m 217 87 l 260 87 l 260 43 l 217 43 l 217 87 m 87 43 l 130 43 l 130 0 l 87 0 l 87 43 m 130 43 l 174 43 l 174 0 l 130 0 l 130 43 m 174 43 l 217 43 l 217 0 l 174 0 l 174 43 m 217 43 l 260 43 l 260 0 l 217 0 l 217 43 m 130 0 l 174 0 l 174 -43 l 130 -43 l 130 0 m 174 0 l 217 0 l 217 -43 l 174 -43 l 174 0 m 217 0 l 260 0 l 260 -43 l 217 -43 l 217 0 z "},")":{"ha":347,"x_min":0,"x_max":260,"o":"m 0 781 l 43 781 l 43 738 l 0 738 l 0 781 m 43 781 l 87 781 l 87 738 l 43 738 l 43 781 m 87 781 l 130 781 l 130 738 l 87 738 l 87 781 m 0 738 l 43 738 l 43 694 l 0 694 l 0 738 m 43 738 l 87 738 l 87 694 l 43 694 l 43 738 m 87 738 l 130 738 l 130 694 l 87 694 l 87 738 m 130 738 l 174 738 l 174 694 l 130 694 l 130 738 m 0 694 l 43 694 l 43 651 l 0 651 l 0 694 m 43 694 l 87 694 l 87 651 l 43 651 l 43 694 m 87 694 l 130 694 l 130 651 l 87 651 l 87 694 m 130 694 l 174 694 l 174 651 l 130 651 l 130 694 m 174 694 l 217 694 l 217 651 l 174 651 l 174 694 m 87 651 l 130 651 l 130 608 l 87 608 l 87 651 m 130 651 l 174 651 l 174 608 l 130 608 l 130 651 m 174 651 l 217 651 l 217 608 l 174 608 l 174 651 m 217 651 l 260 651 l 260 608 l 217 608 l 217 651 m 130 608 l 174 608 l 174 564 l 130 564 l 130 608 m 174 608 l 217 608 l 217 564 l 174 564 l 174 608 m 217 608 l 260 608 l 260 564 l 217 564 l 217 608 m 130 564 l 174 564 l 174 521 l 130 521 l 130 564 m 174 564 l 217 564 l 217 521 l 174 521 l 174 564 m 217 564 l 260 564 l 260 521 l 217 521 l 217 564 m 130 521 l 174 521 l 174 477 l 130 477 l 130 521 m 174 521 l 217 521 l 217 477 l 174 477 l 174 521 m 217 521 l 260 521 l 260 477 l 217 477 l 217 521 m 130 477 l 174 477 l 174 434 l 130 434 l 130 477 m 174 477 l 217 477 l 217 434 l 174 434 l 174 477 m 217 477 l 260 477 l 260 434 l 217 434 l 217 477 m 130 434 l 174 434 l 174 391 l 130 391 l 130 434 m 174 434 l 217 434 l 217 391 l 174 391 l 174 434 m 217 434 l 260 434 l 260 391 l 217 391 l 217 434 m 130 391 l 174 391 l 174 347 l 130 347 l 130 391 m 174 391 l 217 391 l 217 347 l 174 347 l 174 391 m 217 391 l 260 391 l 260 347 l 217 347 l 217 391 m 130 347 l 174 347 l 174 304 l 130 304 l 130 347 m 174 347 l 217 347 l 217 304 l 174 304 l 174 347 m 217 347 l 260 347 l 260 304 l 217 304 l 217 347 m 130 304 l 174 304 l 174 260 l 130 260 l 130 304 m 174 304 l 217 304 l 217 260 l 174 260 l 174 304 m 217 304 l 260 304 l 260 260 l 217 260 l 217 304 m 130 260 l 174 260 l 174 217 l 130 217 l 130 260 m 174 260 l 217 260 l 217 217 l 174 217 l 174 260 m 217 260 l 260 260 l 260 217 l 217 217 l 217 260 m 130 217 l 174 217 l 174 174 l 130 174 l 130 217 m 174 217 l 217 217 l 217 174 l 174 174 l 174 217 m 217 217 l 260 217 l 260 174 l 217 174 l 217 217 m 130 174 l 174 174 l 174 130 l 130 130 l 130 174 m 174 174 l 217 174 l 217 130 l 174 130 l 174 174 m 217 174 l 260 174 l 260 130 l 217 130 l 217 174 m 87 130 l 130 130 l 130 87 l 87 87 l 87 130 m 130 130 l 174 130 l 174 87 l 130 87 l 130 130 m 174 130 l 217 130 l 217 87 l 174 87 l 174 130 m 217 130 l 260 130 l 260 87 l 217 87 l 217 130 m 0 87 l 43 87 l 43 43 l 0 43 l 0 87 m 43 87 l 87 87 l 87 43 l 43 43 l 43 87 m 87 87 l 130 87 l 130 43 l 87 43 l 87 87 m 130 87 l 174 87 l 174 43 l 130 43 l 130 87 m 174 87 l 217 87 l 217 43 l 174 43 l 174 87 m 0 43 l 43 43 l 43 0 l 0 0 l 0 43 m 43 43 l 87 43 l 87 0 l 43 0 l 43 43 m 87 43 l 130 43 l 130 0 l 87 0 l 87 43 m 130 43 l 174 43 l 174 0 l 130 0 l 130 43 m 0 0 l 43 0 l 43 -43 l 0 -43 l 0 0 m 43 0 l 87 0 l 87 -43 l 43 -43 l 43 0 m 87 0 l 130 0 l 130 -43 l 87 -43 l 87 0 z "},"*":{"ha":477,"x_min":0,"x_max":391,"o":"m 130 738 l 174 738 l 174 694 l 130 694 l 130 738 m 174 738 l 217 738 l 217 694 l 174 694 l 174 738 m 217 738 l 260 738 l 260 694 l 217 694 l 217 738 m 130 694 l 174 694 l 174 651 l 130 651 l 130 694 m 174 694 l 217 694 l 217 651 l 174 651 l 174 694 m 217 694 l 260 694 l 260 651 l 217 651 l 217 694 m 0 651 l 43 651 l 43 608 l 0 608 l 0 651 m 43 651 l 87 651 l 87 608 l 43 608 l 43 651 m 87 651 l 130 651 l 130 608 l 87 608 l 87 651 m 130 651 l 174 651 l 174 608 l 130 608 l 130 651 m 174 651 l 217 651 l 217 608 l 174 608 l 174 651 m 217 651 l 260 651 l 260 608 l 217 608 l 217 651 m 260 651 l 304 651 l 304 608 l 260 608 l 260 651 m 304 651 l 347 651 l 347 608 l 304 608 l 304 651 m 347 651 l 391 651 l 391 608 l 347 608 l 347 651 m 0 608 l 43 608 l 43 564 l 0 564 l 0 608 m 43 608 l 87 608 l 87 564 l 43 564 l 43 608 m 87 608 l 130 608 l 130 564 l 87 564 l 87 608 m 130 608 l 174 608 l 174 564 l 130 564 l 130 608 m 174 608 l 217 608 l 217 564 l 174 564 l 174 608 m 217 608 l 260 608 l 260 564 l 217 564 l 217 608 m 260 608 l 304 608 l 304 564 l 260 564 l 260 608 m 304 608 l 347 608 l 347 564 l 304 564 l 304 608 m 347 608 l 391 608 l 391 564 l 347 564 l 347 608 m 0 564 l 43 564 l 43 521 l 0 521 l 0 564 m 43 564 l 87 564 l 87 521 l 43 521 l 43 564 m 87 564 l 130 564 l 130 521 l 87 521 l 87 564 m 130 564 l 174 564 l 174 521 l 130 521 l 130 564 m 174 564 l 217 564 l 217 521 l 174 521 l 174 564 m 217 564 l 260 564 l 260 521 l 217 521 l 217 564 m 260 564 l 304 564 l 304 521 l 260 521 l 260 564 m 304 564 l 347 564 l 347 521 l 304 521 l 304 564 m 347 564 l 391 564 l 391 521 l 347 521 l 347 564 m 87 521 l 130 521 l 130 477 l 87 477 l 87 521 m 130 521 l 174 521 l 174 477 l 130 477 l 130 521 m 174 521 l 217 521 l 217 477 l 174 477 l 174 521 m 217 521 l 260 521 l 260 477 l 217 477 l 217 521 m 260 521 l 304 521 l 304 477 l 260 477 l 260 521 m 43 477 l 87 477 l 87 434 l 43 434 l 43 477 m 87 477 l 130 477 l 130 434 l 87 434 l 87 477 m 130 477 l 174 477 l 174 434 l 130 434 l 130 477 m 174 477 l 217 477 l 217 434 l 174 434 l 174 477 m 217 477 l 260 477 l 260 434 l 217 434 l 217 477 m 260 477 l 304 477 l 304 434 l 260 434 l 260 477 m 304 477 l 347 477 l 347 434 l 304 434 l 304 477 m 0 434 l 43 434 l 43 391 l 0 391 l 0 434 m 43 434 l 87 434 l 87 391 l 43 391 l 43 434 m 87 434 l 130 434 l 130 391 l 87 391 l 87 434 m 130 434 l 174 434 l 174 391 l 130 391 l 130 434 m 217 434 l 260 434 l 260 391 l 217 391 l 217 434 m 260 434 l 304 434 l 304 391 l 260 391 l 260 434 m 304 434 l 347 434 l 347 391 l 304 391 l 304 434 m 347 434 l 391 434 l 391 391 l 347 391 l 347 434 m 0 391 l 43 391 l 43 347 l 0 347 l 0 391 m 43 391 l 87 391 l 87 347 l 43 347 l 43 391 m 87 391 l 130 391 l 130 347 l 87 347 l 87 391 m 260 391 l 304 391 l 304 347 l 260 347 l 260 391 m 304 391 l 347 391 l 347 347 l 304 347 l 304 391 m 347 391 l 391 391 l 391 347 l 347 347 l 347 391 z "},"+":{"ha":477,"x_min":0,"x_max":391,"o":"m 130 477 l 174 477 l 174 434 l 130 434 l 130 477 m 174 477 l 217 477 l 217 434 l 174 434 l 174 477 m 217 477 l 260 477 l 260 434 l 217 434 l 217 477 m 130 434 l 174 434 l 174 391 l 130 391 l 130 434 m 174 434 l 217 434 l 217 391 l 174 391 l 174 434 m 217 434 l 260 434 l 260 391 l 217 391 l 217 434 m 130 391 l 174 391 l 174 347 l 130 347 l 130 391 m 174 391 l 217 391 l 217 347 l 174 347 l 174 391 m 217 391 l 260 391 l 260 347 l 217 347 l 217 391 m 0 347 l 43 347 l 43 304 l 0 304 l 0 347 m 43 347 l 87 347 l 87 304 l 43 304 l 43 347 m 87 347 l 130 347 l 130 304 l 87 304 l 87 347 m 130 347 l 174 347 l 174 304 l 130 304 l 130 347 m 174 347 l 217 347 l 217 304 l 174 304 l 174 347 m 217 347 l 260 347 l 260 304 l 217 304 l 217 347 m 260 347 l 304 347 l 304 304 l 260 304 l 260 347 m 304 347 l 347 347 l 347 304 l 304 304 l 304 347 m 347 347 l 391 347 l 391 304 l 347 304 l 347 347 m 0 304 l 43 304 l 43 260 l 0 260 l 0 304 m 43 304 l 87 304 l 87 260 l 43 260 l 43 304 m 87 304 l 130 304 l 130 260 l 87 260 l 87 304 m 130 304 l 174 304 l 174 260 l 130 260 l 130 304 m 174 304 l 217 304 l 217 260 l 174 260 l 174 304 m 217 304 l 260 304 l 260 260 l 217 260 l 217 304 m 260 304 l 304 304 l 304 260 l 260 260 l 260 304 m 304 304 l 347 304 l 347 260 l 304 260 l 304 304 m 347 304 l 391 304 l 391 260 l 347 260 l 347 304 m 0 260 l 43 260 l 43 217 l 0 217 l 0 260 m 43 260 l 87 260 l 87 217 l 43 217 l 43 260 m 87 260 l 130 260 l 130 217 l 87 217 l 87 260 m 130 260 l 174 260 l 174 217 l 130 217 l 130 260 m 174 260 l 217 260 l 217 217 l 174 217 l 174 260 m 217 260 l 260 260 l 260 217 l 217 217 l 217 260 m 260 260 l 304 260 l 304 217 l 260 217 l 260 260 m 304 260 l 347 260 l 347 217 l 304 217 l 304 260 m 347 260 l 391 260 l 391 217 l 347 217 l 347 260 m 130 217 l 174 217 l 174 174 l 130 174 l 130 217 m 174 217 l 217 217 l 217 174 l 174 174 l 174 217 m 217 217 l 260 217 l 260 174 l 217 174 l 217 217 m 130 174 l 174 174 l 174 130 l 130 130 l 130 174 m 174 174 l 217 174 l 217 130 l 174 130 l 174 174 m 217 174 l 260 174 l 260 130 l 217 130 l 217 174 m 130 130 l 174 130 l 174 87 l 130 87 l 130 130 m 174 130 l 217 130 l 217 87 l 174 87 l 174 130 m 217 130 l 260 130 l 260 87 l 217 87 l 217 130 z "},",":{"ha":260,"x_min":0,"x_max":174,"o":"m 0 130 l 43 130 l 43 87 l 0 87 l 0 130 m 43 130 l 87 130 l 87 87 l 43 87 l 43 130 m 87 130 l 130 130 l 130 87 l 87 87 l 87 130 m 130 130 l 174 130 l 174 87 l 130 87 l 130 130 m 0 87 l 43 87 l 43 43 l 0 43 l 0 87 m 43 87 l 87 87 l 87 43 l 43 43 l 43 87 m 87 87 l 130 87 l 130 43 l 87 43 l 87 87 m 130 87 l 174 87 l 174 43 l 130 43 l 130 87 m 43 43 l 87 43 l 87 0 l 43 0 l 43 43 m 87 43 l 130 43 l 130 0 l 87 0 l 87 43 m 130 43 l 174 43 l 174 0 l 130 0 l 130 43 m 43 0 l 87 0 l 87 -43 l 43 -43 l 43 0 m 87 0 l 130 0 l 130 -43 l 87 -43 l 87 0 m 130 0 l 174 0 l 174 -43 l 130 -43 l 130 0 m 0 -43 l 43 -43 l 43 -87 l 0 -87 l 0 -43 m 43 -43 l 87 -43 l 87 -87 l 43 -87 l 43 -43 m 87 -43 l 130 -43 l 130 -87 l 87 -87 l 87 -43 m 0 -87 l 43 -87 l 43 -130 l 0 -130 l 0 -87 m 43 -87 l 87 -87 l 87 -130 l 43 -130 l 43 -87 z "},"-":{"ha":477,"x_min":0,"x_max":391,"o":"m 0 347 l 43 347 l 43 304 l 0 304 l 0 347 m 43 347 l 87 347 l 87 304 l 43 304 l 43 347 m 87 347 l 130 347 l 130 304 l 87 304 l 87 347 m 130 347 l 174 347 l 174 304 l 130 304 l 130 347 m 174 347 l 217 347 l 217 304 l 174 304 l 174 347 m 217 347 l 260 347 l 260 304 l 217 304 l 217 347 m 260 347 l 304 347 l 304 304 l 260 304 l 260 347 m 304 347 l 347 347 l 347 304 l 304 304 l 304 347 m 347 347 l 391 347 l 391 304 l 347 304 l 347 347 m 0 304 l 43 304 l 43 260 l 0 260 l 0 304 m 43 304 l 87 304 l 87 260 l 43 260 l 43 304 m 87 304 l 130 304 l 130 260 l 87 260 l 87 304 m 130 304 l 174 304 l 174 260 l 130 260 l 130 304 m 174 304 l 217 304 l 217 260 l 174 260 l 174 304 m 217 304 l 260 304 l 260 260 l 217 260 l 217 304 m 260 304 l 304 304 l 304 260 l 260 260 l 260 304 m 304 304 l 347 304 l 347 260 l 304 260 l 304 304 m 347 304 l 391 304 l 391 260 l 347 260 l 347 304 m 0 260 l 43 260 l 43 217 l 0 217 l 0 260 m 43 260 l 87 260 l 87 217 l 43 217 l 43 260 m 87 260 l 130 260 l 130 217 l 87 217 l 87 260 m 130 260 l 174 260 l 174 217 l 130 217 l 130 260 m 174 260 l 217 260 l 217 217 l 174 217 l 174 260 m 217 260 l 260 260 l 260 217 l 217 217 l 217 260 m 260 260 l 304 260 l 304 217 l 260 217 l 260 260 m 304 260 l 347 260 l 347 217 l 304 217 l 304 260 m 347 260 l 391 260 l 391 217 l 347 217 l 347 260 z "},".":{"ha":260,"x_min":43,"x_max":174,"o":"m 43 130 l 87 130 l 87 87 l 43 87 l 43 130 m 87 130 l 130 130 l 130 87 l 87 87 l 87 130 m 130 130 l 174 130 l 174 87 l 130 87 l 130 130 m 43 87 l 87 87 l 87 43 l 43 43 l 43 87 m 87 87 l 130 87 l 130 43 l 87 43 l 87 87 m 130 87 l 174 87 l 174 43 l 130 43 l 130 87 m 43 43 l 87 43 l 87 0 l 43 0 l 43 43 m 87 43 l 130 43 l 130 0 l 87 0 l 87 43 m 130 43 l 174 43 l 174 0 l 130 0 l 130 43 z "},"/":{"ha":521,"x_min":0,"x_max":434,"o":"m 304 694 l 347 694 l 347 651 l 304 651 l 304 694 m 347 694 l 391 694 l 391 651 l 347 651 l 347 694 m 391 694 l 434 694 l 434 651 l 391 651 l 391 694 m 304 651 l 347 651 l 347 608 l 304 608 l 304 651 m 347 651 l 391 651 l 391 608 l 347 608 l 347 651 m 391 651 l 434 651 l 434 608 l 391 608 l 391 651 m 260 608 l 304 608 l 304 564 l 260 564 l 260 608 m 304 608 l 347 608 l 347 564 l 304 564 l 304 608 m 347 608 l 391 608 l 391 564 l 347 564 l 347 608 m 260 564 l 304 564 l 304 521 l 260 521 l 260 564 m 304 564 l 347 564 l 347 521 l 304 521 l 304 564 m 347 564 l 391 564 l 391 521 l 347 521 l 347 564 m 217 521 l 260 521 l 260 477 l 217 477 l 217 521 m 260 521 l 304 521 l 304 477 l 260 477 l 260 521 m 304 521 l 347 521 l 347 477 l 304 477 l 304 521 m 217 477 l 260 477 l 260 434 l 217 434 l 217 477 m 260 477 l 304 477 l 304 434 l 260 434 l 260 477 m 304 477 l 347 477 l 347 434 l 304 434 l 304 477 m 174 434 l 217 434 l 217 391 l 174 391 l 174 434 m 217 434 l 260 434 l 260 391 l 217 391 l 217 434 m 260 434 l 304 434 l 304 391 l 260 391 l 260 434 m 174 391 l 217 391 l 217 347 l 174 347 l 174 391 m 217 391 l 260 391 l 260 347 l 217 347 l 217 391 m 260 391 l 304 391 l 304 347 l 260 347 l 260 391 m 130 347 l 174 347 l 174 304 l 130 304 l 130 347 m 174 347 l 217 347 l 217 304 l 174 304 l 174 347 m 217 347 l 260 347 l 260 304 l 217 304 l 217 347 m 130 304 l 174 304 l 174 260 l 130 260 l 130 304 m 174 304 l 217 304 l 217 260 l 174 260 l 174 304 m 217 304 l 260 304 l 260 260 l 217 260 l 217 304 m 87 260 l 130 260 l 130 217 l 87 217 l 87 260 m 130 260 l 174 260 l 174 217 l 130 217 l 130 260 m 174 260 l 217 260 l 217 217 l 174 217 l 174 260 m 87 217 l 130 217 l 130 174 l 87 174 l 87 217 m 130 217 l 174 217 l 174 174 l 130 174 l 130 217 m 174 217 l 217 217 l 217 174 l 174 174 l 174 217 m 43 174 l 87 174 l 87 130 l 43 130 l 43 174 m 87 174 l 130 174 l 130 130 l 87 130 l 87 174 m 130 174 l 174 174 l 174 130 l 130 130 l 130 174 m 43 130 l 87 130 l 87 87 l 43 87 l 43 130 m 87 130 l 130 130 l 130 87 l 87 87 l 87 130 m 130 130 l 174 130 l 174 87 l 130 87 l 130 130 m 0 87 l 43 87 l 43 43 l 0 43 l 0 87 m 43 87 l 87 87 l 87 43 l 43 43 l 43 87 m 87 87 l 130 87 l 130 43 l 87 43 l 87 87 m 0 43 l 43 43 l 43 0 l 0 0 l 0 43 m 43 43 l 87 43 l 87 0 l 43 0 l 43 43 m 87 43 l 130 43 l 130 0 l 87 0 l 87 43 z "},":":{"ha":260,"x_min":43,"x_max":174,"o":"m 43 521 l 87 521 l 87 477 l 43 477 l 43 521 m 87 521 l 130 521 l 130 477 l 87 477 l 87 521 m 130 521 l 174 521 l 174 477 l 130 477 l 130 521 m 43 477 l 87 477 l 87 434 l 43 434 l 43 477 m 87 477 l 130 477 l 130 434 l 87 434 l 87 477 m 130 477 l 174 477 l 174 434 l 130 434 l 130 477 m 43 434 l 87 434 l 87 391 l 43 391 l 43 434 m 87 434 l 130 434 l 130 391 l 87 391 l 87 434 m 130 434 l 174 434 l 174 391 l 130 391 l 130 434 m 43 130 l 87 130 l 87 87 l 43 87 l 43 130 m 87 130 l 130 130 l 130 87 l 87 87 l 87 130 m 130 130 l 174 130 l 174 87 l 130 87 l 130 130 m 43 87 l 87 87 l 87 43 l 43 43 l 43 87 m 87 87 l 130 87 l 130 43 l 87 43 l 87 87 m 130 87 l 174 87 l 174 43 l 130 43 l 130 87 m 43 43 l 87 43 l 87 0 l 43 0 l 43 43 m 87 43 l 130 43 l 130 0 l 87 0 l 87 43 m 130 43 l 174 43 l 174 0 l 130 0 l 130 43 z "},";":{"ha":260,"x_min":0,"x_max":174,"o":"m 43 521 l 87 521 l 87 477 l 43 477 l 43 521 m 87 521 l 130 521 l 130 477 l 87 477 l 87 521 m 130 521 l 174 521 l 174 477 l 130 477 l 130 521 m 43 477 l 87 477 l 87 434 l 43 434 l 43 477 m 87 477 l 130 477 l 130 434 l 87 434 l 87 477 m 130 477 l 174 477 l 174 434 l 130 434 l 130 477 m 43 434 l 87 434 l 87 391 l 43 391 l 43 434 m 87 434 l 130 434 l 130 391 l 87 391 l 87 434 m 130 434 l 174 434 l 174 391 l 130 391 l 130 434 m 0 130 l 43 130 l 43 87 l 0 87 l 0 130 m 43 130 l 87 130 l 87 87 l 43 87 l 43 130 m 87 130 l 130 130 l 130 87 l 87 87 l 87 130 m 130 130 l 174 130 l 174 87 l 130 87 l 130 130 m 0 87 l 43 87 l 43 43 l 0 43 l 0 87 m 43 87 l 87 87 l 87 43 l 43 43 l 43 87 m 87 87 l 130 87 l 130 43 l 87 43 l 87 87 m 130 87 l 174 87 l 174 43 l 130 43 l 130 87 m 43 43 l 87 43 l 87 0 l 43 0 l 43 43 m 87 43 l 130 43 l 130 0 l 87 0 l 87 43 m 130 43 l 174 43 l 174 0 l 130 0 l 130 43 m 43 0 l 87 0 l 87 -43 l 43 -43 l 43 0 m 87 0 l 130 0 l 130 -43 l 87 -43 l 87 0 m 130 0 l 174 0 l 174 -43 l 130 -43 l 130 0 m 0 -43 l 43 -43 l 43 -87 l 0 -87 l 0 -43 m 43 -43 l 87 -43 l 87 -87 l 43 -87 l 43 -43 m 87 -43 l 130 -43 l 130 -87 l 87 -87 l 87 -43 m 0 -87 l 43 -87 l 43 -130 l 0 -130 l 0 -87 m 43 -87 l 87 -87 l 87 -130 l 43 -130 l 43 -87 z "},"<":{"ha":347,"x_min":0,"x_max":260,"o":"m 174 564 l 217 564 l 217 521 l 174 521 l 174 564 m 217 564 l 260 564 l 260 521 l 217 521 l 217 564 m 130 521 l 174 521 l 174 477 l 130 477 l 130 521 m 174 521 l 217 521 l 217 477 l 174 477 l 174 521 m 217 521 l 260 521 l 260 477 l 217 477 l 217 521 m 87 477 l 130 477 l 130 434 l 87 434 l 87 477 m 130 477 l 174 477 l 174 434 l 130 434 l 130 477 m 174 477 l 217 477 l 217 434 l 174 434 l 174 477 m 217 477 l 260 477 l 260 434 l 217 434 l 217 477 m 43 434 l 87 434 l 87 391 l 43 391 l 43 434 m 87 434 l 130 434 l 130 391 l 87 391 l 87 434 m 130 434 l 174 434 l 174 391 l 130 391 l 130 434 m 174 434 l 217 434 l 217 391 l 174 391 l 174 434 m 0 391 l 43 391 l 43 347 l 0 347 l 0 391 m 43 391 l 87 391 l 87 347 l 43 347 l 43 391 m 87 391 l 130 391 l 130 347 l 87 347 l 87 391 m 130 391 l 174 391 l 174 347 l 130 347 l 130 391 m 0 347 l 43 347 l 43 304 l 0 304 l 0 347 m 43 347 l 87 347 l 87 304 l 43 304 l 43 347 m 87 347 l 130 347 l 130 304 l 87 304 l 87 347 m 130 347 l 174 347 l 174 304 l 130 304 l 130 347 m 43 304 l 87 304 l 87 260 l 43 260 l 43 304 m 87 304 l 130 304 l 130 260 l 87 260 l 87 304 m 130 304 l 174 304 l 174 260 l 130 260 l 130 304 m 174 304 l 217 304 l 217 260 l 174 260 l 174 304 m 87 260 l 130 260 l 130 217 l 87 217 l 87 260 m 130 260 l 174 260 l 174 217 l 130 217 l 130 260 m 174 260 l 217 260 l 217 217 l 174 217 l 174 260 m 217 260 l 260 260 l 260 217 l 217 217 l 217 260 m 130 217 l 174 217 l 174 174 l 130 174 l 130 217 m 174 217 l 217 217 l 217 174 l 174 174 l 174 217 m 217 217 l 260 217 l 260 174 l 217 174 l 217 217 m 174 174 l 217 174 l 217 130 l 174 130 l 174 174 m 217 174 l 260 174 l 260 130 l 217 130 l 217 174 z "},"=":{"ha":477,"x_min":0,"x_max":391,"o":"m 0 434 l 43 434 l 43 391 l 0 391 l 0 434 m 43 434 l 87 434 l 87 391 l 43 391 l 43 434 m 87 434 l 130 434 l 130 391 l 87 391 l 87 434 m 130 434 l 174 434 l 174 391 l 130 391 l 130 434 m 174 434 l 217 434 l 217 391 l 174 391 l 174 434 m 217 434 l 260 434 l 260 391 l 217 391 l 217 434 m 260 434 l 304 434 l 304 391 l 260 391 l 260 434 m 304 434 l 347 434 l 347 391 l 304 391 l 304 434 m 347 434 l 391 434 l 391 391 l 347 391 l 347 434 m 0 391 l 43 391 l 43 347 l 0 347 l 0 391 m 43 391 l 87 391 l 87 347 l 43 347 l 43 391 m 87 391 l 130 391 l 130 347 l 87 347 l 87 391 m 130 391 l 174 391 l 174 347 l 130 347 l 130 391 m 174 391 l 217 391 l 217 347 l 174 347 l 174 391 m 217 391 l 260 391 l 260 347 l 217 347 l 217 391 m 260 391 l 304 391 l 304 347 l 260 347 l 260 391 m 304 391 l 347 391 l 347 347 l 304 347 l 304 391 m 347 391 l 391 391 l 391 347 l 347 347 l 347 391 m 0 347 l 43 347 l 43 304 l 0 304 l 0 347 m 43 347 l 87 347 l 87 304 l 43 304 l 43 347 m 87 347 l 130 347 l 130 304 l 87 304 l 87 347 m 130 347 l 174 347 l 174 304 l 130 304 l 130 347 m 174 347 l 217 347 l 217 304 l 174 304 l 174 347 m 217 347 l 260 347 l 260 304 l 217 304 l 217 347 m 260 347 l 304 347 l 304 304 l 260 304 l 260 347 m 304 347 l 347 347 l 347 304 l 304 304 l 304 347 m 347 347 l 391 347 l 391 304 l 347 304 l 347 347 m 0 217 l 43 217 l 43 174 l 0 174 l 0 217 m 43 217 l 87 217 l 87 174 l 43 174 l 43 217 m 87 217 l 130 217 l 130 174 l 87 174 l 87 217 m 130 217 l 174 217 l 174 174 l 130 174 l 130 217 m 174 217 l 217 217 l 217 174 l 174 174 l 174 217 m 217 217 l 260 217 l 260 174 l 217 174 l 217 217 m 260 217 l 304 217 l 304 174 l 260 174 l 260 217 m 304 217 l 347 217 l 347 174 l 304 174 l 304 217 m 347 217 l 391 217 l 391 174 l 347 174 l 347 217 m 0 174 l 43 174 l 43 130 l 0 130 l 0 174 m 43 174 l 87 174 l 87 130 l 43 130 l 43 174 m 87 174 l 130 174 l 130 130 l 87 130 l 87 174 m 130 174 l 174 174 l 174 130 l 130 130 l 130 174 m 174 174 l 217 174 l 217 130 l 174 130 l 174 174 m 217 174 l 260 174 l 260 130 l 217 130 l 217 174 m 260 174 l 304 174 l 304 130 l 260 130 l 260 174 m 304 174 l 347 174 l 347 130 l 304 130 l 304 174 m 347 174 l 391 174 l 391 130 l 347 130 l 347 174 m 0 130 l 43 130 l 43 87 l 0 87 l 0 130 m 43 130 l 87 130 l 87 87 l 43 87 l 43 130 m 87 130 l 130 130 l 130 87 l 87 87 l 87 130 m 130 130 l 174 130 l 174 87 l 130 87 l 130 130 m 174 130 l 217 130 l 217 87 l 174 87 l 174 130 m 217 130 l 260 130 l 260 87 l 217 87 l 217 130 m 260 130 l 304 130 l 304 87 l 260 87 l 260 130 m 304 130 l 347 130 l 347 87 l 304 87 l 304 130 m 347 130 l 391 130 l 391 87 l 347 87 l 347 130 z "},">":{"ha":347,"x_min":0,"x_max":260,"o":"m 0 564 l 43 564 l 43 521 l 0 521 l 0 564 m 43 564 l 87 564 l 87 521 l 43 521 l 43 564 m 0 521 l 43 521 l 43 477 l 0 477 l 0 521 m 43 521 l 87 521 l 87 477 l 43 477 l 43 521 m 87 521 l 130 521 l 130 477 l 87 477 l 87 521 m 0 477 l 43 477 l 43 434 l 0 434 l 0 477 m 43 477 l 87 477 l 87 434 l 43 434 l 43 477 m 87 477 l 130 477 l 130 434 l 87 434 l 87 477 m 130 477 l 174 477 l 174 434 l 130 434 l 130 477 m 43 434 l 87 434 l 87 391 l 43 391 l 43 434 m 87 434 l 130 434 l 130 391 l 87 391 l 87 434 m 130 434 l 174 434 l 174 391 l 130 391 l 130 434 m 174 434 l 217 434 l 217 391 l 174 391 l 174 434 m 87 391 l 130 391 l 130 347 l 87 347 l 87 391 m 130 391 l 174 391 l 174 347 l 130 347 l 130 391 m 174 391 l 217 391 l 217 347 l 174 347 l 174 391 m 217 391 l 260 391 l 260 347 l 217 347 l 217 391 m 87 347 l 130 347 l 130 304 l 87 304 l 87 347 m 130 347 l 174 347 l 174 304 l 130 304 l 130 347 m 174 347 l 217 347 l 217 304 l 174 304 l 174 347 m 217 347 l 260 347 l 260 304 l 217 304 l 217 347 m 43 304 l 87 304 l 87 260 l 43 260 l 43 304 m 87 304 l 130 304 l 130 260 l 87 260 l 87 304 m 130 304 l 174 304 l 174 260 l 130 260 l 130 304 m 174 304 l 217 304 l 217 260 l 174 260 l 174 304 m 0 260 l 43 260 l 43 217 l 0 217 l 0 260 m 43 260 l 87 260 l 87 217 l 43 217 l 43 260 m 87 260 l 130 260 l 130 217 l 87 217 l 87 260 m 130 260 l 174 260 l 174 217 l 130 217 l 130 260 m 0 217 l 43 217 l 43 174 l 0 174 l 0 217 m 43 217 l 87 217 l 87 174 l 43 174 l 43 217 m 87 217 l 130 217 l 130 174 l 87 174 l 87 217 m 0 174 l 43 174 l 43 130 l 0 130 l 0 174 m 43 174 l 87 174 l 87 130 l 43 130 l 43 174 z "},"?":{"ha":564,"x_min":0,"x_max":477,"o":"m 87 738 l 130 738 l 130 694 l 87 694 l 87 738 m 130 738 l 174 738 l 174 694 l 130 694 l 130 738 m 174 738 l 217 738 l 217 694 l 174 694 l 174 738 m 217 738 l 260 738 l 260 694 l 217 694 l 217 738 m 260 738 l 304 738 l 304 694 l 260 694 l 260 738 m 304 738 l 347 738 l 347 694 l 304 694 l 304 738 m 347 738 l 391 738 l 391 694 l 347 694 l 347 738 m 43 694 l 87 694 l 87 651 l 43 651 l 43 694 m 87 694 l 130 694 l 130 651 l 87 651 l 87 694 m 130 694 l 174 694 l 174 651 l 130 651 l 130 694 m 174 694 l 217 694 l 217 651 l 174 651 l 174 694 m 217 694 l 260 694 l 260 651 l 217 651 l 217 694 m 260 694 l 304 694 l 304 651 l 260 651 l 260 694 m 304 694 l 347 694 l 347 651 l 304 651 l 304 694 m 347 694 l 391 694 l 391 651 l 347 651 l 347 694 m 391 694 l 434 694 l 434 651 l 391 651 l 391 694 m 0 651 l 43 651 l 43 608 l 0 608 l 0 651 m 43 651 l 87 651 l 87 608 l 43 608 l 43 651 m 87 651 l 130 651 l 130 608 l 87 608 l 87 651 m 130 651 l 174 651 l 174 608 l 130 608 l 130 651 m 174 651 l 217 651 l 217 608 l 174 608 l 174 651 m 217 651 l 260 651 l 260 608 l 217 608 l 217 651 m 260 651 l 304 651 l 304 608 l 260 608 l 260 651 m 304 651 l 347 651 l 347 608 l 304 608 l 304 651 m 347 651 l 391 651 l 391 608 l 347 608 l 347 651 m 391 651 l 434 651 l 434 608 l 391 608 l 391 651 m 434 651 l 477 651 l 477 608 l 434 608 l 434 651 m 0 608 l 43 608 l 43 564 l 0 564 l 0 608 m 43 608 l 87 608 l 87 564 l 43 564 l 43 608 m 87 608 l 130 608 l 130 564 l 87 564 l 87 608 m 347 608 l 391 608 l 391 564 l 347 564 l 347 608 m 391 608 l 434 608 l 434 564 l 391 564 l 391 608 m 434 608 l 477 608 l 477 564 l 434 564 l 434 608 m 0 564 l 43 564 l 43 521 l 0 521 l 0 564 m 43 564 l 87 564 l 87 521 l 43 521 l 43 564 m 87 564 l 130 564 l 130 521 l 87 521 l 87 564 m 347 564 l 391 564 l 391 521 l 347 521 l 347 564 m 391 564 l 434 564 l 434 521 l 391 521 l 391 564 m 434 564 l 477 564 l 477 521 l 434 521 l 434 564 m 347 521 l 391 521 l 391 477 l 347 477 l 347 521 m 391 521 l 434 521 l 434 477 l 391 477 l 391 521 m 434 521 l 477 521 l 477 477 l 434 477 l 434 521 m 347 477 l 391 477 l 391 434 l 347 434 l 347 477 m 391 477 l 434 477 l 434 434 l 391 434 l 391 477 m 434 477 l 477 477 l 477 434 l 434 434 l 434 477 m 347 434 l 391 434 l 391 391 l 347 391 l 347 434 m 391 434 l 434 434 l 434 391 l 391 391 l 391 434 m 434 434 l 477 434 l 477 391 l 434 391 l 434 434 m 174 391 l 217 391 l 217 347 l 174 347 l 174 391 m 217 391 l 260 391 l 260 347 l 217 347 l 217 391 m 260 391 l 304 391 l 304 347 l 260 347 l 260 391 m 304 391 l 347 391 l 347 347 l 304 347 l 304 391 m 347 391 l 391 391 l 391 347 l 347 347 l 347 391 m 391 391 l 434 391 l 434 347 l 391 347 l 391 391 m 434 391 l 477 391 l 477 347 l 434 347 l 434 391 m 174 347 l 217 347 l 217 304 l 174 304 l 174 347 m 217 347 l 260 347 l 260 304 l 217 304 l 217 347 m 260 347 l 304 347 l 304 304 l 260 304 l 260 347 m 304 347 l 347 347 l 347 304 l 304 304 l 304 347 m 347 347 l 391 347 l 391 304 l 347 304 l 347 347 m 391 347 l 434 347 l 434 304 l 391 304 l 391 347 m 174 304 l 217 304 l 217 260 l 174 260 l 174 304 m 217 304 l 260 304 l 260 260 l 217 260 l 217 304 m 260 304 l 304 304 l 304 260 l 260 260 l 260 304 m 304 304 l 347 304 l 347 260 l 304 260 l 304 304 m 347 304 l 391 304 l 391 260 l 347 260 l 347 304 m 174 260 l 217 260 l 217 217 l 174 217 l 174 260 m 217 260 l 260 260 l 260 217 l 217 217 l 217 260 m 260 260 l 304 260 l 304 217 l 260 217 l 260 260 m 174 130 l 217 130 l 217 87 l 174 87 l 174 130 m 217 130 l 260 130 l 260 87 l 217 87 l 217 130 m 260 130 l 304 130 l 304 87 l 260 87 l 260 130 m 174 87 l 217 87 l 217 43 l 174 43 l 174 87 m 217 87 l 260 87 l 260 43 l 217 43 l 217 87 m 260 87 l 304 87 l 304 43 l 260 43 l 260 87 m 174 43 l 217 43 l 217 0 l 174 0 l 174 43 m 217 43 l 260 43 l 260 0 l 217 0 l 217 43 m 260 43 l 304 43 l 304 0 l 260 0 l 260 43 z "},"@":{"ha":694,"x_min":0,"x_max":608,"o":"m 87 738 l 130 738 l 130 694 l 87 694 l 87 738 m 130 738 l 174 738 l 174 694 l 130 694 l 130 738 m 174 738 l 217 738 l 217 694 l 174 694 l 174 738 m 217 738 l 260 738 l 260 694 l 217 694 l 217 738 m 260 738 l 304 738 l 304 694 l 260 694 l 260 738 m 304 738 l 347 738 l 347 694 l 304 694 l 304 738 m 347 738 l 391 738 l 391 694 l 347 694 l 347 738 m 391 738 l 434 738 l 434 694 l 391 694 l 391 738 m 434 738 l 477 738 l 477 694 l 434 694 l 434 738 m 477 738 l 521 738 l 521 694 l 477 694 l 477 738 m 43 694 l 87 694 l 87 651 l 43 651 l 43 694 m 87 694 l 130 694 l 130 651 l 87 651 l 87 694 m 130 694 l 174 694 l 174 651 l 130 651 l 130 694 m 174 694 l 217 694 l 217 651 l 174 651 l 174 694 m 217 694 l 260 694 l 260 651 l 217 651 l 217 694 m 260 694 l 304 694 l 304 651 l 260 651 l 260 694 m 304 694 l 347 694 l 347 651 l 304 651 l 304 694 m 347 694 l 391 694 l 391 651 l 347 651 l 347 694 m 391 694 l 434 694 l 434 651 l 391 651 l 391 694 m 434 694 l 477 694 l 477 651 l 434 651 l 434 694 m 477 694 l 521 694 l 521 651 l 477 651 l 477 694 m 521 694 l 564 694 l 564 651 l 521 651 l 521 694 m 0 651 l 43 651 l 43 608 l 0 608 l 0 651 m 43 651 l 87 651 l 87 608 l 43 608 l 43 651 m 87 651 l 130 651 l 130 608 l 87 608 l 87 651 m 130 651 l 174 651 l 174 608 l 130 608 l 130 651 m 174 651 l 217 651 l 217 608 l 174 608 l 174 651 m 217 651 l 260 651 l 260 608 l 217 608 l 217 651 m 260 651 l 304 651 l 304 608 l 260 608 l 260 651 m 304 651 l 347 651 l 347 608 l 304 608 l 304 651 m 347 651 l 391 651 l 391 608 l 347 608 l 347 651 m 391 651 l 434 651 l 434 608 l 391 608 l 391 651 m 434 651 l 477 651 l 477 608 l 434 608 l 434 651 m 477 651 l 521 651 l 521 608 l 477 608 l 477 651 m 521 651 l 564 651 l 564 608 l 521 608 l 521 651 m 564 651 l 608 651 l 608 608 l 564 608 l 564 651 m 0 608 l 43 608 l 43 564 l 0 564 l 0 608 m 43 608 l 87 608 l 87 564 l 43 564 l 43 608 m 87 608 l 130 608 l 130 564 l 87 564 l 87 608 m 477 608 l 521 608 l 521 564 l 477 564 l 477 608 m 521 608 l 564 608 l 564 564 l 521 564 l 521 608 m 564 608 l 608 608 l 608 564 l 564 564 l 564 608 m 0 564 l 43 564 l 43 521 l 0 521 l 0 564 m 43 564 l 87 564 l 87 521 l 43 521 l 43 564 m 87 564 l 130 564 l 130 521 l 87 521 l 87 564 m 477 564 l 521 564 l 521 521 l 477 521 l 477 564 m 521 564 l 564 564 l 564 521 l 521 521 l 521 564 m 564 564 l 608 564 l 608 521 l 564 521 l 564 564 m 0 521 l 43 521 l 43 477 l 0 477 l 0 521 m 43 521 l 87 521 l 87 477 l 43 477 l 43 521 m 87 521 l 130 521 l 130 477 l 87 477 l 87 521 m 477 521 l 521 521 l 521 477 l 477 477 l 477 521 m 521 521 l 564 521 l 564 477 l 521 477 l 521 521 m 564 521 l 608 521 l 608 477 l 564 477 l 564 521 m 0 477 l 43 477 l 43 434 l 0 434 l 0 477 m 43 477 l 87 477 l 87 434 l 43 434 l 43 477 m 87 477 l 130 477 l 130 434 l 87 434 l 87 477 m 304 477 l 347 477 l 347 434 l 304 434 l 304 477 m 347 477 l 391 477 l 391 434 l 347 434 l 347 477 m 391 477 l 434 477 l 434 434 l 391 434 l 391 477 m 434 477 l 477 477 l 477 434 l 434 434 l 434 477 m 477 477 l 521 477 l 521 434 l 477 434 l 477 477 m 521 477 l 564 477 l 564 434 l 521 434 l 521 477 m 564 477 l 608 477 l 608 434 l 564 434 l 564 477 m 0 434 l 43 434 l 43 391 l 0 391 l 0 434 m 43 434 l 87 434 l 87 391 l 43 391 l 43 434 m 87 434 l 130 434 l 130 391 l 87 391 l 87 434 m 260 434 l 304 434 l 304 391 l 260 391 l 260 434 m 304 434 l 347 434 l 347 391 l 304 391 l 304 434 m 347 434 l 391 434 l 391 391 l 347 391 l 347 434 m 391 434 l 434 434 l 434 391 l 391 391 l 391 434 m 434 434 l 477 434 l 477 391 l 434 391 l 434 434 m 477 434 l 521 434 l 521 391 l 477 391 l 477 434 m 521 434 l 564 434 l 564 391 l 521 391 l 521 434 m 564 434 l 608 434 l 608 391 l 564 391 l 564 434 m 0 391 l 43 391 l 43 347 l 0 347 l 0 391 m 43 391 l 87 391 l 87 347 l 43 347 l 43 391 m 87 391 l 130 391 l 130 347 l 87 347 l 87 391 m 260 391 l 304 391 l 304 347 l 260 347 l 260 391 m 304 391 l 347 391 l 347 347 l 304 347 l 304 391 m 347 391 l 391 391 l 391 347 l 347 347 l 347 391 m 391 391 l 434 391 l 434 347 l 391 347 l 391 391 m 434 391 l 477 391 l 477 347 l 434 347 l 434 391 m 477 391 l 521 391 l 521 347 l 477 347 l 477 391 m 521 391 l 564 391 l 564 347 l 521 347 l 521 391 m 564 391 l 608 391 l 608 347 l 564 347 l 564 391 m 0 347 l 43 347 l 43 304 l 0 304 l 0 347 m 43 347 l 87 347 l 87 304 l 43 304 l 43 347 m 87 347 l 130 347 l 130 304 l 87 304 l 87 347 m 260 347 l 304 347 l 304 304 l 260 304 l 260 347 m 304 347 l 347 347 l 347 304 l 304 304 l 304 347 m 347 347 l 391 347 l 391 304 l 347 304 l 347 347 m 477 347 l 521 347 l 521 304 l 477 304 l 477 347 m 521 347 l 564 347 l 564 304 l 521 304 l 521 347 m 564 347 l 608 347 l 608 304 l 564 304 l 564 347 m 0 304 l 43 304 l 43 260 l 0 260 l 0 304 m 43 304 l 87 304 l 87 260 l 43 260 l 43 304 m 87 304 l 130 304 l 130 260 l 87 260 l 87 304 m 260 304 l 304 304 l 304 260 l 260 260 l 260 304 m 304 304 l 347 304 l 347 260 l 304 260 l 304 304 m 347 304 l 391 304 l 391 260 l 347 260 l 347 304 m 477 304 l 521 304 l 521 260 l 477 260 l 477 304 m 521 304 l 564 304 l 564 260 l 521 260 l 521 304 m 564 304 l 608 304 l 608 260 l 564 260 l 564 304 m 0 260 l 43 260 l 43 217 l 0 217 l 0 260 m 43 260 l 87 260 l 87 217 l 43 217 l 43 260 m 87 260 l 130 260 l 130 217 l 87 217 l 87 260 m 260 260 l 304 260 l 304 217 l 260 217 l 260 260 m 304 260 l 347 260 l 347 217 l 304 217 l 304 260 m 347 260 l 391 260 l 391 217 l 347 217 l 347 260 m 391 260 l 434 260 l 434 217 l 391 217 l 391 260 m 434 260 l 477 260 l 477 217 l 434 217 l 434 260 m 477 260 l 521 260 l 521 217 l 477 217 l 477 260 m 521 260 l 564 260 l 564 217 l 521 217 l 521 260 m 564 260 l 608 260 l 608 217 l 564 217 l 564 260 m 0 217 l 43 217 l 43 174 l 0 174 l 0 217 m 43 217 l 87 217 l 87 174 l 43 174 l 43 217 m 87 217 l 130 217 l 130 174 l 87 174 l 87 217 m 260 217 l 304 217 l 304 174 l 260 174 l 260 217 m 304 217 l 347 217 l 347 174 l 304 174 l 304 217 m 347 217 l 391 217 l 391 174 l 347 174 l 347 217 m 391 217 l 434 217 l 434 174 l 391 174 l 391 217 m 434 217 l 477 217 l 477 174 l 434 174 l 434 217 m 477 217 l 521 217 l 521 174 l 477 174 l 477 217 m 521 217 l 564 217 l 564 174 l 521 174 l 521 217 m 564 217 l 608 217 l 608 174 l 564 174 l 564 217 m 0 174 l 43 174 l 43 130 l 0 130 l 0 174 m 43 174 l 87 174 l 87 130 l 43 130 l 43 174 m 87 174 l 130 174 l 130 130 l 87 130 l 87 174 m 304 174 l 347 174 l 347 130 l 304 130 l 304 174 m 347 174 l 391 174 l 391 130 l 347 130 l 347 174 m 391 174 l 434 174 l 434 130 l 391 130 l 391 174 m 434 174 l 477 174 l 477 130 l 434 130 l 434 174 m 477 174 l 521 174 l 521 130 l 477 130 l 477 174 m 521 174 l 564 174 l 564 130 l 521 130 l 521 174 m 0 130 l 43 130 l 43 87 l 0 87 l 0 130 m 43 130 l 87 130 l 87 87 l 43 87 l 43 130 m 87 130 l 130 130 l 130 87 l 87 87 l 87 130 m 0 87 l 43 87 l 43 43 l 0 43 l 0 87 m 43 87 l 87 87 l 87 43 l 43 43 l 43 87 m 87 87 l 130 87 l 130 43 l 87 43 l 87 87 m 0 43 l 43 43 l 43 0 l 0 0 l 0 43 m 43 43 l 87 43 l 87 0 l 43 0 l 43 43 m 87 43 l 130 43 l 130 0 l 87 0 l 87 43 m 0 0 l 43 0 l 43 -43 l 0 -43 l 0 0 m 43 0 l 87 0 l 87 -43 l 43 -43 l 43 0 m 87 0 l 130 0 l 130 -43 l 87 -43 l 87 0 m 130 0 l 174 0 l 174 -43 l 130 -43 l 130 0 m 174 0 l 217 0 l 217 -43 l 174 -43 l 174 0 m 217 0 l 260 0 l 260 -43 l 217 -43 l 217 0 m 260 0 l 304 0 l 304 -43 l 260 -43 l 260 0 m 304 0 l 347 0 l 347 -43 l 304 -43 l 304 0 m 347 0 l 391 0 l 391 -43 l 347 -43 l 347 0 m 391 0 l 434 0 l 434 -43 l 391 -43 l 391 0 m 434 0 l 477 0 l 477 -43 l 434 -43 l 434 0 m 477 0 l 521 0 l 521 -43 l 477 -43 l 477 0 m 521 0 l 564 0 l 564 -43 l 521 -43 l 521 0 m 564 0 l 608 0 l 608 -43 l 564 -43 l 564 0 m 43 -43 l 87 -43 l 87 -87 l 43 -87 l 43 -43 m 87 -43 l 130 -43 l 130 -87 l 87 -87 l 87 -43 m 130 -43 l 174 -43 l 174 -87 l 130 -87 l 130 -43 m 174 -43 l 217 -43 l 217 -87 l 174 -87 l 174 -43 m 217 -43 l 260 -43 l 260 -87 l 217 -87 l 217 -43 m 260 -43 l 304 -43 l 304 -87 l 260 -87 l 260 -43 m 304 -43 l 347 -43 l 347 -87 l 304 -87 l 304 -43 m 347 -43 l 391 -43 l 391 -87 l 347 -87 l 347 -43 m 391 -43 l 434 -43 l 434 -87 l 391 -87 l 391 -43 m 434 -43 l 477 -43 l 477 -87 l 434 -87 l 434 -43 m 477 -43 l 521 -43 l 521 -87 l 477 -87 l 477 -43 m 521 -43 l 564 -43 l 564 -87 l 521 -87 l 521 -43 m 564 -43 l 608 -43 l 608 -87 l 564 -87 l 564 -43 m 87 -87 l 130 -87 l 130 -130 l 87 -130 l 87 -87 m 130 -87 l 174 -87 l 174 -130 l 130 -130 l 130 -87 m 174 -87 l 217 -87 l 217 -130 l 174 -130 l 174 -87 m 217 -87 l 260 -87 l 260 -130 l 217 -130 l 217 -87 m 260 -87 l 304 -87 l 304 -130 l 260 -130 l 260 -87 m 304 -87 l 347 -87 l 347 -130 l 304 -130 l 304 -87 m 347 -87 l 391 -87 l 391 -130 l 347 -130 l 347 -87 m 391 -87 l 434 -87 l 434 -130 l 391 -130 l 391 -87 m 434 -87 l 477 -87 l 477 -130 l 434 -130 l 434 -87 m 477 -87 l 521 -87 l 521 -130 l 477 -130 l 477 -87 m 521 -87 l 564 -87 l 564 -130 l 521 -130 l 521 -87 m 564 -87 l 608 -87 l 608 -130 l 564 -130 l 564 -87 z "},"A":{"ha":564,"x_min":0,"x_max":477,"o":"m 87 738 l 130 738 l 130 694 l 87 694 l 87 738 m 130 738 l 174 738 l 174 694 l 130 694 l 130 738 m 174 738 l 217 738 l 217 694 l 174 694 l 174 738 m 217 738 l 260 738 l 260 694 l 217 694 l 217 738 m 260 738 l 304 738 l 304 694 l 260 694 l 260 738 m 304 738 l 347 738 l 347 694 l 304 694 l 304 738 m 347 738 l 391 738 l 391 694 l 347 694 l 347 738 m 43 694 l 87 694 l 87 651 l 43 651 l 43 694 m 87 694 l 130 694 l 130 651 l 87 651 l 87 694 m 130 694 l 174 694 l 174 651 l 130 651 l 130 694 m 174 694 l 217 694 l 217 651 l 174 651 l 174 694 m 217 694 l 260 694 l 260 651 l 217 651 l 217 694 m 260 694 l 304 694 l 304 651 l 260 651 l 260 694 m 304 694 l 347 694 l 347 651 l 304 651 l 304 694 m 347 694 l 391 694 l 391 651 l 347 651 l 347 694 m 391 694 l 434 694 l 434 651 l 391 651 l 391 694 m 0 651 l 43 651 l 43 608 l 0 608 l 0 651 m 43 651 l 87 651 l 87 608 l 43 608 l 43 651 m 87 651 l 130 651 l 130 608 l 87 608 l 87 651 m 130 651 l 174 651 l 174 608 l 130 608 l 130 651 m 174 651 l 217 651 l 217 608 l 174 608 l 174 651 m 217 651 l 260 651 l 260 608 l 217 608 l 217 651 m 260 651 l 304 651 l 304 608 l 260 608 l 260 651 m 304 651 l 347 651 l 347 608 l 304 608 l 304 651 m 347 651 l 391 651 l 391 608 l 347 608 l 347 651 m 391 651 l 434 651 l 434 608 l 391 608 l 391 651 m 434 651 l 477 651 l 477 608 l 434 608 l 434 651 m 0 608 l 43 608 l 43 564 l 0 564 l 0 608 m 43 608 l 87 608 l 87 564 l 43 564 l 43 608 m 87 608 l 130 608 l 130 564 l 87 564 l 87 608 m 347 608 l 391 608 l 391 564 l 347 564 l 347 608 m 391 608 l 434 608 l 434 564 l 391 564 l 391 608 m 434 608 l 477 608 l 477 564 l 434 564 l 434 608 m 0 564 l 43 564 l 43 521 l 0 521 l 0 564 m 43 564 l 87 564 l 87 521 l 43 521 l 43 564 m 87 564 l 130 564 l 130 521 l 87 521 l 87 564 m 347 564 l 391 564 l 391 521 l 347 521 l 347 564 m 391 564 l 434 564 l 434 521 l 391 521 l 391 564 m 434 564 l 477 564 l 477 521 l 434 521 l 434 564 m 0 521 l 43 521 l 43 477 l 0 477 l 0 521 m 43 521 l 87 521 l 87 477 l 43 477 l 43 521 m 87 521 l 130 521 l 130 477 l 87 477 l 87 521 m 347 521 l 391 521 l 391 477 l 347 477 l 347 521 m 391 521 l 434 521 l 434 477 l 391 477 l 391 521 m 434 521 l 477 521 l 477 477 l 434 477 l 434 521 m 0 477 l 43 477 l 43 434 l 0 434 l 0 477 m 43 477 l 87 477 l 87 434 l 43 434 l 43 477 m 87 477 l 130 477 l 130 434 l 87 434 l 87 477 m 347 477 l 391 477 l 391 434 l 347 434 l 347 477 m 391 477 l 434 477 l 434 434 l 391 434 l 391 477 m 434 477 l 477 477 l 477 434 l 434 434 l 434 477 m 0 434 l 43 434 l 43 391 l 0 391 l 0 434 m 43 434 l 87 434 l 87 391 l 43 391 l 43 434 m 87 434 l 130 434 l 130 391 l 87 391 l 87 434 m 130 434 l 174 434 l 174 391 l 130 391 l 130 434 m 174 434 l 217 434 l 217 391 l 174 391 l 174 434 m 217 434 l 260 434 l 260 391 l 217 391 l 217 434 m 260 434 l 304 434 l 304 391 l 260 391 l 260 434 m 304 434 l 347 434 l 347 391 l 304 391 l 304 434 m 347 434 l 391 434 l 391 391 l 347 391 l 347 434 m 391 434 l 434 434 l 434 391 l 391 391 l 391 434 m 434 434 l 477 434 l 477 391 l 434 391 l 434 434 m 0 391 l 43 391 l 43 347 l 0 347 l 0 391 m 43 391 l 87 391 l 87 347 l 43 347 l 43 391 m 87 391 l 130 391 l 130 347 l 87 347 l 87 391 m 130 391 l 174 391 l 174 347 l 130 347 l 130 391 m 174 391 l 217 391 l 217 347 l 174 347 l 174 391 m 217 391 l 260 391 l 260 347 l 217 347 l 217 391 m 260 391 l 304 391 l 304 347 l 260 347 l 260 391 m 304 391 l 347 391 l 347 347 l 304 347 l 304 391 m 347 391 l 391 391 l 391 347 l 347 347 l 347 391 m 391 391 l 434 391 l 434 347 l 391 347 l 391 391 m 434 391 l 477 391 l 477 347 l 434 347 l 434 391 m 0 347 l 43 347 l 43 304 l 0 304 l 0 347 m 43 347 l 87 347 l 87 304 l 43 304 l 43 347 m 87 347 l 130 347 l 130 304 l 87 304 l 87 347 m 130 347 l 174 347 l 174 304 l 130 304 l 130 347 m 174 347 l 217 347 l 217 304 l 174 304 l 174 347 m 217 347 l 260 347 l 260 304 l 217 304 l 217 347 m 260 347 l 304 347 l 304 304 l 260 304 l 260 347 m 304 347 l 347 347 l 347 304 l 304 304 l 304 347 m 347 347 l 391 347 l 391 304 l 347 304 l 347 347 m 391 347 l 434 347 l 434 304 l 391 304 l 391 347 m 434 347 l 477 347 l 477 304 l 434 304 l 434 347 m 0 304 l 43 304 l 43 260 l 0 260 l 0 304 m 43 304 l 87 304 l 87 260 l 43 260 l 43 304 m 87 304 l 130 304 l 130 260 l 87 260 l 87 304 m 347 304 l 391 304 l 391 260 l 347 260 l 347 304 m 391 304 l 434 304 l 434 260 l 391 260 l 391 304 m 434 304 l 477 304 l 477 260 l 434 260 l 434 304 m 0 260 l 43 260 l 43 217 l 0 217 l 0 260 m 43 260 l 87 260 l 87 217 l 43 217 l 43 260 m 87 260 l 130 260 l 130 217 l 87 217 l 87 260 m 347 260 l 391 260 l 391 217 l 347 217 l 347 260 m 391 260 l 434 260 l 434 217 l 391 217 l 391 260 m 434 260 l 477 260 l 477 217 l 434 217 l 434 260 m 0 217 l 43 217 l 43 174 l 0 174 l 0 217 m 43 217 l 87 217 l 87 174 l 43 174 l 43 217 m 87 217 l 130 217 l 130 174 l 87 174 l 87 217 m 347 217 l 391 217 l 391 174 l 347 174 l 347 217 m 391 217 l 434 217 l 434 174 l 391 174 l 391 217 m 434 217 l 477 217 l 477 174 l 434 174 l 434 217 m 0 174 l 43 174 l 43 130 l 0 130 l 0 174 m 43 174 l 87 174 l 87 130 l 43 130 l 43 174 m 87 174 l 130 174 l 130 130 l 87 130 l 87 174 m 347 174 l 391 174 l 391 130 l 347 130 l 347 174 m 391 174 l 434 174 l 434 130 l 391 130 l 391 174 m 434 174 l 477 174 l 477 130 l 434 130 l 434 174 m 0 130 l 43 130 l 43 87 l 0 87 l 0 130 m 43 130 l 87 130 l 87 87 l 43 87 l 43 130 m 87 130 l 130 130 l 130 87 l 87 87 l 87 130 m 347 130 l 391 130 l 391 87 l 347 87 l 347 130 m 391 130 l 434 130 l 434 87 l 391 87 l 391 130 m 434 130 l 477 130 l 477 87 l 434 87 l 434 130 m 0 87 l 43 87 l 43 43 l 0 43 l 0 87 m 43 87 l 87 87 l 87 43 l 43 43 l 43 87 m 87 87 l 130 87 l 130 43 l 87 43 l 87 87 m 347 87 l 391 87 l 391 43 l 347 43 l 347 87 m 391 87 l 434 87 l 434 43 l 391 43 l 391 87 m 434 87 l 477 87 l 477 43 l 434 43 l 434 87 m 0 43 l 43 43 l 43 0 l 0 0 l 0 43 m 43 43 l 87 43 l 87 0 l 43 0 l 43 43 m 87 43 l 130 43 l 130 0 l 87 0 l 87 43 m 347 43 l 391 43 l 391 0 l 347 0 l 347 43 m 391 43 l 434 43 l 434 0 l 391 0 l 391 43 m 434 43 l 477 43 l 477 0 l 434 0 l 434 43 z "},"B":{"ha":564,"x_min":0,"x_max":477,"o":"m 0 738 l 43 738 l 43 694 l 0 694 l 0 738 m 43 738 l 87 738 l 87 694 l 43 694 l 43 738 m 87 738 l 130 738 l 130 694 l 87 694 l 87 738 m 130 738 l 174 738 l 174 694 l 130 694 l 130 738 m 174 738 l 217 738 l 217 694 l 174 694 l 174 738 m 217 738 l 260 738 l 260 694 l 217 694 l 217 738 m 260 738 l 304 738 l 304 694 l 260 694 l 260 738 m 304 738 l 347 738 l 347 694 l 304 694 l 304 738 m 347 738 l 391 738 l 391 694 l 347 694 l 347 738 m 0 694 l 43 694 l 43 651 l 0 651 l 0 694 m 43 694 l 87 694 l 87 651 l 43 651 l 43 694 m 87 694 l 130 694 l 130 651 l 87 651 l 87 694 m 130 694 l 174 694 l 174 651 l 130 651 l 130 694 m 174 694 l 217 694 l 217 651 l 174 651 l 174 694 m 217 694 l 260 694 l 260 651 l 217 651 l 217 694 m 260 694 l 304 694 l 304 651 l 260 651 l 260 694 m 304 694 l 347 694 l 347 651 l 304 651 l 304 694 m 347 694 l 391 694 l 391 651 l 347 651 l 347 694 m 391 694 l 434 694 l 434 651 l 391 651 l 391 694 m 0 651 l 43 651 l 43 608 l 0 608 l 0 651 m 43 651 l 87 651 l 87 608 l 43 608 l 43 651 m 87 651 l 130 651 l 130 608 l 87 608 l 87 651 m 130 651 l 174 651 l 174 608 l 130 608 l 130 651 m 174 651 l 217 651 l 217 608 l 174 608 l 174 651 m 217 651 l 260 651 l 260 608 l 217 608 l 217 651 m 260 651 l 304 651 l 304 608 l 260 608 l 260 651 m 304 651 l 347 651 l 347 608 l 304 608 l 304 651 m 347 651 l 391 651 l 391 608 l 347 608 l 347 651 m 391 651 l 434 651 l 434 608 l 391 608 l 391 651 m 434 651 l 477 651 l 477 608 l 434 608 l 434 651 m 0 608 l 43 608 l 43 564 l 0 564 l 0 608 m 43 608 l 87 608 l 87 564 l 43 564 l 43 608 m 87 608 l 130 608 l 130 564 l 87 564 l 87 608 m 347 608 l 391 608 l 391 564 l 347 564 l 347 608 m 391 608 l 434 608 l 434 564 l 391 564 l 391 608 m 434 608 l 477 608 l 477 564 l 434 564 l 434 608 m 0 564 l 43 564 l 43 521 l 0 521 l 0 564 m 43 564 l 87 564 l 87 521 l 43 521 l 43 564 m 87 564 l 130 564 l 130 521 l 87 521 l 87 564 m 347 564 l 391 564 l 391 521 l 347 521 l 347 564 m 391 564 l 434 564 l 434 521 l 391 521 l 391 564 m 434 564 l 477 564 l 477 521 l 434 521 l 434 564 m 0 521 l 43 521 l 43 477 l 0 477 l 0 521 m 43 521 l 87 521 l 87 477 l 43 477 l 43 521 m 87 521 l 130 521 l 130 477 l 87 477 l 87 521 m 347 521 l 391 521 l 391 477 l 347 477 l 347 521 m 391 521 l 434 521 l 434 477 l 391 477 l 391 521 m 434 521 l 477 521 l 477 477 l 434 477 l 434 521 m 0 477 l 43 477 l 43 434 l 0 434 l 0 477 m 43 477 l 87 477 l 87 434 l 43 434 l 43 477 m 87 477 l 130 477 l 130 434 l 87 434 l 87 477 m 347 477 l 391 477 l 391 434 l 347 434 l 347 477 m 391 477 l 434 477 l 434 434 l 391 434 l 391 477 m 434 477 l 477 477 l 477 434 l 434 434 l 434 477 m 0 434 l 43 434 l 43 391 l 0 391 l 0 434 m 43 434 l 87 434 l 87 391 l 43 391 l 43 434 m 87 434 l 130 434 l 130 391 l 87 391 l 87 434 m 130 434 l 174 434 l 174 391 l 130 391 l 130 434 m 174 434 l 217 434 l 217 391 l 174 391 l 174 434 m 217 434 l 260 434 l 260 391 l 217 391 l 217 434 m 260 434 l 304 434 l 304 391 l 260 391 l 260 434 m 304 434 l 347 434 l 347 391 l 304 391 l 304 434 m 347 434 l 391 434 l 391 391 l 347 391 l 347 434 m 391 434 l 434 434 l 434 391 l 391 391 l 391 434 m 434 434 l 477 434 l 477 391 l 434 391 l 434 434 m 0 391 l 43 391 l 43 347 l 0 347 l 0 391 m 43 391 l 87 391 l 87 347 l 43 347 l 43 391 m 87 391 l 130 391 l 130 347 l 87 347 l 87 391 m 130 391 l 174 391 l 174 347 l 130 347 l 130 391 m 174 391 l 217 391 l 217 347 l 174 347 l 174 391 m 217 391 l 260 391 l 260 347 l 217 347 l 217 391 m 260 391 l 304 391 l 304 347 l 260 347 l 260 391 m 304 391 l 347 391 l 347 347 l 304 347 l 304 391 m 347 391 l 391 391 l 391 347 l 347 347 l 347 391 m 391 391 l 434 391 l 434 347 l 391 347 l 391 391 m 0 347 l 43 347 l 43 304 l 0 304 l 0 347 m 43 347 l 87 347 l 87 304 l 43 304 l 43 347 m 87 347 l 130 347 l 130 304 l 87 304 l 87 347 m 130 347 l 174 347 l 174 304 l 130 304 l 130 347 m 174 347 l 217 347 l 217 304 l 174 304 l 174 347 m 217 347 l 260 347 l 260 304 l 217 304 l 217 347 m 260 347 l 304 347 l 304 304 l 260 304 l 260 347 m 304 347 l 347 347 l 347 304 l 304 304 l 304 347 m 347 347 l 391 347 l 391 304 l 347 304 l 347 347 m 391 347 l 434 347 l 434 304 l 391 304 l 391 347 m 0 304 l 43 304 l 43 260 l 0 260 l 0 304 m 43 304 l 87 304 l 87 260 l 43 260 l 43 304 m 87 304 l 130 304 l 130 260 l 87 260 l 87 304 m 347 304 l 391 304 l 391 260 l 347 260 l 347 304 m 391 304 l 434 304 l 434 260 l 391 260 l 391 304 m 434 304 l 477 304 l 477 260 l 434 260 l 434 304 m 0 260 l 43 260 l 43 217 l 0 217 l 0 260 m 43 260 l 87 260 l 87 217 l 43 217 l 43 260 m 87 260 l 130 260 l 130 217 l 87 217 l 87 260 m 347 260 l 391 260 l 391 217 l 347 217 l 347 260 m 391 260 l 434 260 l 434 217 l 391 217 l 391 260 m 434 260 l 477 260 l 477 217 l 434 217 l 434 260 m 0 217 l 43 217 l 43 174 l 0 174 l 0 217 m 43 217 l 87 217 l 87 174 l 43 174 l 43 217 m 87 217 l 130 217 l 130 174 l 87 174 l 87 217 m 347 217 l 391 217 l 391 174 l 347 174 l 347 217 m 391 217 l 434 217 l 434 174 l 391 174 l 391 217 m 434 217 l 477 217 l 477 174 l 434 174 l 434 217 m 0 174 l 43 174 l 43 130 l 0 130 l 0 174 m 43 174 l 87 174 l 87 130 l 43 130 l 43 174 m 87 174 l 130 174 l 130 130 l 87 130 l 87 174 m 347 174 l 391 174 l 391 130 l 347 130 l 347 174 m 391 174 l 434 174 l 434 130 l 391 130 l 391 174 m 434 174 l 477 174 l 477 130 l 434 130 l 434 174 m 0 130 l 43 130 l 43 87 l 0 87 l 0 130 m 43 130 l 87 130 l 87 87 l 43 87 l 43 130 m 87 130 l 130 130 l 130 87 l 87 87 l 87 130 m 130 130 l 174 130 l 174 87 l 130 87 l 130 130 m 174 130 l 217 130 l 217 87 l 174 87 l 174 130 m 217 130 l 260 130 l 260 87 l 217 87 l 217 130 m 260 130 l 304 130 l 304 87 l 260 87 l 260 130 m 304 130 l 347 130 l 347 87 l 304 87 l 304 130 m 347 130 l 391 130 l 391 87 l 347 87 l 347 130 m 391 130 l 434 130 l 434 87 l 391 87 l 391 130 m 434 130 l 477 130 l 477 87 l 434 87 l 434 130 m 0 87 l 43 87 l 43 43 l 0 43 l 0 87 m 43 87 l 87 87 l 87 43 l 43 43 l 43 87 m 87 87 l 130 87 l 130 43 l 87 43 l 87 87 m 130 87 l 174 87 l 174 43 l 130 43 l 130 87 m 174 87 l 217 87 l 217 43 l 174 43 l 174 87 m 217 87 l 260 87 l 260 43 l 217 43 l 217 87 m 260 87 l 304 87 l 304 43 l 260 43 l 260 87 m 304 87 l 347 87 l 347 43 l 304 43 l 304 87 m 347 87 l 391 87 l 391 43 l 347 43 l 347 87 m 391 87 l 434 87 l 434 43 l 391 43 l 391 87 m 0 43 l 43 43 l 43 0 l 0 0 l 0 43 m 43 43 l 87 43 l 87 0 l 43 0 l 43 43 m 87 43 l 130 43 l 130 0 l 87 0 l 87 43 m 130 43 l 174 43 l 174 0 l 130 0 l 130 43 m 174 43 l 217 43 l 217 0 l 174 0 l 174 43 m 217 43 l 260 43 l 260 0 l 217 0 l 217 43 m 260 43 l 304 43 l 304 0 l 260 0 l 260 43 m 304 43 l 347 43 l 347 0 l 304 0 l 304 43 m 347 43 l 391 43 l 391 0 l 347 0 l 347 43 z "},"C":{"ha":564,"x_min":0,"x_max":477,"o":"m 87 738 l 130 738 l 130 694 l 87 694 l 87 738 m 130 738 l 174 738 l 174 694 l 130 694 l 130 738 m 174 738 l 217 738 l 217 694 l 174 694 l 174 738 m 217 738 l 260 738 l 260 694 l 217 694 l 217 738 m 260 738 l 304 738 l 304 694 l 260 694 l 260 738 m 304 738 l 347 738 l 347 694 l 304 694 l 304 738 m 347 738 l 391 738 l 391 694 l 347 694 l 347 738 m 43 694 l 87 694 l 87 651 l 43 651 l 43 694 m 87 694 l 130 694 l 130 651 l 87 651 l 87 694 m 130 694 l 174 694 l 174 651 l 130 651 l 130 694 m 174 694 l 217 694 l 217 651 l 174 651 l 174 694 m 217 694 l 260 694 l 260 651 l 217 651 l 217 694 m 260 694 l 304 694 l 304 651 l 260 651 l 260 694 m 304 694 l 347 694 l 347 651 l 304 651 l 304 694 m 347 694 l 391 694 l 391 651 l 347 651 l 347 694 m 391 694 l 434 694 l 434 651 l 391 651 l 391 694 m 0 651 l 43 651 l 43 608 l 0 608 l 0 651 m 43 651 l 87 651 l 87 608 l 43 608 l 43 651 m 87 651 l 130 651 l 130 608 l 87 608 l 87 651 m 130 651 l 174 651 l 174 608 l 130 608 l 130 651 m 174 651 l 217 651 l 217 608 l 174 608 l 174 651 m 217 651 l 260 651 l 260 608 l 217 608 l 217 651 m 260 651 l 304 651 l 304 608 l 260 608 l 260 651 m 304 651 l 347 651 l 347 608 l 304 608 l 304 651 m 347 651 l 391 651 l 391 608 l 347 608 l 347 651 m 391 651 l 434 651 l 434 608 l 391 608 l 391 651 m 434 651 l 477 651 l 477 608 l 434 608 l 434 651 m 0 608 l 43 608 l 43 564 l 0 564 l 0 608 m 43 608 l 87 608 l 87 564 l 43 564 l 43 608 m 87 608 l 130 608 l 130 564 l 87 564 l 87 608 m 347 608 l 391 608 l 391 564 l 347 564 l 347 608 m 391 608 l 434 608 l 434 564 l 391 564 l 391 608 m 434 608 l 477 608 l 477 564 l 434 564 l 434 608 m 0 564 l 43 564 l 43 521 l 0 521 l 0 564 m 43 564 l 87 564 l 87 521 l 43 521 l 43 564 m 87 564 l 130 564 l 130 521 l 87 521 l 87 564 m 347 564 l 391 564 l 391 521 l 347 521 l 347 564 m 391 564 l 434 564 l 434 521 l 391 521 l 391 564 m 434 564 l 477 564 l 477 521 l 434 521 l 434 564 m 0 521 l 43 521 l 43 477 l 0 477 l 0 521 m 43 521 l 87 521 l 87 477 l 43 477 l 43 521 m 87 521 l 130 521 l 130 477 l 87 477 l 87 521 m 0 477 l 43 477 l 43 434 l 0 434 l 0 477 m 43 477 l 87 477 l 87 434 l 43 434 l 43 477 m 87 477 l 130 477 l 130 434 l 87 434 l 87 477 m 0 434 l 43 434 l 43 391 l 0 391 l 0 434 m 43 434 l 87 434 l 87 391 l 43 391 l 43 434 m 87 434 l 130 434 l 130 391 l 87 391 l 87 434 m 0 391 l 43 391 l 43 347 l 0 347 l 0 391 m 43 391 l 87 391 l 87 347 l 43 347 l 43 391 m 87 391 l 130 391 l 130 347 l 87 347 l 87 391 m 0 347 l 43 347 l 43 304 l 0 304 l 0 347 m 43 347 l 87 347 l 87 304 l 43 304 l 43 347 m 87 347 l 130 347 l 130 304 l 87 304 l 87 347 m 0 304 l 43 304 l 43 260 l 0 260 l 0 304 m 43 304 l 87 304 l 87 260 l 43 260 l 43 304 m 87 304 l 130 304 l 130 260 l 87 260 l 87 304 m 0 260 l 43 260 l 43 217 l 0 217 l 0 260 m 43 260 l 87 260 l 87 217 l 43 217 l 43 260 m 87 260 l 130 260 l 130 217 l 87 217 l 87 260 m 0 217 l 43 217 l 43 174 l 0 174 l 0 217 m 43 217 l 87 217 l 87 174 l 43 174 l 43 217 m 87 217 l 130 217 l 130 174 l 87 174 l 87 217 m 347 217 l 391 217 l 391 174 l 347 174 l 347 217 m 391 217 l 434 217 l 434 174 l 391 174 l 391 217 m 434 217 l 477 217 l 477 174 l 434 174 l 434 217 m 0 174 l 43 174 l 43 130 l 0 130 l 0 174 m 43 174 l 87 174 l 87 130 l 43 130 l 43 174 m 87 174 l 130 174 l 130 130 l 87 130 l 87 174 m 347 174 l 391 174 l 391 130 l 347 130 l 347 174 m 391 174 l 434 174 l 434 130 l 391 130 l 391 174 m 434 174 l 477 174 l 477 130 l 434 130 l 434 174 m 0 130 l 43 130 l 43 87 l 0 87 l 0 130 m 43 130 l 87 130 l 87 87 l 43 87 l 43 130 m 87 130 l 130 130 l 130 87 l 87 87 l 87 130 m 130 130 l 174 130 l 174 87 l 130 87 l 130 130 m 174 130 l 217 130 l 217 87 l 174 87 l 174 130 m 217 130 l 260 130 l 260 87 l 217 87 l 217 130 m 260 130 l 304 130 l 304 87 l 260 87 l 260 130 m 304 130 l 347 130 l 347 87 l 304 87 l 304 130 m 347 130 l 391 130 l 391 87 l 347 87 l 347 130 m 391 130 l 434 130 l 434 87 l 391 87 l 391 130 m 434 130 l 477 130 l 477 87 l 434 87 l 434 130 m 43 87 l 87 87 l 87 43 l 43 43 l 43 87 m 87 87 l 130 87 l 130 43 l 87 43 l 87 87 m 130 87 l 174 87 l 174 43 l 130 43 l 130 87 m 174 87 l 217 87 l 217 43 l 174 43 l 174 87 m 217 87 l 260 87 l 260 43 l 217 43 l 217 87 m 260 87 l 304 87 l 304 43 l 260 43 l 260 87 m 304 87 l 347 87 l 347 43 l 304 43 l 304 87 m 347 87 l 391 87 l 391 43 l 347 43 l 347 87 m 391 87 l 434 87 l 434 43 l 391 43 l 391 87 m 87 43 l 130 43 l 130 0 l 87 0 l 87 43 m 130 43 l 174 43 l 174 0 l 130 0 l 130 43 m 174 43 l 217 43 l 217 0 l 174 0 l 174 43 m 217 43 l 260 43 l 260 0 l 217 0 l 217 43 m 260 43 l 304 43 l 304 0 l 260 0 l 260 43 m 304 43 l 347 43 l 347 0 l 304 0 l 304 43 m 347 43 l 391 43 l 391 0 l 347 0 l 347 43 z "},"D":{"ha":564,"x_min":0,"x_max":477,"o":"m 0 738 l 43 738 l 43 694 l 0 694 l 0 738 m 43 738 l 87 738 l 87 694 l 43 694 l 43 738 m 87 738 l 130 738 l 130 694 l 87 694 l 87 738 m 130 738 l 174 738 l 174 694 l 130 694 l 130 738 m 174 738 l 217 738 l 217 694 l 174 694 l 174 738 m 217 738 l 260 738 l 260 694 l 217 694 l 217 738 m 260 738 l 304 738 l 304 694 l 260 694 l 260 738 m 304 738 l 347 738 l 347 694 l 304 694 l 304 738 m 0 694 l 43 694 l 43 651 l 0 651 l 0 694 m 43 694 l 87 694 l 87 651 l 43 651 l 43 694 m 87 694 l 130 694 l 130 651 l 87 651 l 87 694 m 130 694 l 174 694 l 174 651 l 130 651 l 130 694 m 174 694 l 217 694 l 217 651 l 174 651 l 174 694 m 217 694 l 260 694 l 260 651 l 217 651 l 217 694 m 260 694 l 304 694 l 304 651 l 260 651 l 260 694 m 304 694 l 347 694 l 347 651 l 304 651 l 304 694 m 347 694 l 391 694 l 391 651 l 347 651 l 347 694 m 0 651 l 43 651 l 43 608 l 0 608 l 0 651 m 43 651 l 87 651 l 87 608 l 43 608 l 43 651 m 87 651 l 130 651 l 130 608 l 87 608 l 87 651 m 130 651 l 174 651 l 174 608 l 130 608 l 130 651 m 174 651 l 217 651 l 217 608 l 174 608 l 174 651 m 217 651 l 260 651 l 260 608 l 217 608 l 217 651 m 260 651 l 304 651 l 304 608 l 260 608 l 260 651 m 304 651 l 347 651 l 347 608 l 304 608 l 304 651 m 347 651 l 391 651 l 391 608 l 347 608 l 347 651 m 391 651 l 434 651 l 434 608 l 391 608 l 391 651 m 0 608 l 43 608 l 43 564 l 0 564 l 0 608 m 43 608 l 87 608 l 87 564 l 43 564 l 43 608 m 87 608 l 130 608 l 130 564 l 87 564 l 87 608 m 304 608 l 347 608 l 347 564 l 304 564 l 304 608 m 347 608 l 391 608 l 391 564 l 347 564 l 347 608 m 391 608 l 434 608 l 434 564 l 391 564 l 391 608 m 434 608 l 477 608 l 477 564 l 434 564 l 434 608 m 0 564 l 43 564 l 43 521 l 0 521 l 0 564 m 43 564 l 87 564 l 87 521 l 43 521 l 43 564 m 87 564 l 130 564 l 130 521 l 87 521 l 87 564 m 347 564 l 391 564 l 391 521 l 347 521 l 347 564 m 391 564 l 434 564 l 434 521 l 391 521 l 391 564 m 434 564 l 477 564 l 477 521 l 434 521 l 434 564 m 0 521 l 43 521 l 43 477 l 0 477 l 0 521 m 43 521 l 87 521 l 87 477 l 43 477 l 43 521 m 87 521 l 130 521 l 130 477 l 87 477 l 87 521 m 347 521 l 391 521 l 391 477 l 347 477 l 347 521 m 391 521 l 434 521 l 434 477 l 391 477 l 391 521 m 434 521 l 477 521 l 477 477 l 434 477 l 434 521 m 0 477 l 43 477 l 43 434 l 0 434 l 0 477 m 43 477 l 87 477 l 87 434 l 43 434 l 43 477 m 87 477 l 130 477 l 130 434 l 87 434 l 87 477 m 347 477 l 391 477 l 391 434 l 347 434 l 347 477 m 391 477 l 434 477 l 434 434 l 391 434 l 391 477 m 434 477 l 477 477 l 477 434 l 434 434 l 434 477 m 0 434 l 43 434 l 43 391 l 0 391 l 0 434 m 43 434 l 87 434 l 87 391 l 43 391 l 43 434 m 87 434 l 130 434 l 130 391 l 87 391 l 87 434 m 347 434 l 391 434 l 391 391 l 347 391 l 347 434 m 391 434 l 434 434 l 434 391 l 391 391 l 391 434 m 434 434 l 477 434 l 477 391 l 434 391 l 434 434 m 0 391 l 43 391 l 43 347 l 0 347 l 0 391 m 43 391 l 87 391 l 87 347 l 43 347 l 43 391 m 87 391 l 130 391 l 130 347 l 87 347 l 87 391 m 347 391 l 391 391 l 391 347 l 347 347 l 347 391 m 391 391 l 434 391 l 434 347 l 391 347 l 391 391 m 434 391 l 477 391 l 477 347 l 434 347 l 434 391 m 0 347 l 43 347 l 43 304 l 0 304 l 0 347 m 43 347 l 87 347 l 87 304 l 43 304 l 43 347 m 87 347 l 130 347 l 130 304 l 87 304 l 87 347 m 347 347 l 391 347 l 391 304 l 347 304 l 347 347 m 391 347 l 434 347 l 434 304 l 391 304 l 391 347 m 434 347 l 477 347 l 477 304 l 434 304 l 434 347 m 0 304 l 43 304 l 43 260 l 0 260 l 0 304 m 43 304 l 87 304 l 87 260 l 43 260 l 43 304 m 87 304 l 130 304 l 130 260 l 87 260 l 87 304 m 347 304 l 391 304 l 391 260 l 347 260 l 347 304 m 391 304 l 434 304 l 434 260 l 391 260 l 391 304 m 434 304 l 477 304 l 477 260 l 434 260 l 434 304 m 0 260 l 43 260 l 43 217 l 0 217 l 0 260 m 43 260 l 87 260 l 87 217 l 43 217 l 43 260 m 87 260 l 130 260 l 130 217 l 87 217 l 87 260 m 347 260 l 391 260 l 391 217 l 347 217 l 347 260 m 391 260 l 434 260 l 434 217 l 391 217 l 391 260 m 434 260 l 477 260 l 477 217 l 434 217 l 434 260 m 0 217 l 43 217 l 43 174 l 0 174 l 0 217 m 43 217 l 87 217 l 87 174 l 43 174 l 43 217 m 87 217 l 130 217 l 130 174 l 87 174 l 87 217 m 347 217 l 391 217 l 391 174 l 347 174 l 347 217 m 391 217 l 434 217 l 434 174 l 391 174 l 391 217 m 434 217 l 477 217 l 477 174 l 434 174 l 434 217 m 0 174 l 43 174 l 43 130 l 0 130 l 0 174 m 43 174 l 87 174 l 87 130 l 43 130 l 43 174 m 87 174 l 130 174 l 130 130 l 87 130 l 87 174 m 304 174 l 347 174 l 347 130 l 304 130 l 304 174 m 347 174 l 391 174 l 391 130 l 347 130 l 347 174 m 391 174 l 434 174 l 434 130 l 391 130 l 391 174 m 434 174 l 477 174 l 477 130 l 434 130 l 434 174 m 0 130 l 43 130 l 43 87 l 0 87 l 0 130 m 43 130 l 87 130 l 87 87 l 43 87 l 43 130 m 87 130 l 130 130 l 130 87 l 87 87 l 87 130 m 130 130 l 174 130 l 174 87 l 130 87 l 130 130 m 174 130 l 217 130 l 217 87 l 174 87 l 174 130 m 217 130 l 260 130 l 260 87 l 217 87 l 217 130 m 260 130 l 304 130 l 304 87 l 260 87 l 260 130 m 304 130 l 347 130 l 347 87 l 304 87 l 304 130 m 347 130 l 391 130 l 391 87 l 347 87 l 347 130 m 391 130 l 434 130 l 434 87 l 391 87 l 391 130 m 0 87 l 43 87 l 43 43 l 0 43 l 0 87 m 43 87 l 87 87 l 87 43 l 43 43 l 43 87 m 87 87 l 130 87 l 130 43 l 87 43 l 87 87 m 130 87 l 174 87 l 174 43 l 130 43 l 130 87 m 174 87 l 217 87 l 217 43 l 174 43 l 174 87 m 217 87 l 260 87 l 260 43 l 217 43 l 217 87 m 260 87 l 304 87 l 304 43 l 260 43 l 260 87 m 304 87 l 347 87 l 347 43 l 304 43 l 304 87 m 347 87 l 391 87 l 391 43 l 347 43 l 347 87 m 0 43 l 43 43 l 43 0 l 0 0 l 0 43 m 43 43 l 87 43 l 87 0 l 43 0 l 43 43 m 87 43 l 130 43 l 130 0 l 87 0 l 87 43 m 130 43 l 174 43 l 174 0 l 130 0 l 130 43 m 174 43 l 217 43 l 217 0 l 174 0 l 174 43 m 217 43 l 260 43 l 260 0 l 217 0 l 217 43 m 260 43 l 304 43 l 304 0 l 260 0 l 260 43 m 304 43 l 347 43 l 347 0 l 304 0 l 304 43 z "},"E":{"ha":521,"x_min":0,"x_max":434,"o":"m 87 738 l 130 738 l 130 694 l 87 694 l 87 738 m 130 738 l 174 738 l 174 694 l 130 694 l 130 738 m 174 738 l 217 738 l 217 694 l 174 694 l 174 738 m 217 738 l 260 738 l 260 694 l 217 694 l 217 738 m 260 738 l 304 738 l 304 694 l 260 694 l 260 738 m 304 738 l 347 738 l 347 694 l 304 694 l 304 738 m 347 738 l 391 738 l 391 694 l 347 694 l 347 738 m 391 738 l 434 738 l 434 694 l 391 694 l 391 738 m 43 694 l 87 694 l 87 651 l 43 651 l 43 694 m 87 694 l 130 694 l 130 651 l 87 651 l 87 694 m 130 694 l 174 694 l 174 651 l 130 651 l 130 694 m 174 694 l 217 694 l 217 651 l 174 651 l 174 694 m 217 694 l 260 694 l 260 651 l 217 651 l 217 694 m 260 694 l 304 694 l 304 651 l 260 651 l 260 694 m 304 694 l 347 694 l 347 651 l 304 651 l 304 694 m 347 694 l 391 694 l 391 651 l 347 651 l 347 694 m 391 694 l 434 694 l 434 651 l 391 651 l 391 694 m 0 651 l 43 651 l 43 608 l 0 608 l 0 651 m 43 651 l 87 651 l 87 608 l 43 608 l 43 651 m 87 651 l 130 651 l 130 608 l 87 608 l 87 651 m 130 651 l 174 651 l 174 608 l 130 608 l 130 651 m 174 651 l 217 651 l 217 608 l 174 608 l 174 651 m 217 651 l 260 651 l 260 608 l 217 608 l 217 651 m 260 651 l 304 651 l 304 608 l 260 608 l 260 651 m 304 651 l 347 651 l 347 608 l 304 608 l 304 651 m 347 651 l 391 651 l 391 608 l 347 608 l 347 651 m 391 651 l 434 651 l 434 608 l 391 608 l 391 651 m 0 608 l 43 608 l 43 564 l 0 564 l 0 608 m 43 608 l 87 608 l 87 564 l 43 564 l 43 608 m 87 608 l 130 608 l 130 564 l 87 564 l 87 608 m 0 564 l 43 564 l 43 521 l 0 521 l 0 564 m 43 564 l 87 564 l 87 521 l 43 521 l 43 564 m 87 564 l 130 564 l 130 521 l 87 521 l 87 564 m 0 521 l 43 521 l 43 477 l 0 477 l 0 521 m 43 521 l 87 521 l 87 477 l 43 477 l 43 521 m 87 521 l 130 521 l 130 477 l 87 477 l 87 521 m 0 477 l 43 477 l 43 434 l 0 434 l 0 477 m 43 477 l 87 477 l 87 434 l 43 434 l 43 477 m 87 477 l 130 477 l 130 434 l 87 434 l 87 477 m 0 434 l 43 434 l 43 391 l 0 391 l 0 434 m 43 434 l 87 434 l 87 391 l 43 391 l 43 434 m 87 434 l 130 434 l 130 391 l 87 391 l 87 434 m 130 434 l 174 434 l 174 391 l 130 391 l 130 434 m 174 434 l 217 434 l 217 391 l 174 391 l 174 434 m 217 434 l 260 434 l 260 391 l 217 391 l 217 434 m 260 434 l 304 434 l 304 391 l 260 391 l 260 434 m 304 434 l 347 434 l 347 391 l 304 391 l 304 434 m 0 391 l 43 391 l 43 347 l 0 347 l 0 391 m 43 391 l 87 391 l 87 347 l 43 347 l 43 391 m 87 391 l 130 391 l 130 347 l 87 347 l 87 391 m 130 391 l 174 391 l 174 347 l 130 347 l 130 391 m 174 391 l 217 391 l 217 347 l 174 347 l 174 391 m 217 391 l 260 391 l 260 347 l 217 347 l 217 391 m 260 391 l 304 391 l 304 347 l 260 347 l 260 391 m 304 391 l 347 391 l 347 347 l 304 347 l 304 391 m 0 347 l 43 347 l 43 304 l 0 304 l 0 347 m 43 347 l 87 347 l 87 304 l 43 304 l 43 347 m 87 347 l 130 347 l 130 304 l 87 304 l 87 347 m 130 347 l 174 347 l 174 304 l 130 304 l 130 347 m 174 347 l 217 347 l 217 304 l 174 304 l 174 347 m 217 347 l 260 347 l 260 304 l 217 304 l 217 347 m 260 347 l 304 347 l 304 304 l 260 304 l 260 347 m 304 347 l 347 347 l 347 304 l 304 304 l 304 347 m 0 304 l 43 304 l 43 260 l 0 260 l 0 304 m 43 304 l 87 304 l 87 260 l 43 260 l 43 304 m 87 304 l 130 304 l 130 260 l 87 260 l 87 304 m 0 260 l 43 260 l 43 217 l 0 217 l 0 260 m 43 260 l 87 260 l 87 217 l 43 217 l 43 260 m 87 260 l 130 260 l 130 217 l 87 217 l 87 260 m 0 217 l 43 217 l 43 174 l 0 174 l 0 217 m 43 217 l 87 217 l 87 174 l 43 174 l 43 217 m 87 217 l 130 217 l 130 174 l 87 174 l 87 217 m 0 174 l 43 174 l 43 130 l 0 130 l 0 174 m 43 174 l 87 174 l 87 130 l 43 130 l 43 174 m 87 174 l 130 174 l 130 130 l 87 130 l 87 174 m 0 130 l 43 130 l 43 87 l 0 87 l 0 130 m 43 130 l 87 130 l 87 87 l 43 87 l 43 130 m 87 130 l 130 130 l 130 87 l 87 87 l 87 130 m 130 130 l 174 130 l 174 87 l 130 87 l 130 130 m 174 130 l 217 130 l 217 87 l 174 87 l 174 130 m 217 130 l 260 130 l 260 87 l 217 87 l 217 130 m 260 130 l 304 130 l 304 87 l 260 87 l 260 130 m 304 130 l 347 130 l 347 87 l 304 87 l 304 130 m 347 130 l 391 130 l 391 87 l 347 87 l 347 130 m 391 130 l 434 130 l 434 87 l 391 87 l 391 130 m 43 87 l 87 87 l 87 43 l 43 43 l 43 87 m 87 87 l 130 87 l 130 43 l 87 43 l 87 87 m 130 87 l 174 87 l 174 43 l 130 43 l 130 87 m 174 87 l 217 87 l 217 43 l 174 43 l 174 87 m 217 87 l 260 87 l 260 43 l 217 43 l 217 87 m 260 87 l 304 87 l 304 43 l 260 43 l 260 87 m 304 87 l 347 87 l 347 43 l 304 43 l 304 87 m 347 87 l 391 87 l 391 43 l 347 43 l 347 87 m 391 87 l 434 87 l 434 43 l 391 43 l 391 87 m 87 43 l 130 43 l 130 0 l 87 0 l 87 43 m 130 43 l 174 43 l 174 0 l 130 0 l 130 43 m 174 43 l 217 43 l 217 0 l 174 0 l 174 43 m 217 43 l 260 43 l 260 0 l 217 0 l 217 43 m 260 43 l 304 43 l 304 0 l 260 0 l 260 43 m 304 43 l 347 43 l 347 0 l 304 0 l 304 43 m 347 43 l 391 43 l 391 0 l 347 0 l 347 43 m 391 43 l 434 43 l 434 0 l 391 0 l 391 43 z "},"F":{"ha":521,"x_min":0,"x_max":434,"o":"m 87 738 l 130 738 l 130 694 l 87 694 l 87 738 m 130 738 l 174 738 l 174 694 l 130 694 l 130 738 m 174 738 l 217 738 l 217 694 l 174 694 l 174 738 m 217 738 l 260 738 l 260 694 l 217 694 l 217 738 m 260 738 l 304 738 l 304 694 l 260 694 l 260 738 m 304 738 l 347 738 l 347 694 l 304 694 l 304 738 m 347 738 l 391 738 l 391 694 l 347 694 l 347 738 m 391 738 l 434 738 l 434 694 l 391 694 l 391 738 m 43 694 l 87 694 l 87 651 l 43 651 l 43 694 m 87 694 l 130 694 l 130 651 l 87 651 l 87 694 m 130 694 l 174 694 l 174 651 l 130 651 l 130 694 m 174 694 l 217 694 l 217 651 l 174 651 l 174 694 m 217 694 l 260 694 l 260 651 l 217 651 l 217 694 m 260 694 l 304 694 l 304 651 l 260 651 l 260 694 m 304 694 l 347 694 l 347 651 l 304 651 l 304 694 m 347 694 l 391 694 l 391 651 l 347 651 l 347 694 m 391 694 l 434 694 l 434 651 l 391 651 l 391 694 m 0 651 l 43 651 l 43 608 l 0 608 l 0 651 m 43 651 l 87 651 l 87 608 l 43 608 l 43 651 m 87 651 l 130 651 l 130 608 l 87 608 l 87 651 m 130 651 l 174 651 l 174 608 l 130 608 l 130 651 m 174 651 l 217 651 l 217 608 l 174 608 l 174 651 m 217 651 l 260 651 l 260 608 l 217 608 l 217 651 m 260 651 l 304 651 l 304 608 l 260 608 l 260 651 m 304 651 l 347 651 l 347 608 l 304 608 l 304 651 m 347 651 l 391 651 l 391 608 l 347 608 l 347 651 m 391 651 l 434 651 l 434 608 l 391 608 l 391 651 m 0 608 l 43 608 l 43 564 l 0 564 l 0 608 m 43 608 l 87 608 l 87 564 l 43 564 l 43 608 m 87 608 l 130 608 l 130 564 l 87 564 l 87 608 m 0 564 l 43 564 l 43 521 l 0 521 l 0 564 m 43 564 l 87 564 l 87 521 l 43 521 l 43 564 m 87 564 l 130 564 l 130 521 l 87 521 l 87 564 m 0 521 l 43 521 l 43 477 l 0 477 l 0 521 m 43 521 l 87 521 l 87 477 l 43 477 l 43 521 m 87 521 l 130 521 l 130 477 l 87 477 l 87 521 m 0 477 l 43 477 l 43 434 l 0 434 l 0 477 m 43 477 l 87 477 l 87 434 l 43 434 l 43 477 m 87 477 l 130 477 l 130 434 l 87 434 l 87 477 m 0 434 l 43 434 l 43 391 l 0 391 l 0 434 m 43 434 l 87 434 l 87 391 l 43 391 l 43 434 m 87 434 l 130 434 l 130 391 l 87 391 l 87 434 m 130 434 l 174 434 l 174 391 l 130 391 l 130 434 m 174 434 l 217 434 l 217 391 l 174 391 l 174 434 m 217 434 l 260 434 l 260 391 l 217 391 l 217 434 m 260 434 l 304 434 l 304 391 l 260 391 l 260 434 m 304 434 l 347 434 l 347 391 l 304 391 l 304 434 m 0 391 l 43 391 l 43 347 l 0 347 l 0 391 m 43 391 l 87 391 l 87 347 l 43 347 l 43 391 m 87 391 l 130 391 l 130 347 l 87 347 l 87 391 m 130 391 l 174 391 l 174 347 l 130 347 l 130 391 m 174 391 l 217 391 l 217 347 l 174 347 l 174 391 m 217 391 l 260 391 l 260 347 l 217 347 l 217 391 m 260 391 l 304 391 l 304 347 l 260 347 l 260 391 m 304 391 l 347 391 l 347 347 l 304 347 l 304 391 m 0 347 l 43 347 l 43 304 l 0 304 l 0 347 m 43 347 l 87 347 l 87 304 l 43 304 l 43 347 m 87 347 l 130 347 l 130 304 l 87 304 l 87 347 m 130 347 l 174 347 l 174 304 l 130 304 l 130 347 m 174 347 l 217 347 l 217 304 l 174 304 l 174 347 m 217 347 l 260 347 l 260 304 l 217 304 l 217 347 m 260 347 l 304 347 l 304 304 l 260 304 l 260 347 m 304 347 l 347 347 l 347 304 l 304 304 l 304 347 m 0 304 l 43 304 l 43 260 l 0 260 l 0 304 m 43 304 l 87 304 l 87 260 l 43 260 l 43 304 m 87 304 l 130 304 l 130 260 l 87 260 l 87 304 m 0 260 l 43 260 l 43 217 l 0 217 l 0 260 m 43 260 l 87 260 l 87 217 l 43 217 l 43 260 m 87 260 l 130 260 l 130 217 l 87 217 l 87 260 m 0 217 l 43 217 l 43 174 l 0 174 l 0 217 m 43 217 l 87 217 l 87 174 l 43 174 l 43 217 m 87 217 l 130 217 l 130 174 l 87 174 l 87 217 m 0 174 l 43 174 l 43 130 l 0 130 l 0 174 m 43 174 l 87 174 l 87 130 l 43 130 l 43 174 m 87 174 l 130 174 l 130 130 l 87 130 l 87 174 m 0 130 l 43 130 l 43 87 l 0 87 l 0 130 m 43 130 l 87 130 l 87 87 l 43 87 l 43 130 m 87 130 l 130 130 l 130 87 l 87 87 l 87 130 m 0 87 l 43 87 l 43 43 l 0 43 l 0 87 m 43 87 l 87 87 l 87 43 l 43 43 l 43 87 m 87 87 l 130 87 l 130 43 l 87 43 l 87 87 m 0 43 l 43 43 l 43 0 l 0 0 l 0 43 m 43 43 l 87 43 l 87 0 l 43 0 l 43 43 m 87 43 l 130 43 l 130 0 l 87 0 l 87 43 z "},"G":{"ha":564,"x_min":0,"x_max":477,"o":"m 87 738 l 130 738 l 130 694 l 87 694 l 87 738 m 130 738 l 174 738 l 174 694 l 130 694 l 130 738 m 174 738 l 217 738 l 217 694 l 174 694 l 174 738 m 217 738 l 260 738 l 260 694 l 217 694 l 217 738 m 260 738 l 304 738 l 304 694 l 260 694 l 260 738 m 304 738 l 347 738 l 347 694 l 304 694 l 304 738 m 347 738 l 391 738 l 391 694 l 347 694 l 347 738 m 43 694 l 87 694 l 87 651 l 43 651 l 43 694 m 87 694 l 130 694 l 130 651 l 87 651 l 87 694 m 130 694 l 174 694 l 174 651 l 130 651 l 130 694 m 174 694 l 217 694 l 217 651 l 174 651 l 174 694 m 217 694 l 260 694 l 260 651 l 217 651 l 217 694 m 260 694 l 304 694 l 304 651 l 260 651 l 260 694 m 304 694 l 347 694 l 347 651 l 304 651 l 304 694 m 347 694 l 391 694 l 391 651 l 347 651 l 347 694 m 391 694 l 434 694 l 434 651 l 391 651 l 391 694 m 0 651 l 43 651 l 43 608 l 0 608 l 0 651 m 43 651 l 87 651 l 87 608 l 43 608 l 43 651 m 87 651 l 130 651 l 130 608 l 87 608 l 87 651 m 130 651 l 174 651 l 174 608 l 130 608 l 130 651 m 174 651 l 217 651 l 217 608 l 174 608 l 174 651 m 217 651 l 260 651 l 260 608 l 217 608 l 217 651 m 260 651 l 304 651 l 304 608 l 260 608 l 260 651 m 304 651 l 347 651 l 347 608 l 304 608 l 304 651 m 347 651 l 391 651 l 391 608 l 347 608 l 347 651 m 391 651 l 434 651 l 434 608 l 391 608 l 391 651 m 434 651 l 477 651 l 477 608 l 434 608 l 434 651 m 0 608 l 43 608 l 43 564 l 0 564 l 0 608 m 43 608 l 87 608 l 87 564 l 43 564 l 43 608 m 87 608 l 130 608 l 130 564 l 87 564 l 87 608 m 347 608 l 391 608 l 391 564 l 347 564 l 347 608 m 391 608 l 434 608 l 434 564 l 391 564 l 391 608 m 434 608 l 477 608 l 477 564 l 434 564 l 434 608 m 0 564 l 43 564 l 43 521 l 0 521 l 0 564 m 43 564 l 87 564 l 87 521 l 43 521 l 43 564 m 87 564 l 130 564 l 130 521 l 87 521 l 87 564 m 347 564 l 391 564 l 391 521 l 347 521 l 347 564 m 391 564 l 434 564 l 434 521 l 391 521 l 391 564 m 434 564 l 477 564 l 477 521 l 434 521 l 434 564 m 0 521 l 43 521 l 43 477 l 0 477 l 0 521 m 43 521 l 87 521 l 87 477 l 43 477 l 43 521 m 87 521 l 130 521 l 130 477 l 87 477 l 87 521 m 0 477 l 43 477 l 43 434 l 0 434 l 0 477 m 43 477 l 87 477 l 87 434 l 43 434 l 43 477 m 87 477 l 130 477 l 130 434 l 87 434 l 87 477 m 0 434 l 43 434 l 43 391 l 0 391 l 0 434 m 43 434 l 87 434 l 87 391 l 43 391 l 43 434 m 87 434 l 130 434 l 130 391 l 87 391 l 87 434 m 260 434 l 304 434 l 304 391 l 260 391 l 260 434 m 304 434 l 347 434 l 347 391 l 304 391 l 304 434 m 347 434 l 391 434 l 391 391 l 347 391 l 347 434 m 391 434 l 434 434 l 434 391 l 391 391 l 391 434 m 434 434 l 477 434 l 477 391 l 434 391 l 434 434 m 0 391 l 43 391 l 43 347 l 0 347 l 0 391 m 43 391 l 87 391 l 87 347 l 43 347 l 43 391 m 87 391 l 130 391 l 130 347 l 87 347 l 87 391 m 260 391 l 304 391 l 304 347 l 260 347 l 260 391 m 304 391 l 347 391 l 347 347 l 304 347 l 304 391 m 347 391 l 391 391 l 391 347 l 347 347 l 347 391 m 391 391 l 434 391 l 434 347 l 391 347 l 391 391 m 434 391 l 477 391 l 477 347 l 434 347 l 434 391 m 0 347 l 43 347 l 43 304 l 0 304 l 0 347 m 43 347 l 87 347 l 87 304 l 43 304 l 43 347 m 87 347 l 130 347 l 130 304 l 87 304 l 87 347 m 260 347 l 304 347 l 304 304 l 260 304 l 260 347 m 304 347 l 347 347 l 347 304 l 304 304 l 304 347 m 347 347 l 391 347 l 391 304 l 347 304 l 347 347 m 391 347 l 434 347 l 434 304 l 391 304 l 391 347 m 434 347 l 477 347 l 477 304 l 434 304 l 434 347 m 0 304 l 43 304 l 43 260 l 0 260 l 0 304 m 43 304 l 87 304 l 87 260 l 43 260 l 43 304 m 87 304 l 130 304 l 130 260 l 87 260 l 87 304 m 347 304 l 391 304 l 391 260 l 347 260 l 347 304 m 391 304 l 434 304 l 434 260 l 391 260 l 391 304 m 434 304 l 477 304 l 477 260 l 434 260 l 434 304 m 0 260 l 43 260 l 43 217 l 0 217 l 0 260 m 43 260 l 87 260 l 87 217 l 43 217 l 43 260 m 87 260 l 130 260 l 130 217 l 87 217 l 87 260 m 347 260 l 391 260 l 391 217 l 347 217 l 347 260 m 391 260 l 434 260 l 434 217 l 391 217 l 391 260 m 434 260 l 477 260 l 477 217 l 434 217 l 434 260 m 0 217 l 43 217 l 43 174 l 0 174 l 0 217 m 43 217 l 87 217 l 87 174 l 43 174 l 43 217 m 87 217 l 130 217 l 130 174 l 87 174 l 87 217 m 347 217 l 391 217 l 391 174 l 347 174 l 347 217 m 391 217 l 434 217 l 434 174 l 391 174 l 391 217 m 434 217 l 477 217 l 477 174 l 434 174 l 434 217 m 0 174 l 43 174 l 43 130 l 0 130 l 0 174 m 43 174 l 87 174 l 87 130 l 43 130 l 43 174 m 87 174 l 130 174 l 130 130 l 87 130 l 87 174 m 347 174 l 391 174 l 391 130 l 347 130 l 347 174 m 391 174 l 434 174 l 434 130 l 391 130 l 391 174 m 434 174 l 477 174 l 477 130 l 434 130 l 434 174 m 0 130 l 43 130 l 43 87 l 0 87 l 0 130 m 43 130 l 87 130 l 87 87 l 43 87 l 43 130 m 87 130 l 130 130 l 130 87 l 87 87 l 87 130 m 130 130 l 174 130 l 174 87 l 130 87 l 130 130 m 174 130 l 217 130 l 217 87 l 174 87 l 174 130 m 217 130 l 260 130 l 260 87 l 217 87 l 217 130 m 260 130 l 304 130 l 304 87 l 260 87 l 260 130 m 304 130 l 347 130 l 347 87 l 304 87 l 304 130 m 347 130 l 391 130 l 391 87 l 347 87 l 347 130 m 391 130 l 434 130 l 434 87 l 391 87 l 391 130 m 434 130 l 477 130 l 477 87 l 434 87 l 434 130 m 43 87 l 87 87 l 87 43 l 43 43 l 43 87 m 87 87 l 130 87 l 130 43 l 87 43 l 87 87 m 130 87 l 174 87 l 174 43 l 130 43 l 130 87 m 174 87 l 217 87 l 217 43 l 174 43 l 174 87 m 217 87 l 260 87 l 260 43 l 217 43 l 217 87 m 260 87 l 304 87 l 304 43 l 260 43 l 260 87 m 304 87 l 347 87 l 347 43 l 304 43 l 304 87 m 347 87 l 391 87 l 391 43 l 347 43 l 347 87 m 391 87 l 434 87 l 434 43 l 391 43 l 391 87 m 87 43 l 130 43 l 130 0 l 87 0 l 87 43 m 130 43 l 174 43 l 174 0 l 130 0 l 130 43 m 174 43 l 217 43 l 217 0 l 174 0 l 174 43 m 217 43 l 260 43 l 260 0 l 217 0 l 217 43 m 260 43 l 304 43 l 304 0 l 260 0 l 260 43 m 304 43 l 347 43 l 347 0 l 304 0 l 304 43 m 347 43 l 391 43 l 391 0 l 347 0 l 347 43 z "},"H":{"ha":564,"x_min":0,"x_max":477,"o":"m 0 738 l 43 738 l 43 694 l 0 694 l 0 738 m 43 738 l 87 738 l 87 694 l 43 694 l 43 738 m 87 738 l 130 738 l 130 694 l 87 694 l 87 738 m 347 738 l 391 738 l 391 694 l 347 694 l 347 738 m 391 738 l 434 738 l 434 694 l 391 694 l 391 738 m 434 738 l 477 738 l 477 694 l 434 694 l 434 738 m 0 694 l 43 694 l 43 651 l 0 651 l 0 694 m 43 694 l 87 694 l 87 651 l 43 651 l 43 694 m 87 694 l 130 694 l 130 651 l 87 651 l 87 694 m 347 694 l 391 694 l 391 651 l 347 651 l 347 694 m 391 694 l 434 694 l 434 651 l 391 651 l 391 694 m 434 694 l 477 694 l 477 651 l 434 651 l 434 694 m 0 651 l 43 651 l 43 608 l 0 608 l 0 651 m 43 651 l 87 651 l 87 608 l 43 608 l 43 651 m 87 651 l 130 651 l 130 608 l 87 608 l 87 651 m 347 651 l 391 651 l 391 608 l 347 608 l 347 651 m 391 651 l 434 651 l 434 608 l 391 608 l 391 651 m 434 651 l 477 651 l 477 608 l 434 608 l 434 651 m 0 608 l 43 608 l 43 564 l 0 564 l 0 608 m 43 608 l 87 608 l 87 564 l 43 564 l 43 608 m 87 608 l 130 608 l 130 564 l 87 564 l 87 608 m 347 608 l 391 608 l 391 564 l 347 564 l 347 608 m 391 608 l 434 608 l 434 564 l 391 564 l 391 608 m 434 608 l 477 608 l 477 564 l 434 564 l 434 608 m 0 564 l 43 564 l 43 521 l 0 521 l 0 564 m 43 564 l 87 564 l 87 521 l 43 521 l 43 564 m 87 564 l 130 564 l 130 521 l 87 521 l 87 564 m 347 564 l 391 564 l 391 521 l 347 521 l 347 564 m 391 564 l 434 564 l 434 521 l 391 521 l 391 564 m 434 564 l 477 564 l 477 521 l 434 521 l 434 564 m 0 521 l 43 521 l 43 477 l 0 477 l 0 521 m 43 521 l 87 521 l 87 477 l 43 477 l 43 521 m 87 521 l 130 521 l 130 477 l 87 477 l 87 521 m 347 521 l 391 521 l 391 477 l 347 477 l 347 521 m 391 521 l 434 521 l 434 477 l 391 477 l 391 521 m 434 521 l 477 521 l 477 477 l 434 477 l 434 521 m 0 477 l 43 477 l 43 434 l 0 434 l 0 477 m 43 477 l 87 477 l 87 434 l 43 434 l 43 477 m 87 477 l 130 477 l 130 434 l 87 434 l 87 477 m 347 477 l 391 477 l 391 434 l 347 434 l 347 477 m 391 477 l 434 477 l 434 434 l 391 434 l 391 477 m 434 477 l 477 477 l 477 434 l 434 434 l 434 477 m 0 434 l 43 434 l 43 391 l 0 391 l 0 434 m 43 434 l 87 434 l 87 391 l 43 391 l 43 434 m 87 434 l 130 434 l 130 391 l 87 391 l 87 434 m 130 434 l 174 434 l 174 391 l 130 391 l 130 434 m 174 434 l 217 434 l 217 391 l 174 391 l 174 434 m 217 434 l 260 434 l 260 391 l 217 391 l 217 434 m 260 434 l 304 434 l 304 391 l 260 391 l 260 434 m 304 434 l 347 434 l 347 391 l 304 391 l 304 434 m 347 434 l 391 434 l 391 391 l 347 391 l 347 434 m 391 434 l 434 434 l 434 391 l 391 391 l 391 434 m 434 434 l 477 434 l 477 391 l 434 391 l 434 434 m 0 391 l 43 391 l 43 347 l 0 347 l 0 391 m 43 391 l 87 391 l 87 347 l 43 347 l 43 391 m 87 391 l 130 391 l 130 347 l 87 347 l 87 391 m 130 391 l 174 391 l 174 347 l 130 347 l 130 391 m 174 391 l 217 391 l 217 347 l 174 347 l 174 391 m 217 391 l 260 391 l 260 347 l 217 347 l 217 391 m 260 391 l 304 391 l 304 347 l 260 347 l 260 391 m 304 391 l 347 391 l 347 347 l 304 347 l 304 391 m 347 391 l 391 391 l 391 347 l 347 347 l 347 391 m 391 391 l 434 391 l 434 347 l 391 347 l 391 391 m 434 391 l 477 391 l 477 347 l 434 347 l 434 391 m 0 347 l 43 347 l 43 304 l 0 304 l 0 347 m 43 347 l 87 347 l 87 304 l 43 304 l 43 347 m 87 347 l 130 347 l 130 304 l 87 304 l 87 347 m 130 347 l 174 347 l 174 304 l 130 304 l 130 347 m 174 347 l 217 347 l 217 304 l 174 304 l 174 347 m 217 347 l 260 347 l 260 304 l 217 304 l 217 347 m 260 347 l 304 347 l 304 304 l 260 304 l 260 347 m 304 347 l 347 347 l 347 304 l 304 304 l 304 347 m 347 347 l 391 347 l 391 304 l 347 304 l 347 347 m 391 347 l 434 347 l 434 304 l 391 304 l 391 347 m 434 347 l 477 347 l 477 304 l 434 304 l 434 347 m 0 304 l 43 304 l 43 260 l 0 260 l 0 304 m 43 304 l 87 304 l 87 260 l 43 260 l 43 304 m 87 304 l 130 304 l 130 260 l 87 260 l 87 304 m 347 304 l 391 304 l 391 260 l 347 260 l 347 304 m 391 304 l 434 304 l 434 260 l 391 260 l 391 304 m 434 304 l 477 304 l 477 260 l 434 260 l 434 304 m 0 260 l 43 260 l 43 217 l 0 217 l 0 260 m 43 260 l 87 260 l 87 217 l 43 217 l 43 260 m 87 260 l 130 260 l 130 217 l 87 217 l 87 260 m 347 260 l 391 260 l 391 217 l 347 217 l 347 260 m 391 260 l 434 260 l 434 217 l 391 217 l 391 260 m 434 260 l 477 260 l 477 217 l 434 217 l 434 260 m 0 217 l 43 217 l 43 174 l 0 174 l 0 217 m 43 217 l 87 217 l 87 174 l 43 174 l 43 217 m 87 217 l 130 217 l 130 174 l 87 174 l 87 217 m 347 217 l 391 217 l 391 174 l 347 174 l 347 217 m 391 217 l 434 217 l 434 174 l 391 174 l 391 217 m 434 217 l 477 217 l 477 174 l 434 174 l 434 217 m 0 174 l 43 174 l 43 130 l 0 130 l 0 174 m 43 174 l 87 174 l 87 130 l 43 130 l 43 174 m 87 174 l 130 174 l 130 130 l 87 130 l 87 174 m 347 174 l 391 174 l 391 130 l 347 130 l 347 174 m 391 174 l 434 174 l 434 130 l 391 130 l 391 174 m 434 174 l 477 174 l 477 130 l 434 130 l 434 174 m 0 130 l 43 130 l 43 87 l 0 87 l 0 130 m 43 130 l 87 130 l 87 87 l 43 87 l 43 130 m 87 130 l 130 130 l 130 87 l 87 87 l 87 130 m 347 130 l 391 130 l 391 87 l 347 87 l 347 130 m 391 130 l 434 130 l 434 87 l 391 87 l 391 130 m 434 130 l 477 130 l 477 87 l 434 87 l 434 130 m 0 87 l 43 87 l 43 43 l 0 43 l 0 87 m 43 87 l 87 87 l 87 43 l 43 43 l 43 87 m 87 87 l 130 87 l 130 43 l 87 43 l 87 87 m 347 87 l 391 87 l 391 43 l 347 43 l 347 87 m 391 87 l 434 87 l 434 43 l 391 43 l 391 87 m 434 87 l 477 87 l 477 43 l 434 43 l 434 87 m 0 43 l 43 43 l 43 0 l 0 0 l 0 43 m 43 43 l 87 43 l 87 0 l 43 0 l 43 43 m 87 43 l 130 43 l 130 0 l 87 0 l 87 43 m 347 43 l 391 43 l 391 0 l 347 0 l 347 43 m 391 43 l 434 43 l 434 0 l 391 0 l 391 43 m 434 43 l 477 43 l 477 0 l 434 0 l 434 43 z "},"I":{"ha":477,"x_min":0,"x_max":391,"o":"m 0 738 l 43 738 l 43 694 l 0 694 l 0 738 m 43 738 l 87 738 l 87 694 l 43 694 l 43 738 m 87 738 l 130 738 l 130 694 l 87 694 l 87 738 m 130 738 l 174 738 l 174 694 l 130 694 l 130 738 m 174 738 l 217 738 l 217 694 l 174 694 l 174 738 m 217 738 l 260 738 l 260 694 l 217 694 l 217 738 m 260 738 l 304 738 l 304 694 l 260 694 l 260 738 m 304 738 l 347 738 l 347 694 l 304 694 l 304 738 m 347 738 l 391 738 l 391 694 l 347 694 l 347 738 m 0 694 l 43 694 l 43 651 l 0 651 l 0 694 m 43 694 l 87 694 l 87 651 l 43 651 l 43 694 m 87 694 l 130 694 l 130 651 l 87 651 l 87 694 m 130 694 l 174 694 l 174 651 l 130 651 l 130 694 m 174 694 l 217 694 l 217 651 l 174 651 l 174 694 m 217 694 l 260 694 l 260 651 l 217 651 l 217 694 m 260 694 l 304 694 l 304 651 l 260 651 l 260 694 m 304 694 l 347 694 l 347 651 l 304 651 l 304 694 m 347 694 l 391 694 l 391 651 l 347 651 l 347 694 m 0 651 l 43 651 l 43 608 l 0 608 l 0 651 m 43 651 l 87 651 l 87 608 l 43 608 l 43 651 m 87 651 l 130 651 l 130 608 l 87 608 l 87 651 m 130 651 l 174 651 l 174 608 l 130 608 l 130 651 m 174 651 l 217 651 l 217 608 l 174 608 l 174 651 m 217 651 l 260 651 l 260 608 l 217 608 l 217 651 m 260 651 l 304 651 l 304 608 l 260 608 l 260 651 m 304 651 l 347 651 l 347 608 l 304 608 l 304 651 m 347 651 l 391 651 l 391 608 l 347 608 l 347 651 m 130 608 l 174 608 l 174 564 l 130 564 l 130 608 m 174 608 l 217 608 l 217 564 l 174 564 l 174 608 m 217 608 l 260 608 l 260 564 l 217 564 l 217 608 m 130 564 l 174 564 l 174 521 l 130 521 l 130 564 m 174 564 l 217 564 l 217 521 l 174 521 l 174 564 m 217 564 l 260 564 l 260 521 l 217 521 l 217 564 m 130 521 l 174 521 l 174 477 l 130 477 l 130 521 m 174 521 l 217 521 l 217 477 l 174 477 l 174 521 m 217 521 l 260 521 l 260 477 l 217 477 l 217 521 m 130 477 l 174 477 l 174 434 l 130 434 l 130 477 m 174 477 l 217 477 l 217 434 l 174 434 l 174 477 m 217 477 l 260 477 l 260 434 l 217 434 l 217 477 m 130 434 l 174 434 l 174 391 l 130 391 l 130 434 m 174 434 l 217 434 l 217 391 l 174 391 l 174 434 m 217 434 l 260 434 l 260 391 l 217 391 l 217 434 m 130 391 l 174 391 l 174 347 l 130 347 l 130 391 m 174 391 l 217 391 l 217 347 l 174 347 l 174 391 m 217 391 l 260 391 l 260 347 l 217 347 l 217 391 m 130 347 l 174 347 l 174 304 l 130 304 l 130 347 m 174 347 l 217 347 l 217 304 l 174 304 l 174 347 m 217 347 l 260 347 l 260 304 l 217 304 l 217 347 m 130 304 l 174 304 l 174 260 l 130 260 l 130 304 m 174 304 l 217 304 l 217 260 l 174 260 l 174 304 m 217 304 l 260 304 l 260 260 l 217 260 l 217 304 m 130 260 l 174 260 l 174 217 l 130 217 l 130 260 m 174 260 l 217 260 l 217 217 l 174 217 l 174 260 m 217 260 l 260 260 l 260 217 l 217 217 l 217 260 m 130 217 l 174 217 l 174 174 l 130 174 l 130 217 m 174 217 l 217 217 l 217 174 l 174 174 l 174 217 m 217 217 l 260 217 l 260 174 l 217 174 l 217 217 m 130 174 l 174 174 l 174 130 l 130 130 l 130 174 m 174 174 l 217 174 l 217 130 l 174 130 l 174 174 m 217 174 l 260 174 l 260 130 l 217 130 l 217 174 m 0 130 l 43 130 l 43 87 l 0 87 l 0 130 m 43 130 l 87 130 l 87 87 l 43 87 l 43 130 m 87 130 l 130 130 l 130 87 l 87 87 l 87 130 m 130 130 l 174 130 l 174 87 l 130 87 l 130 130 m 174 130 l 217 130 l 217 87 l 174 87 l 174 130 m 217 130 l 260 130 l 260 87 l 217 87 l 217 130 m 260 130 l 304 130 l 304 87 l 260 87 l 260 130 m 304 130 l 347 130 l 347 87 l 304 87 l 304 130 m 347 130 l 391 130 l 391 87 l 347 87 l 347 130 m 0 87 l 43 87 l 43 43 l 0 43 l 0 87 m 43 87 l 87 87 l 87 43 l 43 43 l 43 87 m 87 87 l 130 87 l 130 43 l 87 43 l 87 87 m 130 87 l 174 87 l 174 43 l 130 43 l 130 87 m 174 87 l 217 87 l 217 43 l 174 43 l 174 87 m 217 87 l 260 87 l 260 43 l 217 43 l 217 87 m 260 87 l 304 87 l 304 43 l 260 43 l 260 87 m 304 87 l 347 87 l 347 43 l 304 43 l 304 87 m 347 87 l 391 87 l 391 43 l 347 43 l 347 87 m 0 43 l 43 43 l 43 0 l 0 0 l 0 43 m 43 43 l 87 43 l 87 0 l 43 0 l 43 43 m 87 43 l 130 43 l 130 0 l 87 0 l 87 43 m 130 43 l 174 43 l 174 0 l 130 0 l 130 43 m 174 43 l 217 43 l 217 0 l 174 0 l 174 43 m 217 43 l 260 43 l 260 0 l 217 0 l 217 43 m 260 43 l 304 43 l 304 0 l 260 0 l 260 43 m 304 43 l 347 43 l 347 0 l 304 0 l 304 43 m 347 43 l 391 43 l 391 0 l 347 0 l 347 43 z "},"J":{"ha":521,"x_min":0,"x_max":434,"o":"m 174 738 l 217 738 l 217 694 l 174 694 l 174 738 m 217 738 l 260 738 l 260 694 l 217 694 l 217 738 m 260 738 l 304 738 l 304 694 l 260 694 l 260 738 m 304 738 l 347 738 l 347 694 l 304 694 l 304 738 m 347 738 l 391 738 l 391 694 l 347 694 l 347 738 m 391 738 l 434 738 l 434 694 l 391 694 l 391 738 m 174 694 l 217 694 l 217 651 l 174 651 l 174 694 m 217 694 l 260 694 l 260 651 l 217 651 l 217 694 m 260 694 l 304 694 l 304 651 l 260 651 l 260 694 m 304 694 l 347 694 l 347 651 l 304 651 l 304 694 m 347 694 l 391 694 l 391 651 l 347 651 l 347 694 m 391 694 l 434 694 l 434 651 l 391 651 l 391 694 m 174 651 l 217 651 l 217 608 l 174 608 l 174 651 m 217 651 l 260 651 l 260 608 l 217 608 l 217 651 m 260 651 l 304 651 l 304 608 l 260 608 l 260 651 m 304 651 l 347 651 l 347 608 l 304 608 l 304 651 m 347 651 l 391 651 l 391 608 l 347 608 l 347 651 m 391 651 l 434 651 l 434 608 l 391 608 l 391 651 m 304 608 l 347 608 l 347 564 l 304 564 l 304 608 m 347 608 l 391 608 l 391 564 l 347 564 l 347 608 m 391 608 l 434 608 l 434 564 l 391 564 l 391 608 m 304 564 l 347 564 l 347 521 l 304 521 l 304 564 m 347 564 l 391 564 l 391 521 l 347 521 l 347 564 m 391 564 l 434 564 l 434 521 l 391 521 l 391 564 m 304 521 l 347 521 l 347 477 l 304 477 l 304 521 m 347 521 l 391 521 l 391 477 l 347 477 l 347 521 m 391 521 l 434 521 l 434 477 l 391 477 l 391 521 m 304 477 l 347 477 l 347 434 l 304 434 l 304 477 m 347 477 l 391 477 l 391 434 l 347 434 l 347 477 m 391 477 l 434 477 l 434 434 l 391 434 l 391 477 m 304 434 l 347 434 l 347 391 l 304 391 l 304 434 m 347 434 l 391 434 l 391 391 l 347 391 l 347 434 m 391 434 l 434 434 l 434 391 l 391 391 l 391 434 m 304 391 l 347 391 l 347 347 l 304 347 l 304 391 m 347 391 l 391 391 l 391 347 l 347 347 l 347 391 m 391 391 l 434 391 l 434 347 l 391 347 l 391 391 m 304 347 l 347 347 l 347 304 l 304 304 l 304 347 m 347 347 l 391 347 l 391 304 l 347 304 l 347 347 m 391 347 l 434 347 l 434 304 l 391 304 l 391 347 m 304 304 l 347 304 l 347 260 l 304 260 l 304 304 m 347 304 l 391 304 l 391 260 l 347 260 l 347 304 m 391 304 l 434 304 l 434 260 l 391 260 l 391 304 m 304 260 l 347 260 l 347 217 l 304 217 l 304 260 m 347 260 l 391 260 l 391 217 l 347 217 l 347 260 m 391 260 l 434 260 l 434 217 l 391 217 l 391 260 m 304 217 l 347 217 l 347 174 l 304 174 l 304 217 m 347 217 l 391 217 l 391 174 l 347 174 l 347 217 m 391 217 l 434 217 l 434 174 l 391 174 l 391 217 m 304 174 l 347 174 l 347 130 l 304 130 l 304 174 m 347 174 l 391 174 l 391 130 l 347 130 l 347 174 m 391 174 l 434 174 l 434 130 l 391 130 l 391 174 m 0 130 l 43 130 l 43 87 l 0 87 l 0 130 m 43 130 l 87 130 l 87 87 l 43 87 l 43 130 m 87 130 l 130 130 l 130 87 l 87 87 l 87 130 m 130 130 l 174 130 l 174 87 l 130 87 l 130 130 m 174 130 l 217 130 l 217 87 l 174 87 l 174 130 m 217 130 l 260 130 l 260 87 l 217 87 l 217 130 m 260 130 l 304 130 l 304 87 l 260 87 l 260 130 m 304 130 l 347 130 l 347 87 l 304 87 l 304 130 m 347 130 l 391 130 l 391 87 l 347 87 l 347 130 m 391 130 l 434 130 l 434 87 l 391 87 l 391 130 m 0 87 l 43 87 l 43 43 l 0 43 l 0 87 m 43 87 l 87 87 l 87 43 l 43 43 l 43 87 m 87 87 l 130 87 l 130 43 l 87 43 l 87 87 m 130 87 l 174 87 l 174 43 l 130 43 l 130 87 m 174 87 l 217 87 l 217 43 l 174 43 l 174 87 m 217 87 l 260 87 l 260 43 l 217 43 l 217 87 m 260 87 l 304 87 l 304 43 l 260 43 l 260 87 m 304 87 l 347 87 l 347 43 l 304 43 l 304 87 m 347 87 l 391 87 l 391 43 l 347 43 l 347 87 m 0 43 l 43 43 l 43 0 l 0 0 l 0 43 m 43 43 l 87 43 l 87 0 l 43 0 l 43 43 m 87 43 l 130 43 l 130 0 l 87 0 l 87 43 m 130 43 l 174 43 l 174 0 l 130 0 l 130 43 m 174 43 l 217 43 l 217 0 l 174 0 l 174 43 m 217 43 l 260 43 l 260 0 l 217 0 l 217 43 m 260 43 l 304 43 l 304 0 l 260 0 l 260 43 m 304 43 l 347 43 l 347 0 l 304 0 l 304 43 z "},"K":{"ha":564,"x_min":0,"x_max":477,"o":"m 0 738 l 43 738 l 43 694 l 0 694 l 0 738 m 43 738 l 87 738 l 87 694 l 43 694 l 43 738 m 87 738 l 130 738 l 130 694 l 87 694 l 87 738 m 347 738 l 391 738 l 391 694 l 347 694 l 347 738 m 391 738 l 434 738 l 434 694 l 391 694 l 391 738 m 434 738 l 477 738 l 477 694 l 434 694 l 434 738 m 0 694 l 43 694 l 43 651 l 0 651 l 0 694 m 43 694 l 87 694 l 87 651 l 43 651 l 43 694 m 87 694 l 130 694 l 130 651 l 87 651 l 87 694 m 304 694 l 347 694 l 347 651 l 304 651 l 304 694 m 347 694 l 391 694 l 391 651 l 347 651 l 347 694 m 391 694 l 434 694 l 434 651 l 391 651 l 391 694 m 434 694 l 477 694 l 477 651 l 434 651 l 434 694 m 0 651 l 43 651 l 43 608 l 0 608 l 0 651 m 43 651 l 87 651 l 87 608 l 43 608 l 43 651 m 87 651 l 130 651 l 130 608 l 87 608 l 87 651 m 260 651 l 304 651 l 304 608 l 260 608 l 260 651 m 304 651 l 347 651 l 347 608 l 304 608 l 304 651 m 347 651 l 391 651 l 391 608 l 347 608 l 347 651 m 391 651 l 434 651 l 434 608 l 391 608 l 391 651 m 0 608 l 43 608 l 43 564 l 0 564 l 0 608 m 43 608 l 87 608 l 87 564 l 43 564 l 43 608 m 87 608 l 130 608 l 130 564 l 87 564 l 87 608 m 217 608 l 260 608 l 260 564 l 217 564 l 217 608 m 260 608 l 304 608 l 304 564 l 260 564 l 260 608 m 304 608 l 347 608 l 347 564 l 304 564 l 304 608 m 347 608 l 391 608 l 391 564 l 347 564 l 347 608 m 0 564 l 43 564 l 43 521 l 0 521 l 0 564 m 43 564 l 87 564 l 87 521 l 43 521 l 43 564 m 87 564 l 130 564 l 130 521 l 87 521 l 87 564 m 174 564 l 217 564 l 217 521 l 174 521 l 174 564 m 217 564 l 260 564 l 260 521 l 217 521 l 217 564 m 260 564 l 304 564 l 304 521 l 260 521 l 260 564 m 304 564 l 347 564 l 347 521 l 304 521 l 304 564 m 0 521 l 43 521 l 43 477 l 0 477 l 0 521 m 43 521 l 87 521 l 87 477 l 43 477 l 43 521 m 87 521 l 130 521 l 130 477 l 87 477 l 87 521 m 130 521 l 174 521 l 174 477 l 130 477 l 130 521 m 174 521 l 217 521 l 217 477 l 174 477 l 174 521 m 217 521 l 260 521 l 260 477 l 217 477 l 217 521 m 260 521 l 304 521 l 304 477 l 260 477 l 260 521 m 0 477 l 43 477 l 43 434 l 0 434 l 0 477 m 43 477 l 87 477 l 87 434 l 43 434 l 43 477 m 87 477 l 130 477 l 130 434 l 87 434 l 87 477 m 130 477 l 174 477 l 174 434 l 130 434 l 130 477 m 174 477 l 217 477 l 217 434 l 174 434 l 174 477 m 217 477 l 260 477 l 260 434 l 217 434 l 217 477 m 0 434 l 43 434 l 43 391 l 0 391 l 0 434 m 43 434 l 87 434 l 87 391 l 43 391 l 43 434 m 87 434 l 130 434 l 130 391 l 87 391 l 87 434 m 130 434 l 174 434 l 174 391 l 130 391 l 130 434 m 174 434 l 217 434 l 217 391 l 174 391 l 174 434 m 0 391 l 43 391 l 43 347 l 0 347 l 0 391 m 43 391 l 87 391 l 87 347 l 43 347 l 43 391 m 87 391 l 130 391 l 130 347 l 87 347 l 87 391 m 130 391 l 174 391 l 174 347 l 130 347 l 130 391 m 0 347 l 43 347 l 43 304 l 0 304 l 0 347 m 43 347 l 87 347 l 87 304 l 43 304 l 43 347 m 87 347 l 130 347 l 130 304 l 87 304 l 87 347 m 130 347 l 174 347 l 174 304 l 130 304 l 130 347 m 174 347 l 217 347 l 217 304 l 174 304 l 174 347 m 0 304 l 43 304 l 43 260 l 0 260 l 0 304 m 43 304 l 87 304 l 87 260 l 43 260 l 43 304 m 87 304 l 130 304 l 130 260 l 87 260 l 87 304 m 130 304 l 174 304 l 174 260 l 130 260 l 130 304 m 174 304 l 217 304 l 217 260 l 174 260 l 174 304 m 217 304 l 260 304 l 260 260 l 217 260 l 217 304 m 0 260 l 43 260 l 43 217 l 0 217 l 0 260 m 43 260 l 87 260 l 87 217 l 43 217 l 43 260 m 87 260 l 130 260 l 130 217 l 87 217 l 87 260 m 130 260 l 174 260 l 174 217 l 130 217 l 130 260 m 174 260 l 217 260 l 217 217 l 174 217 l 174 260 m 217 260 l 260 260 l 260 217 l 217 217 l 217 260 m 260 260 l 304 260 l 304 217 l 260 217 l 260 260 m 0 217 l 43 217 l 43 174 l 0 174 l 0 217 m 43 217 l 87 217 l 87 174 l 43 174 l 43 217 m 87 217 l 130 217 l 130 174 l 87 174 l 87 217 m 174 217 l 217 217 l 217 174 l 174 174 l 174 217 m 217 217 l 260 217 l 260 174 l 217 174 l 217 217 m 260 217 l 304 217 l 304 174 l 260 174 l 260 217 m 304 217 l 347 217 l 347 174 l 304 174 l 304 217 m 0 174 l 43 174 l 43 130 l 0 130 l 0 174 m 43 174 l 87 174 l 87 130 l 43 130 l 43 174 m 87 174 l 130 174 l 130 130 l 87 130 l 87 174 m 217 174 l 260 174 l 260 130 l 217 130 l 217 174 m 260 174 l 304 174 l 304 130 l 260 130 l 260 174 m 304 174 l 347 174 l 347 130 l 304 130 l 304 174 m 347 174 l 391 174 l 391 130 l 347 130 l 347 174 m 0 130 l 43 130 l 43 87 l 0 87 l 0 130 m 43 130 l 87 130 l 87 87 l 43 87 l 43 130 m 87 130 l 130 130 l 130 87 l 87 87 l 87 130 m 260 130 l 304 130 l 304 87 l 260 87 l 260 130 m 304 130 l 347 130 l 347 87 l 304 87 l 304 130 m 347 130 l 391 130 l 391 87 l 347 87 l 347 130 m 391 130 l 434 130 l 434 87 l 391 87 l 391 130 m 0 87 l 43 87 l 43 43 l 0 43 l 0 87 m 43 87 l 87 87 l 87 43 l 43 43 l 43 87 m 87 87 l 130 87 l 130 43 l 87 43 l 87 87 m 304 87 l 347 87 l 347 43 l 304 43 l 304 87 m 347 87 l 391 87 l 391 43 l 347 43 l 347 87 m 391 87 l 434 87 l 434 43 l 391 43 l 391 87 m 434 87 l 477 87 l 477 43 l 434 43 l 434 87 m 0 43 l 43 43 l 43 0 l 0 0 l 0 43 m 43 43 l 87 43 l 87 0 l 43 0 l 43 43 m 87 43 l 130 43 l 130 0 l 87 0 l 87 43 m 347 43 l 391 43 l 391 0 l 347 0 l 347 43 m 391 43 l 434 43 l 434 0 l 391 0 l 391 43 m 434 43 l 477 43 l 477 0 l 434 0 l 434 43 z "},"L":{"ha":521,"x_min":0,"x_max":434,"o":"m 0 738 l 43 738 l 43 694 l 0 694 l 0 738 m 43 738 l 87 738 l 87 694 l 43 694 l 43 738 m 87 738 l 130 738 l 130 694 l 87 694 l 87 738 m 0 694 l 43 694 l 43 651 l 0 651 l 0 694 m 43 694 l 87 694 l 87 651 l 43 651 l 43 694 m 87 694 l 130 694 l 130 651 l 87 651 l 87 694 m 0 651 l 43 651 l 43 608 l 0 608 l 0 651 m 43 651 l 87 651 l 87 608 l 43 608 l 43 651 m 87 651 l 130 651 l 130 608 l 87 608 l 87 651 m 0 608 l 43 608 l 43 564 l 0 564 l 0 608 m 43 608 l 87 608 l 87 564 l 43 564 l 43 608 m 87 608 l 130 608 l 130 564 l 87 564 l 87 608 m 0 564 l 43 564 l 43 521 l 0 521 l 0 564 m 43 564 l 87 564 l 87 521 l 43 521 l 43 564 m 87 564 l 130 564 l 130 521 l 87 521 l 87 564 m 0 521 l 43 521 l 43 477 l 0 477 l 0 521 m 43 521 l 87 521 l 87 477 l 43 477 l 43 521 m 87 521 l 130 521 l 130 477 l 87 477 l 87 521 m 0 477 l 43 477 l 43 434 l 0 434 l 0 477 m 43 477 l 87 477 l 87 434 l 43 434 l 43 477 m 87 477 l 130 477 l 130 434 l 87 434 l 87 477 m 0 434 l 43 434 l 43 391 l 0 391 l 0 434 m 43 434 l 87 434 l 87 391 l 43 391 l 43 434 m 87 434 l 130 434 l 130 391 l 87 391 l 87 434 m 0 391 l 43 391 l 43 347 l 0 347 l 0 391 m 43 391 l 87 391 l 87 347 l 43 347 l 43 391 m 87 391 l 130 391 l 130 347 l 87 347 l 87 391 m 0 347 l 43 347 l 43 304 l 0 304 l 0 347 m 43 347 l 87 347 l 87 304 l 43 304 l 43 347 m 87 347 l 130 347 l 130 304 l 87 304 l 87 347 m 0 304 l 43 304 l 43 260 l 0 260 l 0 304 m 43 304 l 87 304 l 87 260 l 43 260 l 43 304 m 87 304 l 130 304 l 130 260 l 87 260 l 87 304 m 0 260 l 43 260 l 43 217 l 0 217 l 0 260 m 43 260 l 87 260 l 87 217 l 43 217 l 43 260 m 87 260 l 130 260 l 130 217 l 87 217 l 87 260 m 0 217 l 43 217 l 43 174 l 0 174 l 0 217 m 43 217 l 87 217 l 87 174 l 43 174 l 43 217 m 87 217 l 130 217 l 130 174 l 87 174 l 87 217 m 0 174 l 43 174 l 43 130 l 0 130 l 0 174 m 43 174 l 87 174 l 87 130 l 43 130 l 43 174 m 87 174 l 130 174 l 130 130 l 87 130 l 87 174 m 0 130 l 43 130 l 43 87 l 0 87 l 0 130 m 43 130 l 87 130 l 87 87 l 43 87 l 43 130 m 87 130 l 130 130 l 130 87 l 87 87 l 87 130 m 130 130 l 174 130 l 174 87 l 130 87 l 130 130 m 174 130 l 217 130 l 217 87 l 174 87 l 174 130 m 217 130 l 260 130 l 260 87 l 217 87 l 217 130 m 260 130 l 304 130 l 304 87 l 260 87 l 260 130 m 304 130 l 347 130 l 347 87 l 304 87 l 304 130 m 347 130 l 391 130 l 391 87 l 347 87 l 347 130 m 391 130 l 434 130 l 434 87 l 391 87 l 391 130 m 43 87 l 87 87 l 87 43 l 43 43 l 43 87 m 87 87 l 130 87 l 130 43 l 87 43 l 87 87 m 130 87 l 174 87 l 174 43 l 130 43 l 130 87 m 174 87 l 217 87 l 217 43 l 174 43 l 174 87 m 217 87 l 260 87 l 260 43 l 217 43 l 217 87 m 260 87 l 304 87 l 304 43 l 260 43 l 260 87 m 304 87 l 347 87 l 347 43 l 304 43 l 304 87 m 347 87 l 391 87 l 391 43 l 347 43 l 347 87 m 391 87 l 434 87 l 434 43 l 391 43 l 391 87 m 87 43 l 130 43 l 130 0 l 87 0 l 87 43 m 130 43 l 174 43 l 174 0 l 130 0 l 130 43 m 174 43 l 217 43 l 217 0 l 174 0 l 174 43 m 217 43 l 260 43 l 260 0 l 217 0 l 217 43 m 260 43 l 304 43 l 304 0 l 260 0 l 260 43 m 304 43 l 347 43 l 347 0 l 304 0 l 304 43 m 347 43 l 391 43 l 391 0 l 347 0 l 347 43 m 391 43 l 434 43 l 434 0 l 391 0 l 391 43 z "},"M":{"ha":564,"x_min":0,"x_max":477,"o":"m 0 738 l 43 738 l 43 694 l 0 694 l 0 738 m 43 738 l 87 738 l 87 694 l 43 694 l 43 738 m 391 738 l 434 738 l 434 694 l 391 694 l 391 738 m 434 738 l 477 738 l 477 694 l 434 694 l 434 738 m 0 694 l 43 694 l 43 651 l 0 651 l 0 694 m 43 694 l 87 694 l 87 651 l 43 651 l 43 694 m 87 694 l 130 694 l 130 651 l 87 651 l 87 694 m 347 694 l 391 694 l 391 651 l 347 651 l 347 694 m 391 694 l 434 694 l 434 651 l 391 651 l 391 694 m 434 694 l 477 694 l 477 651 l 434 651 l 434 694 m 0 651 l 43 651 l 43 608 l 0 608 l 0 651 m 43 651 l 87 651 l 87 608 l 43 608 l 43 651 m 87 651 l 130 651 l 130 608 l 87 608 l 87 651 m 130 651 l 174 651 l 174 608 l 130 608 l 130 651 m 304 651 l 347 651 l 347 608 l 304 608 l 304 651 m 347 651 l 391 651 l 391 608 l 347 608 l 347 651 m 391 651 l 434 651 l 434 608 l 391 608 l 391 651 m 434 651 l 477 651 l 477 608 l 434 608 l 434 651 m 0 608 l 43 608 l 43 564 l 0 564 l 0 608 m 43 608 l 87 608 l 87 564 l 43 564 l 43 608 m 87 608 l 130 608 l 130 564 l 87 564 l 87 608 m 130 608 l 174 608 l 174 564 l 130 564 l 130 608 m 174 608 l 217 608 l 217 564 l 174 564 l 174 608 m 260 608 l 304 608 l 304 564 l 260 564 l 260 608 m 304 608 l 347 608 l 347 564 l 304 564 l 304 608 m 347 608 l 391 608 l 391 564 l 347 564 l 347 608 m 391 608 l 434 608 l 434 564 l 391 564 l 391 608 m 434 608 l 477 608 l 477 564 l 434 564 l 434 608 m 0 564 l 43 564 l 43 521 l 0 521 l 0 564 m 43 564 l 87 564 l 87 521 l 43 521 l 43 564 m 87 564 l 130 564 l 130 521 l 87 521 l 87 564 m 130 564 l 174 564 l 174 521 l 130 521 l 130 564 m 174 564 l 217 564 l 217 521 l 174 521 l 174 564 m 217 564 l 260 564 l 260 521 l 217 521 l 217 564 m 260 564 l 304 564 l 304 521 l 260 521 l 260 564 m 304 564 l 347 564 l 347 521 l 304 521 l 304 564 m 347 564 l 391 564 l 391 521 l 347 521 l 347 564 m 391 564 l 434 564 l 434 521 l 391 521 l 391 564 m 434 564 l 477 564 l 477 521 l 434 521 l 434 564 m 0 521 l 43 521 l 43 477 l 0 477 l 0 521 m 43 521 l 87 521 l 87 477 l 43 477 l 43 521 m 87 521 l 130 521 l 130 477 l 87 477 l 87 521 m 130 521 l 174 521 l 174 477 l 130 477 l 130 521 m 174 521 l 217 521 l 217 477 l 174 477 l 174 521 m 217 521 l 260 521 l 260 477 l 217 477 l 217 521 m 260 521 l 304 521 l 304 477 l 260 477 l 260 521 m 304 521 l 347 521 l 347 477 l 304 477 l 304 521 m 347 521 l 391 521 l 391 477 l 347 477 l 347 521 m 391 521 l 434 521 l 434 477 l 391 477 l 391 521 m 434 521 l 477 521 l 477 477 l 434 477 l 434 521 m 0 477 l 43 477 l 43 434 l 0 434 l 0 477 m 43 477 l 87 477 l 87 434 l 43 434 l 43 477 m 87 477 l 130 477 l 130 434 l 87 434 l 87 477 m 174 477 l 217 477 l 217 434 l 174 434 l 174 477 m 217 477 l 260 477 l 260 434 l 217 434 l 217 477 m 260 477 l 304 477 l 304 434 l 260 434 l 260 477 m 347 477 l 391 477 l 391 434 l 347 434 l 347 477 m 391 477 l 434 477 l 434 434 l 391 434 l 391 477 m 434 477 l 477 477 l 477 434 l 434 434 l 434 477 m 0 434 l 43 434 l 43 391 l 0 391 l 0 434 m 43 434 l 87 434 l 87 391 l 43 391 l 43 434 m 87 434 l 130 434 l 130 391 l 87 391 l 87 434 m 217 434 l 260 434 l 260 391 l 217 391 l 217 434 m 347 434 l 391 434 l 391 391 l 347 391 l 347 434 m 391 434 l 434 434 l 434 391 l 391 391 l 391 434 m 434 434 l 477 434 l 477 391 l 434 391 l 434 434 m 0 391 l 43 391 l 43 347 l 0 347 l 0 391 m 43 391 l 87 391 l 87 347 l 43 347 l 43 391 m 87 391 l 130 391 l 130 347 l 87 347 l 87 391 m 347 391 l 391 391 l 391 347 l 347 347 l 347 391 m 391 391 l 434 391 l 434 347 l 391 347 l 391 391 m 434 391 l 477 391 l 477 347 l 434 347 l 434 391 m 0 347 l 43 347 l 43 304 l 0 304 l 0 347 m 43 347 l 87 347 l 87 304 l 43 304 l 43 347 m 87 347 l 130 347 l 130 304 l 87 304 l 87 347 m 347 347 l 391 347 l 391 304 l 347 304 l 347 347 m 391 347 l 434 347 l 434 304 l 391 304 l 391 347 m 434 347 l 477 347 l 477 304 l 434 304 l 434 347 m 0 304 l 43 304 l 43 260 l 0 260 l 0 304 m 43 304 l 87 304 l 87 260 l 43 260 l 43 304 m 87 304 l 130 304 l 130 260 l 87 260 l 87 304 m 347 304 l 391 304 l 391 260 l 347 260 l 347 304 m 391 304 l 434 304 l 434 260 l 391 260 l 391 304 m 434 304 l 477 304 l 477 260 l 434 260 l 434 304 m 0 260 l 43 260 l 43 217 l 0 217 l 0 260 m 43 260 l 87 260 l 87 217 l 43 217 l 43 260 m 87 260 l 130 260 l 130 217 l 87 217 l 87 260 m 347 260 l 391 260 l 391 217 l 347 217 l 347 260 m 391 260 l 434 260 l 434 217 l 391 217 l 391 260 m 434 260 l 477 260 l 477 217 l 434 217 l 434 260 m 0 217 l 43 217 l 43 174 l 0 174 l 0 217 m 43 217 l 87 217 l 87 174 l 43 174 l 43 217 m 87 217 l 130 217 l 130 174 l 87 174 l 87 217 m 347 217 l 391 217 l 391 174 l 347 174 l 347 217 m 391 217 l 434 217 l 434 174 l 391 174 l 391 217 m 434 217 l 477 217 l 477 174 l 434 174 l 434 217 m 0 174 l 43 174 l 43 130 l 0 130 l 0 174 m 43 174 l 87 174 l 87 130 l 43 130 l 43 174 m 87 174 l 130 174 l 130 130 l 87 130 l 87 174 m 347 174 l 391 174 l 391 130 l 347 130 l 347 174 m 391 174 l 434 174 l 434 130 l 391 130 l 391 174 m 434 174 l 477 174 l 477 130 l 434 130 l 434 174 m 0 130 l 43 130 l 43 87 l 0 87 l 0 130 m 43 130 l 87 130 l 87 87 l 43 87 l 43 130 m 87 130 l 130 130 l 130 87 l 87 87 l 87 130 m 347 130 l 391 130 l 391 87 l 347 87 l 347 130 m 391 130 l 434 130 l 434 87 l 391 87 l 391 130 m 434 130 l 477 130 l 477 87 l 434 87 l 434 130 m 0 87 l 43 87 l 43 43 l 0 43 l 0 87 m 43 87 l 87 87 l 87 43 l 43 43 l 43 87 m 87 87 l 130 87 l 130 43 l 87 43 l 87 87 m 347 87 l 391 87 l 391 43 l 347 43 l 347 87 m 391 87 l 434 87 l 434 43 l 391 43 l 391 87 m 434 87 l 477 87 l 477 43 l 434 43 l 434 87 m 0 43 l 43 43 l 43 0 l 0 0 l 0 43 m 43 43 l 87 43 l 87 0 l 43 0 l 43 43 m 87 43 l 130 43 l 130 0 l 87 0 l 87 43 m 347 43 l 391 43 l 391 0 l 347 0 l 347 43 m 391 43 l 434 43 l 434 0 l 391 0 l 391 43 m 434 43 l 477 43 l 477 0 l 434 0 l 434 43 z "},"N":{"ha":564,"x_min":0,"x_max":477,"o":"m 0 738 l 43 738 l 43 694 l 0 694 l 0 738 m 43 738 l 87 738 l 87 694 l 43 694 l 43 738 m 347 738 l 391 738 l 391 694 l 347 694 l 347 738 m 391 738 l 434 738 l 434 694 l 391 694 l 391 738 m 434 738 l 477 738 l 477 694 l 434 694 l 434 738 m 0 694 l 43 694 l 43 651 l 0 651 l 0 694 m 43 694 l 87 694 l 87 651 l 43 651 l 43 694 m 87 694 l 130 694 l 130 651 l 87 651 l 87 694 m 347 694 l 391 694 l 391 651 l 347 651 l 347 694 m 391 694 l 434 694 l 434 651 l 391 651 l 391 694 m 434 694 l 477 694 l 477 651 l 434 651 l 434 694 m 0 651 l 43 651 l 43 608 l 0 608 l 0 651 m 43 651 l 87 651 l 87 608 l 43 608 l 43 651 m 87 651 l 130 651 l 130 608 l 87 608 l 87 651 m 130 651 l 174 651 l 174 608 l 130 608 l 130 651 m 347 651 l 391 651 l 391 608 l 347 608 l 347 651 m 391 651 l 434 651 l 434 608 l 391 608 l 391 651 m 434 651 l 477 651 l 477 608 l 434 608 l 434 651 m 0 608 l 43 608 l 43 564 l 0 564 l 0 608 m 43 608 l 87 608 l 87 564 l 43 564 l 43 608 m 87 608 l 130 608 l 130 564 l 87 564 l 87 608 m 130 608 l 174 608 l 174 564 l 130 564 l 130 608 m 174 608 l 217 608 l 217 564 l 174 564 l 174 608 m 347 608 l 391 608 l 391 564 l 347 564 l 347 608 m 391 608 l 434 608 l 434 564 l 391 564 l 391 608 m 434 608 l 477 608 l 477 564 l 434 564 l 434 608 m 0 564 l 43 564 l 43 521 l 0 521 l 0 564 m 43 564 l 87 564 l 87 521 l 43 521 l 43 564 m 87 564 l 130 564 l 130 521 l 87 521 l 87 564 m 130 564 l 174 564 l 174 521 l 130 521 l 130 564 m 174 564 l 217 564 l 217 521 l 174 521 l 174 564 m 217 564 l 260 564 l 260 521 l 217 521 l 217 564 m 347 564 l 391 564 l 391 521 l 347 521 l 347 564 m 391 564 l 434 564 l 434 521 l 391 521 l 391 564 m 434 564 l 477 564 l 477 521 l 434 521 l 434 564 m 0 521 l 43 521 l 43 477 l 0 477 l 0 521 m 43 521 l 87 521 l 87 477 l 43 477 l 43 521 m 87 521 l 130 521 l 130 477 l 87 477 l 87 521 m 130 521 l 174 521 l 174 477 l 130 477 l 130 521 m 174 521 l 217 521 l 217 477 l 174 477 l 174 521 m 217 521 l 260 521 l 260 477 l 217 477 l 217 521 m 260 521 l 304 521 l 304 477 l 260 477 l 260 521 m 347 521 l 391 521 l 391 477 l 347 477 l 347 521 m 391 521 l 434 521 l 434 477 l 391 477 l 391 521 m 434 521 l 477 521 l 477 477 l 434 477 l 434 521 m 0 477 l 43 477 l 43 434 l 0 434 l 0 477 m 43 477 l 87 477 l 87 434 l 43 434 l 43 477 m 87 477 l 130 477 l 130 434 l 87 434 l 87 477 m 174 477 l 217 477 l 217 434 l 174 434 l 174 477 m 217 477 l 260 477 l 260 434 l 217 434 l 217 477 m 260 477 l 304 477 l 304 434 l 260 434 l 260 477 m 304 477 l 347 477 l 347 434 l 304 434 l 304 477 m 347 477 l 391 477 l 391 434 l 347 434 l 347 477 m 391 477 l 434 477 l 434 434 l 391 434 l 391 477 m 434 477 l 477 477 l 477 434 l 434 434 l 434 477 m 0 434 l 43 434 l 43 391 l 0 391 l 0 434 m 43 434 l 87 434 l 87 391 l 43 391 l 43 434 m 87 434 l 130 434 l 130 391 l 87 391 l 87 434 m 217 434 l 260 434 l 260 391 l 217 391 l 217 434 m 260 434 l 304 434 l 304 391 l 260 391 l 260 434 m 304 434 l 347 434 l 347 391 l 304 391 l 304 434 m 347 434 l 391 434 l 391 391 l 347 391 l 347 434 m 391 434 l 434 434 l 434 391 l 391 391 l 391 434 m 434 434 l 477 434 l 477 391 l 434 391 l 434 434 m 0 391 l 43 391 l 43 347 l 0 347 l 0 391 m 43 391 l 87 391 l 87 347 l 43 347 l 43 391 m 87 391 l 130 391 l 130 347 l 87 347 l 87 391 m 260 391 l 304 391 l 304 347 l 260 347 l 260 391 m 304 391 l 347 391 l 347 347 l 304 347 l 304 391 m 347 391 l 391 391 l 391 347 l 347 347 l 347 391 m 391 391 l 434 391 l 434 347 l 391 347 l 391 391 m 434 391 l 477 391 l 477 347 l 434 347 l 434 391 m 0 347 l 43 347 l 43 304 l 0 304 l 0 347 m 43 347 l 87 347 l 87 304 l 43 304 l 43 347 m 87 347 l 130 347 l 130 304 l 87 304 l 87 347 m 304 347 l 347 347 l 347 304 l 304 304 l 304 347 m 347 347 l 391 347 l 391 304 l 347 304 l 347 347 m 391 347 l 434 347 l 434 304 l 391 304 l 391 347 m 434 347 l 477 347 l 477 304 l 434 304 l 434 347 m 0 304 l 43 304 l 43 260 l 0 260 l 0 304 m 43 304 l 87 304 l 87 260 l 43 260 l 43 304 m 87 304 l 130 304 l 130 260 l 87 260 l 87 304 m 347 304 l 391 304 l 391 260 l 347 260 l 347 304 m 391 304 l 434 304 l 434 260 l 391 260 l 391 304 m 434 304 l 477 304 l 477 260 l 434 260 l 434 304 m 0 260 l 43 260 l 43 217 l 0 217 l 0 260 m 43 260 l 87 260 l 87 217 l 43 217 l 43 260 m 87 260 l 130 260 l 130 217 l 87 217 l 87 260 m 347 260 l 391 260 l 391 217 l 347 217 l 347 260 m 391 260 l 434 260 l 434 217 l 391 217 l 391 260 m 434 260 l 477 260 l 477 217 l 434 217 l 434 260 m 0 217 l 43 217 l 43 174 l 0 174 l 0 217 m 43 217 l 87 217 l 87 174 l 43 174 l 43 217 m 87 217 l 130 217 l 130 174 l 87 174 l 87 217 m 347 217 l 391 217 l 391 174 l 347 174 l 347 217 m 391 217 l 434 217 l 434 174 l 391 174 l 391 217 m 434 217 l 477 217 l 477 174 l 434 174 l 434 217 m 0 174 l 43 174 l 43 130 l 0 130 l 0 174 m 43 174 l 87 174 l 87 130 l 43 130 l 43 174 m 87 174 l 130 174 l 130 130 l 87 130 l 87 174 m 347 174 l 391 174 l 391 130 l 347 130 l 347 174 m 391 174 l 434 174 l 434 130 l 391 130 l 391 174 m 434 174 l 477 174 l 477 130 l 434 130 l 434 174 m 0 130 l 43 130 l 43 87 l 0 87 l 0 130 m 43 130 l 87 130 l 87 87 l 43 87 l 43 130 m 87 130 l 130 130 l 130 87 l 87 87 l 87 130 m 347 130 l 391 130 l 391 87 l 347 87 l 347 130 m 391 130 l 434 130 l 434 87 l 391 87 l 391 130 m 434 130 l 477 130 l 477 87 l 434 87 l 434 130 m 0 87 l 43 87 l 43 43 l 0 43 l 0 87 m 43 87 l 87 87 l 87 43 l 43 43 l 43 87 m 87 87 l 130 87 l 130 43 l 87 43 l 87 87 m 347 87 l 391 87 l 391 43 l 347 43 l 347 87 m 391 87 l 434 87 l 434 43 l 391 43 l 391 87 m 434 87 l 477 87 l 477 43 l 434 43 l 434 87 m 0 43 l 43 43 l 43 0 l 0 0 l 0 43 m 43 43 l 87 43 l 87 0 l 43 0 l 43 43 m 87 43 l 130 43 l 130 0 l 87 0 l 87 43 m 347 43 l 391 43 l 391 0 l 347 0 l 347 43 m 391 43 l 434 43 l 434 0 l 391 0 l 391 43 m 434 43 l 477 43 l 477 0 l 434 0 l 434 43 z "},"O":{"ha":564,"x_min":0,"x_max":477,"o":"m 87 738 l 130 738 l 130 694 l 87 694 l 87 738 m 130 738 l 174 738 l 174 694 l 130 694 l 130 738 m 174 738 l 217 738 l 217 694 l 174 694 l 174 738 m 217 738 l 260 738 l 260 694 l 217 694 l 217 738 m 260 738 l 304 738 l 304 694 l 260 694 l 260 738 m 304 738 l 347 738 l 347 694 l 304 694 l 304 738 m 347 738 l 391 738 l 391 694 l 347 694 l 347 738 m 43 694 l 87 694 l 87 651 l 43 651 l 43 694 m 87 694 l 130 694 l 130 651 l 87 651 l 87 694 m 130 694 l 174 694 l 174 651 l 130 651 l 130 694 m 174 694 l 217 694 l 217 651 l 174 651 l 174 694 m 217 694 l 260 694 l 260 651 l 217 651 l 217 694 m 260 694 l 304 694 l 304 651 l 260 651 l 260 694 m 304 694 l 347 694 l 347 651 l 304 651 l 304 694 m 347 694 l 391 694 l 391 651 l 347 651 l 347 694 m 391 694 l 434 694 l 434 651 l 391 651 l 391 694 m 0 651 l 43 651 l 43 608 l 0 608 l 0 651 m 43 651 l 87 651 l 87 608 l 43 608 l 43 651 m 87 651 l 130 651 l 130 608 l 87 608 l 87 651 m 130 651 l 174 651 l 174 608 l 130 608 l 130 651 m 174 651 l 217 651 l 217 608 l 174 608 l 174 651 m 217 651 l 260 651 l 260 608 l 217 608 l 217 651 m 260 651 l 304 651 l 304 608 l 260 608 l 260 651 m 304 651 l 347 651 l 347 608 l 304 608 l 304 651 m 347 651 l 391 651 l 391 608 l 347 608 l 347 651 m 391 651 l 434 651 l 434 608 l 391 608 l 391 651 m 434 651 l 477 651 l 477 608 l 434 608 l 434 651 m 0 608 l 43 608 l 43 564 l 0 564 l 0 608 m 43 608 l 87 608 l 87 564 l 43 564 l 43 608 m 87 608 l 130 608 l 130 564 l 87 564 l 87 608 m 347 608 l 391 608 l 391 564 l 347 564 l 347 608 m 391 608 l 434 608 l 434 564 l 391 564 l 391 608 m 434 608 l 477 608 l 477 564 l 434 564 l 434 608 m 0 564 l 43 564 l 43 521 l 0 521 l 0 564 m 43 564 l 87 564 l 87 521 l 43 521 l 43 564 m 87 564 l 130 564 l 130 521 l 87 521 l 87 564 m 347 564 l 391 564 l 391 521 l 347 521 l 347 564 m 391 564 l 434 564 l 434 521 l 391 521 l 391 564 m 434 564 l 477 564 l 477 521 l 434 521 l 434 564 m 0 521 l 43 521 l 43 477 l 0 477 l 0 521 m 43 521 l 87 521 l 87 477 l 43 477 l 43 521 m 87 521 l 130 521 l 130 477 l 87 477 l 87 521 m 347 521 l 391 521 l 391 477 l 347 477 l 347 521 m 391 521 l 434 521 l 434 477 l 391 477 l 391 521 m 434 521 l 477 521 l 477 477 l 434 477 l 434 521 m 0 477 l 43 477 l 43 434 l 0 434 l 0 477 m 43 477 l 87 477 l 87 434 l 43 434 l 43 477 m 87 477 l 130 477 l 130 434 l 87 434 l 87 477 m 347 477 l 391 477 l 391 434 l 347 434 l 347 477 m 391 477 l 434 477 l 434 434 l 391 434 l 391 477 m 434 477 l 477 477 l 477 434 l 434 434 l 434 477 m 0 434 l 43 434 l 43 391 l 0 391 l 0 434 m 43 434 l 87 434 l 87 391 l 43 391 l 43 434 m 87 434 l 130 434 l 130 391 l 87 391 l 87 434 m 347 434 l 391 434 l 391 391 l 347 391 l 347 434 m 391 434 l 434 434 l 434 391 l 391 391 l 391 434 m 434 434 l 477 434 l 477 391 l 434 391 l 434 434 m 0 391 l 43 391 l 43 347 l 0 347 l 0 391 m 43 391 l 87 391 l 87 347 l 43 347 l 43 391 m 87 391 l 130 391 l 130 347 l 87 347 l 87 391 m 347 391 l 391 391 l 391 347 l 347 347 l 347 391 m 391 391 l 434 391 l 434 347 l 391 347 l 391 391 m 434 391 l 477 391 l 477 347 l 434 347 l 434 391 m 0 347 l 43 347 l 43 304 l 0 304 l 0 347 m 43 347 l 87 347 l 87 304 l 43 304 l 43 347 m 87 347 l 130 347 l 130 304 l 87 304 l 87 347 m 347 347 l 391 347 l 391 304 l 347 304 l 347 347 m 391 347 l 434 347 l 434 304 l 391 304 l 391 347 m 434 347 l 477 347 l 477 304 l 434 304 l 434 347 m 0 304 l 43 304 l 43 260 l 0 260 l 0 304 m 43 304 l 87 304 l 87 260 l 43 260 l 43 304 m 87 304 l 130 304 l 130 260 l 87 260 l 87 304 m 347 304 l 391 304 l 391 260 l 347 260 l 347 304 m 391 304 l 434 304 l 434 260 l 391 260 l 391 304 m 434 304 l 477 304 l 477 260 l 434 260 l 434 304 m 0 260 l 43 260 l 43 217 l 0 217 l 0 260 m 43 260 l 87 260 l 87 217 l 43 217 l 43 260 m 87 260 l 130 260 l 130 217 l 87 217 l 87 260 m 347 260 l 391 260 l 391 217 l 347 217 l 347 260 m 391 260 l 434 260 l 434 217 l 391 217 l 391 260 m 434 260 l 477 260 l 477 217 l 434 217 l 434 260 m 0 217 l 43 217 l 43 174 l 0 174 l 0 217 m 43 217 l 87 217 l 87 174 l 43 174 l 43 217 m 87 217 l 130 217 l 130 174 l 87 174 l 87 217 m 347 217 l 391 217 l 391 174 l 347 174 l 347 217 m 391 217 l 434 217 l 434 174 l 391 174 l 391 217 m 434 217 l 477 217 l 477 174 l 434 174 l 434 217 m 0 174 l 43 174 l 43 130 l 0 130 l 0 174 m 43 174 l 87 174 l 87 130 l 43 130 l 43 174 m 87 174 l 130 174 l 130 130 l 87 130 l 87 174 m 347 174 l 391 174 l 391 130 l 347 130 l 347 174 m 391 174 l 434 174 l 434 130 l 391 130 l 391 174 m 434 174 l 477 174 l 477 130 l 434 130 l 434 174 m 0 130 l 43 130 l 43 87 l 0 87 l 0 130 m 43 130 l 87 130 l 87 87 l 43 87 l 43 130 m 87 130 l 130 130 l 130 87 l 87 87 l 87 130 m 130 130 l 174 130 l 174 87 l 130 87 l 130 130 m 174 130 l 217 130 l 217 87 l 174 87 l 174 130 m 217 130 l 260 130 l 260 87 l 217 87 l 217 130 m 260 130 l 304 130 l 304 87 l 260 87 l 260 130 m 304 130 l 347 130 l 347 87 l 304 87 l 304 130 m 347 130 l 391 130 l 391 87 l 347 87 l 347 130 m 391 130 l 434 130 l 434 87 l 391 87 l 391 130 m 434 130 l 477 130 l 477 87 l 434 87 l 434 130 m 43 87 l 87 87 l 87 43 l 43 43 l 43 87 m 87 87 l 130 87 l 130 43 l 87 43 l 87 87 m 130 87 l 174 87 l 174 43 l 130 43 l 130 87 m 174 87 l 217 87 l 217 43 l 174 43 l 174 87 m 217 87 l 260 87 l 260 43 l 217 43 l 217 87 m 260 87 l 304 87 l 304 43 l 260 43 l 260 87 m 304 87 l 347 87 l 347 43 l 304 43 l 304 87 m 347 87 l 391 87 l 391 43 l 347 43 l 347 87 m 391 87 l 434 87 l 434 43 l 391 43 l 391 87 m 87 43 l 130 43 l 130 0 l 87 0 l 87 43 m 130 43 l 174 43 l 174 0 l 130 0 l 130 43 m 174 43 l 217 43 l 217 0 l 174 0 l 174 43 m 217 43 l 260 43 l 260 0 l 217 0 l 217 43 m 260 43 l 304 43 l 304 0 l 260 0 l 260 43 m 304 43 l 347 43 l 347 0 l 304 0 l 304 43 m 347 43 l 391 43 l 391 0 l 347 0 l 347 43 z "}}}
